<?xml version="1.0" encoding="UTF-8"?>
<!DOCTYPE svg PUBLIC "-//W3C//DTD SVG 1.1//EN" "http://www.w3.org/Graphics/SVG/1.1/DTD/svg11.dtd">
<!-- Creator: CorelDRAW 2018 (64-Bit Evaluation Version) -->
<svg xmlns="http://www.w3.org/2000/svg" xml:space="preserve" width="60.7081mm" height="19.0001mm" version="1.1" style="shape-rendering:geometricPrecision; text-rendering:geometricPrecision; image-rendering:optimizeQuality; fill-rule:evenodd; clip-rule:evenodd"
viewBox="0 0 5212.32 1631.32"
 xmlns:xlink="http://www.w3.org/1999/xlink">
 <defs>
  <style type="text/css">
   <![CDATA[
    .fil1 {fill:#727376}
    .fil0 {fill:#727376;fill-rule:nonzero}
   ]]>
  </style>
 </defs>
 <g id="Layer_x0020_1">
  <metadata id="CorelCorpID_0Corel-Layer"/>
  <path class="fil0" d="M1912.84 1228.54l65.15 -159.2 15.6 0 64.92 159.2 -23.4 0 -53.45 -134.65 8.03 0 -53.91 134.65 -22.94 0zm30.97 -36.02l0 -18.81 83.73 0 0 18.81 -83.73 0zm206.15 38.31c-12.54,0 -23.24,-2.29 -32.11,-6.88 -8.87,-4.59 -16.74,-11.25 -23.63,-19.96l14.68 -14.68c5.05,7.04 10.86,12.36 17.43,15.94 6.58,3.6 14.68,5.39 24.32,5.39 9.48,0 17.09,-2.06 22.82,-6.19 5.74,-4.13 8.6,-9.79 8.6,-16.98 0,-5.96 -1.37,-10.78 -4.13,-14.45 -2.76,-3.67 -6.47,-6.69 -11.13,-9.06 -4.66,-2.37 -9.74,-4.52 -15.26,-6.42 -5.5,-1.91 -11.01,-3.98 -16.51,-6.2 -5.5,-2.22 -10.55,-4.96 -15.15,-8.25 -4.58,-3.29 -8.29,-7.62 -11.12,-12.96 -2.83,-5.35 -4.25,-12.08 -4.25,-20.19 0,-9.02 2.18,-16.71 6.54,-23.05 4.35,-6.35 10.32,-11.25 17.89,-14.68 7.56,-3.44 16.09,-5.16 25.58,-5.16 10.4,0 19.73,2.03 27.98,6.08 8.26,4.05 14.99,9.37 20.19,15.94l-14.68 14.68c-4.75,-5.5 -9.83,-9.63 -15.26,-12.38 -5.43,-2.76 -11.66,-4.13 -18.7,-4.13 -8.56,0 -15.37,1.87 -20.42,5.62 -5.04,3.75 -7.56,8.99 -7.56,15.71 0,5.36 1.42,9.68 4.24,12.96 2.83,3.29 6.54,6.08 11.13,8.37 4.58,2.29 9.67,4.4 15.26,6.31 5.58,1.91 11.12,4.02 16.63,6.31 5.5,2.29 10.55,5.19 15.14,8.71 4.58,3.52 8.29,8.07 11.13,13.65 2.82,5.58 4.24,12.58 4.24,20.98 0,14.07 -4.85,25.09 -14.56,33.04 -9.71,7.95 -22.83,11.93 -39.35,11.93zm150.87 0c-12.54,0 -23.24,-2.29 -32.11,-6.88 -8.87,-4.59 -16.74,-11.25 -23.63,-19.96l14.68 -14.68c5.05,7.04 10.86,12.36 17.43,15.94 6.58,3.6 14.68,5.39 24.32,5.39 9.48,0 17.09,-2.06 22.82,-6.19 5.74,-4.13 8.6,-9.79 8.6,-16.98 0,-5.96 -1.37,-10.78 -4.13,-14.45 -2.76,-3.67 -6.47,-6.69 -11.13,-9.06 -4.66,-2.37 -9.74,-4.52 -15.26,-6.42 -5.5,-1.91 -11.01,-3.98 -16.51,-6.2 -5.5,-2.22 -10.55,-4.96 -15.15,-8.25 -4.58,-3.29 -8.29,-7.62 -11.12,-12.96 -2.83,-5.35 -4.25,-12.08 -4.25,-20.19 0,-9.02 2.18,-16.71 6.54,-23.05 4.35,-6.35 10.32,-11.25 17.89,-14.68 7.56,-3.44 16.09,-5.16 25.58,-5.16 10.4,0 19.73,2.03 27.98,6.08 8.26,4.05 14.99,9.37 20.19,15.94l-14.68 14.68c-4.75,-5.5 -9.83,-9.63 -15.26,-12.38 -5.43,-2.76 -11.66,-4.13 -18.7,-4.13 -8.56,0 -15.37,1.87 -20.42,5.62 -5.04,3.75 -7.56,8.99 -7.56,15.71 0,5.36 1.42,9.68 4.24,12.96 2.83,3.29 6.54,6.08 11.13,8.37 4.58,2.29 9.67,4.4 15.26,6.31 5.58,1.91 11.12,4.02 16.63,6.31 5.5,2.29 10.55,5.19 15.14,8.71 4.58,3.52 8.29,8.07 11.13,13.65 2.82,5.58 4.24,12.58 4.24,20.98 0,14.07 -4.85,25.09 -14.56,33.04 -9.71,7.95 -22.83,11.93 -39.35,11.93zm110.72 -2.29l0 -159.2 21.56 0 0 159.2 -21.56 0zm14.68 0l0 -19.73 91.3 0 0 19.73 -91.3 0zm0 -72.03l0 -18.81 83.73 0 0 18.81 -83.73 0zm0 -67.45l0 -19.72 90.15 0 0 19.72 -90.15 0zm188.49 141.77c-12.54,0 -23.24,-2.29 -32.11,-6.88 -8.87,-4.59 -16.74,-11.25 -23.63,-19.96l14.68 -14.68c5.05,7.04 10.86,12.36 17.43,15.94 6.58,3.6 14.68,5.39 24.32,5.39 9.48,0 17.09,-2.06 22.82,-6.19 5.74,-4.13 8.6,-9.79 8.6,-16.98 0,-5.96 -1.37,-10.78 -4.13,-14.45 -2.76,-3.67 -6.47,-6.69 -11.13,-9.06 -4.66,-2.37 -9.74,-4.52 -15.26,-6.42 -5.5,-1.91 -11.01,-3.98 -16.51,-6.2 -5.5,-2.22 -10.55,-4.96 -15.15,-8.25 -4.58,-3.29 -8.29,-7.62 -11.12,-12.96 -2.83,-5.35 -4.25,-12.08 -4.25,-20.19 0,-9.02 2.18,-16.71 6.54,-23.05 4.35,-6.35 10.32,-11.25 17.89,-14.68 7.56,-3.44 16.09,-5.16 25.58,-5.16 10.4,0 19.73,2.03 27.98,6.08 8.26,4.05 14.99,9.37 20.19,15.94l-14.68 14.68c-4.75,-5.5 -9.83,-9.63 -15.26,-12.38 -5.43,-2.76 -11.66,-4.13 -18.7,-4.13 -8.56,0 -15.37,1.87 -20.42,5.62 -5.04,3.75 -7.56,8.99 -7.56,15.71 0,5.36 1.42,9.68 4.24,12.96 2.83,3.29 6.54,6.08 11.13,8.37 4.58,2.29 9.67,4.4 15.26,6.31 5.58,1.91 11.12,4.02 16.63,6.31 5.5,2.29 10.55,5.19 15.14,8.71 4.58,3.52 8.29,8.07 11.13,13.65 2.82,5.58 4.24,12.58 4.24,20.98 0,14.07 -4.85,25.09 -14.56,33.04 -9.71,7.95 -22.83,11.93 -39.35,11.93zm150.87 0c-12.54,0 -23.24,-2.29 -32.11,-6.88 -8.87,-4.59 -16.74,-11.25 -23.63,-19.96l14.68 -14.68c5.05,7.04 10.86,12.36 17.43,15.94 6.58,3.6 14.68,5.39 24.32,5.39 9.48,0 17.09,-2.06 22.82,-6.19 5.74,-4.13 8.6,-9.79 8.6,-16.98 0,-5.96 -1.37,-10.78 -4.13,-14.45 -2.76,-3.67 -6.47,-6.69 -11.13,-9.06 -4.66,-2.37 -9.74,-4.52 -15.26,-6.42 -5.5,-1.91 -11.01,-3.98 -16.51,-6.2 -5.5,-2.22 -10.55,-4.96 -15.15,-8.25 -4.58,-3.29 -8.29,-7.62 -11.12,-12.96 -2.83,-5.35 -4.25,-12.08 -4.25,-20.19 0,-9.02 2.18,-16.71 6.54,-23.05 4.35,-6.35 10.32,-11.25 17.89,-14.68 7.56,-3.44 16.09,-5.16 25.58,-5.16 10.4,0 19.73,2.03 27.98,6.08 8.26,4.05 14.99,9.37 20.19,15.94l-14.68 14.68c-4.75,-5.5 -9.83,-9.63 -15.26,-12.38 -5.43,-2.76 -11.66,-4.13 -18.7,-4.13 -8.56,0 -15.37,1.87 -20.42,5.62 -5.04,3.75 -7.56,8.99 -7.56,15.71 0,5.36 1.42,9.68 4.24,12.96 2.83,3.29 6.54,6.08 11.13,8.37 4.58,2.29 9.67,4.4 15.26,6.31 5.58,1.91 11.12,4.02 16.63,6.31 5.5,2.29 10.55,5.19 15.14,8.71 4.58,3.52 8.29,8.07 11.13,13.65 2.82,5.58 4.24,12.58 4.24,20.98 0,14.07 -4.85,25.09 -14.56,33.04 -9.71,7.95 -22.83,11.93 -39.35,11.93zm183.91 0c-11.32,0 -21.87,-2.1 -31.66,-6.31 -9.79,-4.2 -18.36,-10.09 -25.7,-17.66 -7.34,-7.57 -13.03,-16.32 -17.09,-26.26 -4.05,-9.94 -6.08,-20.57 -6.08,-31.89 0,-11.47 2.03,-22.13 6.08,-32 4.05,-9.87 9.71,-18.55 16.97,-26.04 7.26,-7.49 15.76,-13.3 25.47,-17.43 9.71,-4.13 20.22,-6.19 31.54,-6.19 11.32,0 21.83,2.06 31.54,6.19 9.71,4.13 18.24,9.94 25.58,17.43 7.34,7.5 13.08,16.22 17.21,26.15 4.13,9.94 6.19,20.65 6.19,32.12 0,11.32 -2.06,21.95 -6.19,31.89 -4.13,9.93 -9.82,18.66 -17.09,26.15 -7.26,7.49 -15.75,13.34 -25.46,17.54 -9.71,4.21 -20.15,6.31 -31.31,6.31zm-0.46 -20.64c11.47,0 21.52,-2.64 30.17,-7.92 8.64,-5.28 15.48,-12.54 20.53,-21.79 5.05,-9.26 7.57,-19.85 7.57,-31.78 0,-8.87 -1.46,-17.01 -4.36,-24.43 -2.9,-7.42 -6.95,-13.88 -12.16,-19.39 -5.2,-5.5 -11.32,-9.75 -18.35,-12.73 -7.04,-2.98 -14.84,-4.47 -23.41,-4.47 -11.32,0 -21.29,2.6 -29.93,7.8 -8.65,5.19 -15.45,12.38 -20.42,21.56 -4.97,9.18 -7.46,19.73 -7.46,31.66 0,8.87 1.42,17.09 4.25,24.66 2.82,7.57 6.8,14.07 11.93,19.5 5.13,5.43 11.24,9.68 18.35,12.73 7.12,3.06 14.88,4.59 23.28,4.59zm152.24 -50.93l0 -18.12 43.13 0c9.33,0 16.52,-2.37 21.57,-7.11 5.04,-4.74 7.56,-11.16 7.56,-19.27 0,-7.65 -2.48,-13.99 -7.45,-19.04 -4.97,-5.05 -12.12,-7.56 -21.45,-7.56l-43.36 0 0 -18.81 44.05 0c10.1,0 18.89,1.95 26.38,5.85 7.49,3.9 13.27,9.21 17.32,15.94 4.05,6.73 6.08,14.45 6.08,23.16 0,9.02 -2.03,16.91 -6.08,23.63 -4.05,6.73 -9.83,11.97 -17.32,15.72 -7.5,3.74 -16.29,5.62 -26.38,5.62l-44.05 0zm-14.45 69.28l0 -159.2 21.56 0 0 159.2 -21.56 0zm91.76 0l-57.81 -71.34 20.42 -7.12 64.69 78.46 -27.3 0zm77.23 0l0 -159.2 21.56 0 0 159.2 -21.56 0zm75.16 0l65.15 -159.2 15.6 0 64.92 159.2 -23.4 0 -53.45 -134.65 8.03 0 -53.91 134.65 -22.94 0zm30.97 -36.02l0 -18.81 83.73 0 0 18.81 -83.73 0zm209.37 36.02l0 -159.2 21.56 0 0 159.2 -21.56 0zm14.68 0l0 -19.73 91.3 0 0 19.73 -91.3 0zm0 -72.03l0 -18.81 83.73 0 0 18.81 -83.73 0zm0 -67.45l0 -19.72 90.15 0 0 19.72 -90.15 0zm240.33 141.77c-12.54,0 -23.24,-2.29 -32.11,-6.88 -8.87,-4.59 -16.74,-11.25 -23.63,-19.96l14.68 -14.68c5.05,7.04 10.86,12.36 17.43,15.94 6.58,3.6 14.68,5.39 24.32,5.39 9.48,0 17.09,-2.06 22.82,-6.19 5.74,-4.13 8.6,-9.79 8.6,-16.98 0,-5.96 -1.37,-10.78 -4.13,-14.45 -2.76,-3.67 -6.47,-6.69 -11.13,-9.06 -4.66,-2.37 -9.74,-4.52 -15.26,-6.42 -5.5,-1.91 -11.01,-3.98 -16.51,-6.2 -5.5,-2.22 -10.55,-4.96 -15.15,-8.25 -4.58,-3.29 -8.29,-7.62 -11.12,-12.96 -2.83,-5.35 -4.25,-12.08 -4.25,-20.19 0,-9.02 2.18,-16.71 6.54,-23.05 4.35,-6.35 10.32,-11.25 17.89,-14.68 7.56,-3.44 16.09,-5.16 25.58,-5.16 10.4,0 19.73,2.03 27.98,6.08 8.26,4.05 14.99,9.37 20.19,15.94l-14.68 14.68c-4.75,-5.5 -9.83,-9.63 -15.26,-12.38 -5.43,-2.76 -11.66,-4.13 -18.7,-4.13 -8.56,0 -15.37,1.87 -20.42,5.62 -5.04,3.75 -7.56,8.99 -7.56,15.71 0,5.36 1.42,9.68 4.24,12.96 2.83,3.29 6.54,6.08 11.13,8.37 4.58,2.29 9.67,4.4 15.26,6.31 5.58,1.91 11.12,4.02 16.63,6.31 5.5,2.29 10.55,5.19 15.14,8.71 4.58,3.52 8.29,8.07 11.13,13.65 2.82,5.58 4.24,12.58 4.24,20.98 0,14.07 -4.85,25.09 -14.56,33.04 -9.71,7.95 -22.83,11.93 -39.35,11.93zm110.72 -2.29l0 -159.2 21.56 0 0 159.2 -21.56 0zm14.68 0l0 -19.73 91.3 0 0 19.73 -91.3 0zm0 -72.03l0 -18.81 83.73 0 0 18.81 -83.73 0zm0 -67.45l0 -19.72 90.15 0 0 19.72 -90.15 0zm162.8 70.2l0 -18.12 43.13 0c9.33,0 16.52,-2.37 21.57,-7.11 5.04,-4.74 7.56,-11.16 7.56,-19.27 0,-7.65 -2.48,-13.99 -7.45,-19.04 -4.97,-5.05 -12.12,-7.56 -21.45,-7.56l-43.36 0 0 -18.81 44.05 0c10.1,0 18.89,1.95 26.38,5.85 7.49,3.9 13.27,9.21 17.32,15.94 4.05,6.73 6.08,14.45 6.08,23.16 0,9.02 -2.03,16.91 -6.08,23.63 -4.05,6.73 -9.83,11.97 -17.32,15.72 -7.5,3.74 -16.29,5.62 -26.38,5.62l-44.05 0zm-14.45 69.28l0 -159.2 21.56 0 0 159.2 -21.56 0zm91.76 0l-57.81 -71.34 20.42 -7.12 64.69 78.46 -27.3 0zm123.34 0l-63.78 -159.2 23.4 0 52.54 134.65 -8.49 0 52.99 -134.65 23.17 0 -64.23 159.2 -15.6 0zm133.43 0l0 -159.2 21.56 0 0 159.2 -21.56 0zm159.12 2.29c-11.47,0 -22.1,-2.1 -31.89,-6.31 -9.79,-4.2 -18.31,-10.05 -25.58,-17.54 -7.26,-7.5 -12.88,-16.22 -16.86,-26.15 -3.98,-9.94 -5.96,-20.57 -5.96,-31.89 0,-11.47 1.98,-22.18 5.96,-32.12 3.98,-9.93 9.6,-18.61 16.86,-26.03 7.26,-7.42 15.76,-13.23 25.47,-17.44 9.71,-4.21 20.3,-6.3 31.77,-6.3 12.54,0 23.55,2.14 33.04,6.42 9.48,4.28 17.89,10.09 25.23,17.43l-14.91 14.91c-5.05,-5.66 -11.2,-10.1 -18.47,-13.31 -7.26,-3.21 -15.56,-4.82 -24.89,-4.82 -8.41,0 -16.13,1.49 -23.16,4.47 -7.04,2.98 -13.15,7.23 -18.36,12.73 -5.19,5.5 -9.21,12 -12.04,19.5 -2.83,7.5 -4.25,15.68 -4.25,24.55 0,8.87 1.42,17.05 4.25,24.55 2.82,7.49 6.84,13.99 12.04,19.5 5.2,5.5 11.32,9.74 18.36,12.73 7.03,2.98 14.76,4.47 23.16,4.47 9.94,0 18.58,-1.65 25.92,-4.94 7.34,-3.29 13.54,-7.76 18.59,-13.42l14.91 14.68c-7.34,7.65 -15.94,13.61 -25.8,17.89 -9.87,4.28 -20.99,6.42 -33.38,6.42zm-8.26 45.65c-5.35,0 -10.17,-0.73 -14.45,-2.18 -4.28,-1.45 -8.41,-3.48 -12.39,-6.08l9.41 -11.24c1.83,1.84 4.09,3.29 6.77,4.36 2.68,1.06 5.77,1.61 9.29,1.61 4.58,0 7.95,-0.69 10.09,-2.07 2.15,-1.37 3.22,-3.13 3.22,-5.27 0,-2.15 -1.07,-3.98 -3.22,-5.51 -2.14,-1.53 -5.35,-2.29 -9.63,-2.29l-10.09 0 7.11 -22.25 15.6 0 -5.28 16.51 -7.56 -6.19c9.32,-0.31 16.78,1.49 22.37,5.39 5.58,3.9 8.37,8.83 8.37,14.79 0,5.97 -2.68,10.86 -8.03,14.68 -5.36,3.82 -12.54,5.74 -21.57,5.74zm187.58 -45.65c-11.32,0 -21.87,-2.1 -31.66,-6.31 -9.79,-4.2 -18.36,-10.09 -25.7,-17.66 -7.34,-7.57 -13.03,-16.32 -17.09,-26.26 -4.05,-9.94 -6.08,-20.57 -6.08,-31.89 0,-11.47 2.03,-22.13 6.08,-32 4.05,-9.87 9.71,-18.55 16.97,-26.04 7.26,-7.49 15.76,-13.3 25.47,-17.43 9.71,-4.13 20.22,-6.19 31.54,-6.19 11.32,0 21.83,2.06 31.54,6.19 9.71,4.13 18.24,9.94 25.58,17.43 7.34,7.5 13.08,16.22 17.21,26.15 4.13,9.94 6.19,20.65 6.19,32.12 0,11.32 -2.06,21.95 -6.19,31.89 -4.13,9.93 -9.82,18.66 -17.09,26.15 -7.26,7.49 -15.75,13.34 -25.46,17.54 -9.71,4.21 -20.15,6.31 -31.31,6.31zm-0.46 -20.64c11.47,0 21.52,-2.64 30.17,-7.92 8.64,-5.28 15.48,-12.54 20.53,-21.79 5.05,-9.26 7.57,-19.85 7.57,-31.78 0,-8.87 -1.46,-17.01 -4.36,-24.43 -2.9,-7.42 -6.95,-13.88 -12.16,-19.39 -5.2,-5.5 -11.32,-9.75 -18.35,-12.73 -7.04,-2.98 -14.84,-4.47 -23.41,-4.47 -11.32,0 -21.29,2.6 -29.93,7.8 -8.65,5.19 -15.45,12.38 -20.42,21.56 -4.97,9.18 -7.46,19.73 -7.46,31.66 0,8.87 1.42,17.09 4.25,24.66 2.82,7.57 6.8,14.07 11.93,19.5 5.13,5.43 11.24,9.68 18.35,12.73 7.12,3.06 14.88,4.59 23.28,4.59zm177.7 20.64c-12.54,0 -23.24,-2.29 -32.11,-6.88 -8.87,-4.59 -16.74,-11.25 -23.63,-19.96l14.68 -14.68c5.05,7.04 10.86,12.36 17.43,15.94 6.58,3.6 14.68,5.39 24.32,5.39 9.48,0 17.09,-2.06 22.82,-6.19 5.74,-4.13 8.6,-9.79 8.6,-16.98 0,-5.96 -1.37,-10.78 -4.13,-14.45 -2.76,-3.67 -6.47,-6.69 -11.13,-9.06 -4.66,-2.37 -9.74,-4.52 -15.26,-6.42 -5.5,-1.91 -11.01,-3.98 -16.51,-6.2 -5.5,-2.22 -10.55,-4.96 -15.15,-8.25 -4.58,-3.29 -8.29,-7.62 -11.12,-12.96 -2.83,-5.35 -4.25,-12.08 -4.25,-20.19 0,-9.02 2.18,-16.71 6.54,-23.05 4.35,-6.35 10.32,-11.25 17.89,-14.68 7.56,-3.44 16.09,-5.16 25.58,-5.16 10.4,0 19.73,2.03 27.98,6.08 8.26,4.05 14.99,9.37 20.19,15.94l-14.68 14.68c-4.75,-5.5 -9.83,-9.63 -15.26,-12.38 -5.43,-2.76 -11.66,-4.13 -18.7,-4.13 -8.56,0 -15.37,1.87 -20.42,5.62 -5.04,3.75 -7.56,8.99 -7.56,15.71 0,5.36 1.42,9.68 4.24,12.96 2.83,3.29 6.54,6.08 11.13,8.37 4.58,2.29 9.67,4.4 15.26,6.31 5.58,1.91 11.12,4.02 16.63,6.31 5.5,2.29 10.55,5.19 15.14,8.71 4.58,3.52 8.29,8.07 11.13,13.65 2.82,5.58 4.24,12.58 4.24,20.98 0,14.07 -4.85,25.09 -14.56,33.04 -9.71,7.95 -22.83,11.93 -39.35,11.93z"/>
  <path class="fil0" d="M815.67 0c225.22,0 429.16,91.3 576.76,238.9 147.6,147.59 238.9,351.53 238.9,576.76 0,225.22 -91.3,429.17 -238.9,576.76 -147.6,147.6 -351.53,238.9 -576.76,238.9 -225.23,0 -429.16,-91.3 -576.76,-238.9 -147.6,-147.59 -238.9,-351.54 -238.9,-576.76 0,-225.22 91.3,-429.16 238.9,-576.76 147.59,-147.6 351.53,-238.9 576.76,-238.9zm546.4 269.26c-139.83,-139.84 -333.02,-226.33 -546.4,-226.33 -213.38,0 -406.58,86.49 -546.4,226.33 -139.84,139.83 -226.33,333.02 -226.33,546.4 0,213.38 86.49,406.58 226.33,546.4 139.83,139.83 333.02,226.33 546.4,226.33 213.38,0 406.57,-86.5 546.4,-226.33 139.84,-139.83 226.33,-333.03 226.33,-546.4 0,-213.38 -86.49,-406.57 -226.33,-546.4z"/>
  <g id="_2883899936336">
   <path class="fil1" d="M1114.64 1112.85l-376.26 0c-172.79,0 -314.22,-141.44 -314.22,-314.23 0,-172.8 141.43,-314.22 314.22,-314.22l357.64 0 0 65.47 -357.64 0c-136.83,0 -248.74,111.92 -248.74,248.75 0,136.84 111.91,248.74 248.74,248.74l376.26 0 0 65.48z"/>
   <path class="fil1" d="M867.22 927.45l-128.83 0c-70.82,0 -128.82,-58 -128.82,-128.83 0,-70.82 58,-128.82 128.82,-128.82l482.41 0 0 65.48 -482.41 0c-34.88,0 -63.34,28.47 -63.34,63.35 0,34.88 28.47,63.36 63.34,63.36l128.83 0 0 65.48z"/>
   <polygon class="fil1" points="1149.88,927.45 1149.88,861.98 1220.18,861.98 1220.18,927.45 "/>
   <polygon class="fil1" points="923.02,927.45 923.02,861.98 1090.85,861.98 1090.85,927.45 "/>
   <path class="fil1" d="M1210.34 1298.24l-471.96 0c-274.76,0 -499.62,-224.85 -499.62,-499.62 0,-274.76 224.86,-499.61 499.62,-499.61l169.3 0 0 65.48 -169.3 0c-238.81,0 -434.14,195.33 -434.14,434.14 0,238.81 195.34,434.14 434.14,434.14l471.96 0 0 65.48z"/>
  </g>
  <path class="fil0" d="M2246.3 761.63l47.63 35.28c-21.76,41.31 -51.75,73.2 -89.67,95.41 -37.78,22.19 -80.85,33.36 -129.22,33.36 -71.14,0 -129.95,-23.52 -176.4,-70.41 -46.3,-46.9 -69.53,-106.43 -69.53,-178.6 0,-72.33 23.22,-132.01 69.67,-178.9 46.6,-46.89 105.25,-70.41 176.1,-70.41 43.95,0 84.09,9.56 120.25,28.81 36.16,19.26 65.56,46.75 88.2,82.32l-49.54 35.28c-14.84,-28.37 -36.46,-50.72 -64.53,-66.74 -28.08,-16.02 -59.53,-24.11 -94.23,-24.11 -53.36,0 -97.6,18.37 -132.59,54.98 -34.99,36.6 -52.48,82.91 -52.48,138.76 0,56.01 17.49,102.31 52.48,138.76 34.99,36.46 79.23,54.68 132.59,54.68 37.34,0 70.41,-9.26 99.37,-27.63 28.96,-18.38 52.92,-45.28 71.88,-80.85zm361.62 108.48c53.36,0 97.61,-18.23 132.75,-54.68 34.99,-36.46 52.48,-82.76 52.48,-138.76 0,-56.15 -17.49,-102.61 -52.33,-139.07 -34.84,-36.46 -79.23,-54.68 -132.89,-54.68 -53.36,0 -97.6,18.37 -132.74,54.98 -34.99,36.6 -52.48,82.91 -52.48,138.76 0,56.01 17.49,102.31 52.48,138.76 35.13,36.46 79.38,54.68 132.74,54.68zm-0.15 55.57c-71.29,0 -130.09,-23.52 -176.4,-70.41 -46.3,-46.9 -69.53,-106.43 -69.53,-178.6 0,-72.33 23.22,-132.01 69.82,-178.9 46.45,-46.89 105.11,-70.41 176.1,-70.41 71.15,0 130.1,23.53 176.99,70.71 46.75,47.03 70.12,106.58 70.12,178.6 0,72.17 -23.37,131.71 -69.97,178.6 -46.6,46.9 -105.69,70.41 -177.14,70.41zm351.04 -12.35l0 -475.4 31.01 0 308.56 355.3 0 -355.3 59.09 0 0 475.4 -30.13 0 -309.43 -355.3 0 355.3 -59.1 0zm623.43 0l0 -420.72 -200.21 0 0 -54.68 459.52 0 0 54.68 -200.21 0 0 420.72 -59.1 0zm318.54 -183.45l209.33 0 -105.11 -210.51 -104.22 210.51zm-153.32 183.45l232.99 -475.4 49.1 0 235.64 475.4 -64.24 0 -64.53 -127.89 -262.69 0 -62.92 127.89 -63.36 0zm969.16 -151.7l47.63 35.28c-21.76,41.31 -51.75,73.2 -89.67,95.41 -37.78,22.19 -80.85,33.36 -129.22,33.36 -71.14,0 -129.95,-23.52 -176.4,-70.41 -46.3,-46.9 -69.53,-106.43 -69.53,-178.6 0,-72.33 23.22,-132.01 69.67,-178.9 46.6,-46.89 105.25,-70.41 176.1,-70.41 43.95,0 84.09,9.56 120.25,28.81 36.16,19.26 65.56,46.75 88.2,82.32l-49.54 35.28c-14.84,-28.37 -36.46,-50.72 -64.53,-66.74 -28.08,-16.02 -59.53,-24.11 -94.23,-24.11 -53.36,0 -97.6,18.37 -132.59,54.98 -34.99,36.6 -52.48,82.91 -52.48,138.76 0,56.01 17.49,102.31 52.48,138.76 34.99,36.46 79.23,54.68 132.59,54.68 37.34,0 70.41,-9.26 99.37,-27.63 28.96,-18.38 52.92,-45.28 71.88,-80.85zm236.38 151.7l0 -420.72 -200.21 0 0 -54.68 459.52 0 0 54.68 -200.21 0 0 420.72 -59.1 0z"/>
 </g>
</svg>
