<?xml version="1.0" encoding="UTF-8"?>
<!DOCTYPE svg PUBLIC "-//W3C//DTD SVG 1.1//EN" "http://www.w3.org/Graphics/SVG/1.1/DTD/svg11.dtd">
<!-- Creator: CorelDRAW 2018 (64-Bit Evaluation Version) -->
<svg xmlns="http://www.w3.org/2000/svg" xml:space="preserve" width="15.9695mm" height="15.9695mm" version="1.1" style="shape-rendering:geometricPrecision; text-rendering:geometricPrecision; image-rendering:optimizeQuality; fill-rule:evenodd; clip-rule:evenodd"
viewBox="0 0 360.68 360.68"
 xmlns:xlink="http://www.w3.org/1999/xlink">
 <defs>
  <style type="text/css">
   <![CDATA[
    .fil0 {fill:#727376;fill-rule:nonzero}
   ]]>
  </style>
 </defs>
 <g id="Layer_x0020_1">
  <metadata id="CorelCorpID_0Corel-Layer"/>
  <path class="fil0" d="M180.34 0c49.8,0 94.89,20.19 127.52,52.82 32.63,32.63 52.82,77.72 52.82,127.52 0,49.8 -20.19,94.89 -52.82,127.52 -32.63,32.63 -77.72,52.82 -127.52,52.82 -49.8,0 -94.89,-20.19 -127.52,-52.82 -32.63,-32.63 -52.82,-77.72 -52.82,-127.52 0,-49.8 20.19,-94.89 52.82,-127.52 32.63,-32.63 77.72,-52.82 127.52,-52.82zm66.1 246.05l-83.19 0c-38.2,0 -69.47,-31.27 -69.47,-69.47 0,-38.21 31.27,-69.47 69.47,-69.47l79.07 0 0 14.48 -79.07 0c-30.26,0 -55,24.74 -55,55 0,30.26 24.74,55 55,55l83.19 0 0 14.48zm-54.7 -40.99l-28.48 0c-15.66,0 -28.48,-12.82 -28.48,-28.48 0,-15.66 12.82,-28.48 28.48,-28.48l106.66 0 0 14.48 -106.66 0c-7.71,0 -14.01,6.3 -14.01,14.01 0,7.71 6.29,14.01 14.01,14.01l28.48 0 0 14.48zm62.5 0l0 -14.48 15.54 0 0 14.48 -15.54 0zm-50.16 0l0 -14.48 37.11 0 0 14.48 -37.11 0zm63.53 81.98l-104.34 0c-60.75,0 -110.47,-49.71 -110.47,-110.46 0,-60.75 49.72,-110.46 110.47,-110.46l37.43 0 0 14.48 -37.43 0c-52.8,0 -95.99,43.19 -95.99,95.99 0,52.8 43.19,95.99 95.99,95.99l104.34 0 0 14.48zm33.55 -227.5c-30.91,-30.92 -73.63,-50.04 -120.81,-50.04 -47.18,0 -89.89,19.12 -120.81,50.04 -30.92,30.91 -50.04,73.63 -50.04,120.81 0,47.18 19.13,89.89 50.04,120.81 30.91,30.92 73.63,50.04 120.81,50.04 47.18,0 89.89,-19.13 120.81,-50.04 30.92,-30.91 50.04,-73.63 50.04,-120.81 0,-47.18 -19.12,-89.89 -50.04,-120.81z"/>
 </g>
</svg>
