<?xml version="1.0" encoding="UTF-8"?>
<!DOCTYPE svg PUBLIC "-//W3C//DTD SVG 1.1//EN" "http://www.w3.org/Graphics/SVG/1.1/DTD/svg11.dtd">
<!-- Creator: CorelDRAW 2018 (64-Bit Evaluation Version) -->
<svg xmlns="http://www.w3.org/2000/svg" xml:space="preserve" width="50.0081mm" height="15.9695mm" version="1.1" style="shape-rendering:geometricPrecision; text-rendering:geometricPrecision; image-rendering:optimizeQuality; fill-rule:evenodd; clip-rule:evenodd"
viewBox="0 0 6559.36 2094.66"
 xmlns:xlink="http://www.w3.org/1999/xlink">
 <defs>
  <style type="text/css">
   <![CDATA[
    .fil0 {fill:#727376;fill-rule:nonzero}
   ]]>
  </style>
 </defs>
 <g id="Layer_x0020_1">
  <metadata id="CorelCorpID_0Corel-Layer"/>
  <path class="fil0" d="M1047.33 0c289.19,0 551.05,117.24 740.56,306.76 189.52,189.51 306.76,451.37 306.76,740.56 0,289.19 -117.24,551.07 -306.76,740.58 -189.52,189.52 -451.37,306.76 -740.56,306.76 -289.21,0 -551.05,-117.24 -740.58,-306.76 -189.52,-189.51 -306.76,-451.38 -306.76,-740.58 0,-289.19 117.24,-551.05 306.76,-740.56 189.51,-189.52 451.37,-306.76 740.58,-306.76zm383.88 1428.92l-483.11 0c-221.87,0 -403.47,-181.6 -403.47,-403.47 0,-221.88 181.59,-403.47 403.47,-403.47l459.21 0 0 84.06 -459.21 0c-175.71,0 -319.4,143.69 -319.4,319.4 0,175.71 143.69,319.39 319.4,319.39l483.11 0 0 84.08zm-317.7 -238.05l-165.41 0c-90.95,0 -165.43,-74.46 -165.43,-165.41 0,-90.95 74.48,-165.41 165.43,-165.41l619.42 0 0 84.06 -619.42 0c-44.78,0 -81.34,36.57 -81.34,81.35 0,44.78 36.56,81.35 81.34,81.35l165.41 0 0 84.06zm362.95 0l0 -84.06 90.27 0 0 84.06 -90.27 0zm-291.31 0l0 -84.06 215.52 0 0 84.06 -215.52 0zm368.93 476.11l-605.99 0c-352.81,0 -641.53,-288.71 -641.53,-641.52 0,-352.81 288.72,-641.52 641.53,-641.52l217.38 0 0 84.08 -217.38 0c-306.64,0 -557.46,250.8 -557.46,557.44 0,306.64 250.82,557.44 557.46,557.44l605.99 0 0 84.08zm194.82 -1321.24c-179.54,-179.55 -427.6,-290.61 -701.58,-290.61 -273.99,0 -522.05,111.06 -701.59,290.61 -179.55,179.54 -290.62,427.6 -290.62,701.58 0,273.98 111.07,522.05 290.62,701.59 179.54,179.55 427.6,290.62 701.59,290.62 273.98,0 522.04,-111.07 701.58,-290.62 179.55,-179.54 290.61,-427.61 290.61,-701.59 0,-273.98 -111.06,-522.04 -290.61,-701.58z"/>
  <path class="fil0" d="M2415.96 775.41c0,-76.26 16.66,-144.56 49.97,-204.91 33.32,-60.34 78.84,-107.35 136.6,-141.03 57.75,-33.68 122.15,-50.54 193.23,-50.54 86.62,0 160.85,20.55 222.67,61.63 61.82,41.09 106.8,99.03 134.93,173.81l-91.07 0c-22.21,-52.57 -56.07,-93.65 -101.61,-123.27 -45.53,-29.62 -100.5,-44.43 -164.92,-44.43 -57,0 -108.28,13.33 -153.81,39.98 -45.54,26.65 -81.26,64.97 -107.18,114.94 -25.91,49.97 -38.86,107.91 -38.86,173.81 0,65.88 12.96,123.64 38.86,173.24 25.92,49.59 61.63,87.72 107.18,114.38 45.53,26.65 96.8,39.98 153.81,39.98 64.42,0 119.39,-14.61 164.92,-43.86 45.54,-29.25 79.41,-69.78 101.61,-121.6l91.07 0c-28.14,74.03 -73.3,131.42 -135.48,172.13 -62.2,40.73 -136.23,61.08 -222.12,61.08 -71.08,0 -135.48,-16.84 -193.23,-50.53 -57.75,-33.7 -103.28,-80.52 -136.6,-140.49 -33.32,-59.97 -49.97,-128.08 -49.97,-204.33zm1114.24 397.56c-57,0 -108.28,-12.76 -153.82,-38.31 -45.53,-25.54 -81.44,-61.82 -107.71,-108.83 -26.29,-47.01 -39.43,-101.98 -39.43,-164.92 0,-62.93 13.33,-117.91 39.98,-164.92 26.65,-47.01 62.93,-83.29 108.83,-108.84 45.91,-25.54 97.36,-38.31 154.37,-38.31 57,0 108.64,12.78 154.92,38.31 46.28,25.55 82.56,61.83 108.84,108.84 26.27,47.01 39.42,101.98 39.42,164.92 0,62.19 -13.33,116.97 -39.98,164.36 -26.65,47.38 -63.3,83.84 -109.94,109.38 -46.64,25.55 -98.47,38.31 -155.47,38.31zm0 -67.73c39.98,0 76.99,-9.08 111.05,-27.22 34.06,-18.14 61.63,-45.53 82.74,-82.18 21.1,-36.65 31.65,-81.62 31.65,-134.93 0,-53.31 -10.36,-98.28 -31.1,-134.93 -20.72,-36.65 -48.11,-64.05 -82.18,-82.18 -34.05,-18.14 -71.08,-27.22 -111.06,-27.22 -39.98,0 -76.99,9.08 -111.05,27.22 -34.06,18.13 -61.27,45.53 -81.62,82.18 -20.37,36.65 -30.55,81.62 -30.55,134.93 0,53.31 10.18,98.28 30.55,134.93 20.36,36.65 47.38,64.04 81.06,82.18 33.7,18.14 70.53,27.22 110.51,27.22zm688.9 -558.61c72.56,0 131.78,22.4 177.69,67.2 45.89,44.78 68.85,109.75 68.85,194.9l0 355.37 -76.63 0 0 -346.49c0,-65.9 -16.47,-116.24 -49.42,-151.04 -32.94,-34.8 -77.91,-52.19 -134.93,-52.19 -58.49,0 -105.13,18.51 -139.93,55.52 -34.8,37.02 -52.19,91.44 -52.19,163.25l0 330.95 -77.74 0 0 -606.35 77.74 0 0 103.28c19.26,-37.02 47.01,-65.33 83.29,-84.96 36.28,-19.62 77.37,-29.43 123.27,-29.43zm476.79 76.63l0 376.47c0,37.03 7.03,62.57 21.1,76.63 14.06,14.07 38.86,21.1 74.4,21.1l71.08 0 0 66.63 -83.29 0c-54.79,0 -95.5,-12.78 -122.15,-38.31 -26.65,-25.54 -39.98,-67.56 -39.98,-126.05l0 -376.47 -84.41 0 0 -65.52 84.41 0 0 -152.15 78.84 0 0 152.15 166.58 0 0 65.52 -166.58 0zm215.81 236.54c0,-62.19 12.4,-116.79 37.2,-163.8 24.8,-47.01 59.23,-83.29 103.28,-108.84 44.06,-25.54 93.85,-38.31 149.37,-38.31 57.75,0 107.54,13.33 149.37,39.98 41.83,26.67 72,60.72 90.5,102.18l0 -133.26 77.74 0 0 606.35 -77.74 0 0 -134.38c-19.24,41.46 -49.79,75.71 -91.62,102.73 -41.83,27.02 -91.62,40.53 -149.37,40.53 -54.77,0 -104.2,-12.95 -148.26,-38.86 -44.05,-25.92 -78.48,-62.57 -103.28,-109.94 -24.8,-47.39 -37.2,-102.17 -37.2,-164.36zm529.73 1.11c0,-48.86 -9.99,-91.8 -29.98,-128.82 -19.99,-37.03 -47.19,-65.53 -81.62,-85.52 -34.43,-19.99 -72.36,-29.98 -113.83,-29.98 -42.94,0 -81.44,9.63 -115.5,28.88 -34.05,19.24 -60.89,47.19 -80.51,83.84 -19.62,36.65 -29.43,80.14 -29.43,130.48 0,49.61 9.81,93.1 29.43,130.5 19.62,37.38 46.46,65.88 80.51,85.51 34.06,19.62 72.56,29.43 115.5,29.43 41.46,0 79.39,-9.99 113.83,-29.98 34.43,-19.99 61.63,-48.49 81.62,-85.52 19.99,-37.02 29.98,-79.96 29.98,-128.82zm176.94 0c0,-62.93 12.59,-117.91 37.76,-164.92 25.17,-47.01 59.97,-83.29 104.38,-108.84 44.43,-25.54 95.15,-38.31 152.15,-38.31 74.78,0 136.41,18.52 184.9,55.54 48.49,37.02 79.78,87.36 93.84,151.04l-83.29 0c-10.36,-43.69 -32.77,-77.93 -67.18,-102.73 -34.43,-24.8 -77.19,-37.2 -128.27,-37.2 -40.73,0 -77.37,9.25 -109.94,27.75 -32.58,18.51 -58.3,46.09 -77.19,82.74 -18.87,36.65 -28.32,81.62 -28.32,134.93 0,53.31 9.44,98.47 28.32,135.48 18.89,37.03 44.61,64.78 77.19,83.29 32.57,18.51 69.22,27.77 109.94,27.77 51.08,0 93.84,-12.4 128.27,-37.2 34.42,-24.8 56.82,-59.42 67.18,-103.84l83.29 0c-14.06,62.2 -45.53,112.17 -94.4,149.92 -48.86,37.76 -110.31,56.64 -184.34,56.64 -57,0 -107.73,-12.76 -152.15,-38.31 -44.41,-25.54 -79.21,-61.82 -104.38,-108.83 -25.17,-47.01 -37.76,-101.98 -37.76,-164.92zm774.42 -237.66l0 376.47c0,37.03 7.03,62.57 21.1,76.63 14.06,14.07 38.86,21.1 74.4,21.1l71.08 0 0 66.63 -83.29 0c-54.79,0 -95.5,-12.78 -122.15,-38.31 -26.65,-25.54 -39.98,-67.56 -39.98,-126.05l0 -376.47 -84.41 0 0 -65.52 84.41 0 0 -152.15 78.84 0 0 152.15 166.58 0 0 65.52 -166.58 0z"/>
  <path class="fil0" d="M3383.4 1660c-29.81,0 -54.16,-6.9 -73.03,-20.7 -18.87,-13.8 -29.42,-32.58 -31.64,-56.38l34.26 0c1.59,14.59 8.47,26.4 20.68,35.44 12.21,9.05 28.63,13.56 49.25,13.56 18.07,0 32.27,-4.28 42.58,-12.84 10.31,-8.57 15.46,-19.19 15.46,-31.87 0,-8.89 -2.86,-16.19 -8.57,-21.89 -5.71,-5.71 -12.92,-10.23 -21.64,-13.56 -8.72,-3.33 -20.54,-6.9 -35.45,-10.7 -19.35,-5.08 -35.05,-10.15 -47.1,-15.23 -12.05,-5.06 -22.27,-12.61 -30.68,-22.59 -8.41,-9.99 -12.61,-23.4 -12.61,-40.2 0,-12.7 3.8,-24.42 11.41,-35.22 7.61,-10.78 18.4,-19.35 32.36,-25.68 13.96,-6.35 29.81,-9.52 47.57,-9.52 27.91,0 50.43,7.06 67.55,21.17 17.13,14.11 26.33,33.55 27.6,58.29l-33.3 0c-0.94,-15.23 -6.9,-27.52 -17.84,-36.87 -10.94,-9.37 -25.93,-14.03 -44.96,-14.03 -16.8,0 -30.44,3.96 -40.91,11.88 -10.47,7.94 -15.7,17.77 -15.7,29.5 0,10.15 3.1,18.48 9.27,24.99 6.19,6.49 13.88,11.57 23.07,15.22 9.21,3.65 21.58,7.7 37.12,12.13 18.7,5.08 33.62,9.99 44.71,14.76 11.11,4.75 20.62,11.73 28.55,20.93 7.92,9.19 12.04,21.41 12.37,36.63 0,13.96 -3.82,26.4 -11.42,37.34 -7.61,10.94 -18.23,19.58 -31.87,25.93 -13.64,6.34 -29.34,9.51 -47.1,9.51zm2482.97 -147.01c0,11.42 -0.31,20.15 -0.94,26.17l-215.53 0c0.96,19.66 5.72,36.48 14.28,50.43 8.55,13.96 19.82,24.5 33.78,31.64 13.96,7.14 29.18,10.7 45.67,10.7 21.56,0 39.73,-5.23 54.47,-15.7 14.76,-10.47 24.5,-24.58 29.26,-42.34l35.2 0c-6.35,25.37 -19.9,46.07 -40.67,62.08 -20.78,16.03 -46.87,24.03 -78.27,24.03 -24.42,0 -46.31,-5.47 -65.66,-16.41 -19.35,-10.94 -34.48,-26.48 -45.44,-46.63 -10.94,-20.13 -16.41,-43.69 -16.41,-70.65 0,-26.97 5.39,-50.59 16.17,-70.9 10.78,-20.29 25.85,-35.83 45.2,-46.62 19.35,-10.79 41.4,-16.19 66.13,-16.19 24.74,0 46.38,5.39 64.94,16.19 18.56,10.78 32.83,25.29 42.83,43.52 9.98,18.25 14.98,38.46 14.98,60.66zm-33.78 -0.94c0.31,-19.35 -3.57,-35.85 -11.66,-49.49 -8.08,-13.64 -19.11,-23.94 -33.07,-30.92 -13.96,-6.98 -29.17,-10.47 -45.67,-10.47 -24.74,0 -45.83,7.92 -63.27,23.78 -17.45,15.86 -27.13,38.22 -29.03,67.09l182.7 0zm-464.89 -87.54l0 161.28c0,15.86 3,26.8 9.04,32.83 6.02,6.02 16.64,9.04 31.87,9.04l30.44 0 0 28.54 -35.68 0c-23.48,0 -40.91,-5.47 -52.34,-16.41 -11.42,-10.95 -17.13,-28.95 -17.13,-54l0 -161.28 -36.15 0 0 -28.08 36.15 0 0 -65.18 33.79 0 0 65.18 71.35 0 0 28.08 -71.35 0zm-319.78 18.07c7.29,-16.17 18.47,-28.71 33.54,-37.59 15.07,-8.88 33.54,-13.31 55.43,-13.31l0 34.73 -9.05 0c-24.1,0 -43.44,6.49 -58.04,19.5 -14.59,13 -21.88,34.73 -21.88,65.18l0 145.11 -33.3 0 0 -259.77 33.3 0 0 46.16zm-362.61 217.42c-24.42,0 -46.39,-5.47 -65.9,-16.41 -19.5,-10.94 -34.89,-26.48 -46.14,-46.63 -11.27,-20.13 -16.89,-43.69 -16.89,-70.65 0,-26.97 5.71,-50.51 17.13,-70.66 11.41,-20.13 26.95,-35.68 46.63,-46.62 19.66,-10.95 41.7,-16.42 66.12,-16.42 24.42,0 46.55,5.47 66.37,16.42 19.83,10.94 35.36,26.48 46.63,46.62 11.25,20.15 16.89,43.69 16.89,70.66 0,26.64 -5.72,50.11 -17.13,70.41 -11.42,20.3 -27.13,35.93 -47.1,46.87 -19.99,10.94 -42.18,16.41 -66.61,16.41zm0 -29.01c17.13,0 32.99,-3.9 47.57,-11.66 14.59,-7.78 26.4,-19.5 35.44,-35.2 9.04,-15.7 13.56,-34.97 13.56,-57.8 0,-22.84 -4.45,-42.1 -13.33,-57.8 -8.88,-15.7 -20.61,-27.44 -35.2,-35.2 -14.59,-7.78 -30.44,-11.66 -47.57,-11.66 -17.13,0 -32.99,3.88 -47.57,11.66 -14.6,7.77 -26.25,19.5 -34.97,35.2 -8.72,15.7 -13.09,34.97 -13.09,57.8 0,22.84 4.37,42.1 13.09,57.8 8.72,15.7 20.29,27.43 34.73,35.2 14.43,7.77 30.21,11.66 47.34,11.66zm-539.59 -177.47c8.24,-17.45 21.33,-31.95 39.24,-43.53 17.92,-11.57 39.24,-17.37 64,-17.37 23.47,0 44.64,5.47 63.51,16.42 18.87,10.94 33.62,26.48 44.24,46.62 10.62,20.15 15.94,43.53 15.94,70.17 0,26.65 -5.31,50.12 -15.94,70.42 -10.62,20.29 -25.37,35.99 -44.24,47.1 -18.87,11.1 -40.04,16.64 -63.51,16.64 -24.42,0 -45.69,-5.78 -63.76,-17.37 -18.07,-11.57 -31.24,-26.09 -39.48,-43.53l0 179.84 -32.83 0 0 -382.52 32.83 0 0 57.1zm193.16 72.31c0,-21.56 -4.2,-40.2 -12.61,-55.89 -8.41,-15.7 -19.91,-27.68 -34.5,-35.93 -14.59,-8.25 -31.09,-12.37 -49.48,-12.37 -17.76,0 -34.02,4.28 -48.77,12.84 -14.76,8.57 -26.4,20.78 -34.97,36.63 -8.57,15.86 -12.84,34.26 -12.84,55.19 0,20.93 4.28,39.32 12.84,55.18 8.57,15.86 20.21,28.07 34.97,36.63 14.74,8.57 31.01,12.85 48.77,12.85 18.39,0 34.89,-4.21 49.48,-12.62 14.59,-8.39 26.09,-20.61 34.5,-36.63 8.41,-16.02 12.61,-34.64 12.61,-55.9zm-439.68 -129.41l0 259.77 -33.3 0 0 -45.67c-7.61,16.17 -19.35,28.54 -35.2,37.11 -15.86,8.57 -33.62,12.84 -53.28,12.84 -31.09,0 -56.45,-9.59 -76.13,-28.78 -19.66,-19.19 -29.5,-47.02 -29.5,-83.5l0 -151.77 32.83 0 0 147.97c0,28.23 7.06,49.8 21.17,64.7 14.11,14.91 33.38,22.36 57.8,22.36 25.07,0 45.04,-7.94 59.96,-23.79 14.9,-15.86 22.35,-39.17 22.35,-69.94l0 -141.31 33.3 0z"/>
 </g>
</svg>
