<?xml version="1.0" encoding="UTF-8"?>
<!DOCTYPE svg PUBLIC "-//W3C//DTD SVG 1.1//EN" "http://www.w3.org/Graphics/SVG/1.1/DTD/svg11.dtd">
<!-- Creator: CorelDRAW 2018 (64-Bit Evaluation Version) -->
<svg xmlns="http://www.w3.org/2000/svg" xml:space="preserve" width="50.0081mm" height="15.9695mm" version="1.1" style="shape-rendering:geometricPrecision; text-rendering:geometricPrecision; image-rendering:optimizeQuality; fill-rule:evenodd; clip-rule:evenodd"
viewBox="0 0 3536.86 1129.46"
 xmlns:xlink="http://www.w3.org/1999/xlink">
 <defs>
  <style type="text/css">
   <![CDATA[
    .fil0 {fill:#727376;fill-rule:nonzero}
   ]]>
  </style>
 </defs>
 <g id="Layer_x0020_1">
  <metadata id="CorelCorpID_0Corel-Layer"/>
  <path class="fil0" d="M564.73 0c155.94,0 297.13,63.21 399.32,165.41 102.19,102.18 165.41,243.38 165.41,399.32 0,155.94 -63.21,297.14 -165.41,399.33 -102.19,102.19 -243.38,165.41 -399.32,165.41 -155.94,0 -297.13,-63.21 -399.33,-165.41 -102.19,-102.18 -165.41,-243.39 -165.41,-399.33 0,-155.94 63.21,-297.13 165.41,-399.32 102.18,-102.19 243.38,-165.41 399.33,-165.41zm206.99 770.49l-260.5 0c-119.63,0 -217.55,-97.92 -217.55,-217.55 0,-119.64 97.91,-217.55 217.55,-217.55l247.61 0 0 45.33 -247.61 0c-94.74,0 -172.22,77.48 -172.22,172.22 0,94.74 77.48,172.22 172.22,172.22l260.5 0 0 45.34zm-171.3 -128.36l-89.19 0c-49.04,0 -89.2,-40.15 -89.2,-89.19 0,-49.04 40.16,-89.19 89.2,-89.19l334 0 0 45.33 -334 0c-24.15,0 -43.86,19.72 -43.86,43.86 0,24.15 19.71,43.86 43.86,43.86l89.19 0 0 45.33zm195.71 0l0 -45.33 48.67 0 0 45.33 -48.67 0zm-157.07 0l0 -45.33 116.21 0 0 45.33 -116.21 0zm198.93 256.72l-326.75 0c-190.24,0 -345.92,-155.67 -345.92,-345.91 0,-190.24 155.68,-345.91 345.92,-345.91l117.21 0 0 45.34 -117.21 0c-165.34,0 -300.58,135.23 -300.58,300.58 0,165.34 135.24,300.58 300.58,300.58l326.75 0 0 45.34zm105.05 -712.42c-96.81,-96.82 -230.57,-156.7 -378.3,-156.7 -147.74,0 -281.5,59.88 -378.31,156.7 -96.82,96.81 -156.71,230.57 -156.71,378.3 0,147.73 59.89,281.5 156.71,378.31 96.81,96.82 230.57,156.71 378.31,156.71 147.73,0 281.49,-59.89 378.3,-156.71 96.82,-96.81 156.7,-230.57 156.7,-378.31 0,-147.73 -59.88,-281.49 -156.7,-378.3z"/>
  <path class="fil0" d="M1302.71 418.11c0,-41.12 8.98,-77.95 26.95,-110.49 17.96,-32.53 42.51,-57.88 73.65,-76.04 31.14,-18.16 65.87,-27.25 104.19,-27.25 46.71,0 86.73,11.08 120.06,33.23 33.33,22.16 57.58,53.4 72.76,93.72l-49.1 0c-11.97,-28.35 -30.24,-50.5 -54.79,-66.47 -24.55,-15.97 -54.19,-23.95 -88.92,-23.95 -30.74,0 -58.38,7.19 -82.93,21.56 -24.56,14.37 -43.81,35.03 -57.79,61.98 -13.97,26.95 -20.96,58.19 -20.96,93.72 0,35.53 6.99,66.67 20.96,93.41 13.98,26.74 33.23,47.3 57.79,61.67 24.55,14.37 52.2,21.56 82.93,21.56 34.73,0 64.37,-7.88 88.92,-23.65 24.56,-15.77 42.82,-37.63 54.79,-65.57l49.1 0c-15.17,39.92 -39.52,70.86 -73.05,92.81 -33.54,21.96 -73.46,32.94 -119.77,32.94 -38.33,0 -73.05,-9.08 -104.19,-27.24 -31.14,-18.17 -55.69,-43.42 -73.65,-75.75 -17.96,-32.34 -26.95,-69.06 -26.95,-110.18zm183.99 404.18c0,-10.83 2.16,-20.33 6.48,-28.51 4.31,-8.18 10.3,-14.5 17.97,-18.95 7.67,-4.45 16.34,-6.67 26.01,-6.67 10.05,0 18.71,2.32 26,6.96 7.28,4.64 12.53,10.57 15.75,17.79l0 -23.2 13.54 0 0 105.54 -13.54 0 0 -23.39c-3.35,7.21 -8.66,13.18 -15.95,17.88 -7.28,4.7 -15.94,7.06 -26,7.06 -9.53,0 -18.13,-2.26 -25.81,-6.77 -7.67,-4.51 -13.66,-10.89 -17.97,-19.14 -4.32,-8.25 -6.48,-17.78 -6.48,-28.61zm92.21 0.19c0,-8.5 -1.74,-15.98 -5.22,-22.42 -3.48,-6.44 -8.21,-11.41 -14.21,-14.89 -5.99,-3.48 -12.6,-5.22 -19.81,-5.22 -7.48,0 -14.17,1.68 -20.11,5.03 -5.93,3.35 -10.59,8.22 -14.01,14.6 -3.42,6.37 -5.12,13.95 -5.12,22.71 0,8.64 1.7,16.2 5.12,22.72 3.42,6.51 8.08,11.46 14.01,14.88 5.93,3.42 12.63,5.12 20.11,5.12 7.21,0 13.82,-1.74 19.81,-5.22 6,-3.48 10.73,-8.44 14.21,-14.88 3.48,-6.44 5.22,-13.92 5.22,-22.43zm73.33 54.32c-12.12,0 -22,-2.81 -29.67,-8.41 -7.67,-5.61 -11.96,-13.25 -12.86,-22.91l13.92 0c0.64,5.93 3.44,10.73 8.41,14.4 4.96,3.67 11.63,5.51 20.01,5.51 7.34,0 13.11,-1.74 17.3,-5.22 4.19,-3.48 6.28,-7.79 6.28,-12.95 0,-3.61 -1.16,-6.57 -3.48,-8.89 -2.32,-2.32 -5.25,-4.16 -8.79,-5.51 -3.55,-1.36 -8.35,-2.81 -14.41,-4.35 -7.86,-2.07 -14.24,-4.12 -19.14,-6.19 -4.89,-2.07 -9.05,-5.12 -12.46,-9.18 -3.42,-4.06 -5.13,-9.51 -5.13,-16.34 0,-5.16 1.55,-9.92 4.64,-14.3 3.1,-4.39 7.48,-7.86 13.15,-10.44 5.67,-2.58 12.12,-3.87 19.33,-3.87 11.34,0 20.49,2.86 27.45,8.6 6.96,5.74 10.7,13.63 11.21,23.69l-13.53 0c-0.39,-6.19 -2.8,-11.18 -7.25,-14.99 -4.44,-3.8 -10.53,-5.7 -18.27,-5.7 -6.83,0 -12.37,1.61 -16.62,4.83 -4.26,3.23 -6.38,7.22 -6.38,11.99 0,4.12 1.25,7.5 3.77,10.15 2.51,2.64 5.64,4.7 9.37,6.18 3.74,1.49 8.76,3.13 15.08,4.93 7.6,2.07 13.66,4.06 18.18,6 4.51,1.93 8.37,4.77 11.59,8.5 3.23,3.74 4.9,8.7 5.03,14.89 0,5.67 -1.55,10.73 -4.64,15.17 -3.09,4.45 -7.41,7.96 -12.95,10.54 -5.54,2.57 -11.92,3.87 -19.14,3.87zm91.11 0c-12.12,0 -22,-2.81 -29.67,-8.41 -7.67,-5.61 -11.96,-13.25 -12.86,-22.91l13.92 0c0.64,5.93 3.44,10.73 8.41,14.4 4.96,3.67 11.63,5.51 20.01,5.51 7.34,0 13.11,-1.74 17.3,-5.22 4.19,-3.48 6.28,-7.79 6.28,-12.95 0,-3.61 -1.16,-6.57 -3.48,-8.89 -2.32,-2.32 -5.25,-4.16 -8.79,-5.51 -3.55,-1.36 -8.35,-2.81 -14.41,-4.35 -7.86,-2.07 -14.24,-4.12 -19.14,-6.19 -4.89,-2.07 -9.05,-5.12 -12.46,-9.18 -3.42,-4.06 -5.13,-9.51 -5.13,-16.34 0,-5.16 1.55,-9.92 4.64,-14.3 3.1,-4.39 7.48,-7.86 13.15,-10.44 5.67,-2.58 12.12,-3.87 19.33,-3.87 11.34,0 20.49,2.86 27.45,8.6 6.96,5.74 10.7,13.63 11.21,23.69l-13.53 0c-0.39,-6.19 -2.8,-11.18 -7.25,-14.99 -4.44,-3.8 -10.53,-5.7 -18.27,-5.7 -6.83,0 -12.37,1.61 -16.62,4.83 -4.26,3.23 -6.38,7.22 -6.38,11.99 0,4.12 1.25,7.5 3.77,10.15 2.51,2.64 5.64,4.7 9.37,6.18 3.74,1.49 8.76,3.13 15.08,4.93 7.6,2.07 13.66,4.06 18.18,6 4.51,1.93 8.37,4.77 11.59,8.5 3.23,3.74 4.9,8.7 5.03,14.89 0,5.67 -1.55,10.73 -4.64,15.17 -3.09,4.45 -7.41,7.96 -12.95,10.54 -5.54,2.57 -11.92,3.87 -19.14,3.87zm150.26 -59.74c0,4.64 -0.13,8.18 -0.39,10.63l-87.57 0c0.38,7.99 2.31,14.82 5.79,20.5 3.48,5.67 8.06,9.95 13.73,12.85 5.67,2.9 11.85,4.35 18.56,4.35 8.76,0 16.14,-2.13 22.13,-6.38 6,-4.25 9.96,-9.99 11.89,-17.2l14.31 0c-2.58,10.3 -8.08,18.71 -16.53,25.22 -8.44,6.51 -19.04,9.77 -31.8,9.77 -9.92,0 -18.81,-2.23 -26.68,-6.67 -7.86,-4.45 -14.01,-10.76 -18.46,-18.95 -4.45,-8.18 -6.67,-17.75 -6.67,-28.71 0,-10.95 2.19,-20.55 6.57,-28.8 4.39,-8.25 10.5,-14.56 18.37,-18.95 7.86,-4.38 16.82,-6.57 26.87,-6.57 10.05,0 18.85,2.19 26.39,6.57 7.54,4.39 13.34,10.28 17.4,17.69 4.06,7.41 6.09,15.63 6.09,24.65zm-13.73 -0.39c0.13,-7.86 -1.45,-14.56 -4.74,-20.1 -3.28,-5.54 -7.76,-9.73 -13.43,-12.57 -5.67,-2.84 -11.86,-4.25 -18.56,-4.25 -10.05,0 -18.62,3.23 -25.71,9.67 -7.09,6.44 -11.02,15.52 -11.79,27.25l74.23 0zm67.34 60.12c-12.12,0 -22,-2.81 -29.67,-8.41 -7.67,-5.61 -11.96,-13.25 -12.86,-22.91l13.92 0c0.64,5.93 3.44,10.73 8.41,14.4 4.96,3.67 11.63,5.51 20.01,5.51 7.34,0 13.11,-1.74 17.3,-5.22 4.19,-3.48 6.28,-7.79 6.28,-12.95 0,-3.61 -1.16,-6.57 -3.48,-8.89 -2.32,-2.32 -5.25,-4.16 -8.79,-5.51 -3.55,-1.36 -8.35,-2.81 -14.41,-4.35 -7.86,-2.07 -14.24,-4.12 -19.14,-6.19 -4.89,-2.07 -9.05,-5.12 -12.46,-9.18 -3.42,-4.06 -5.13,-9.51 -5.13,-16.34 0,-5.16 1.55,-9.92 4.64,-14.3 3.1,-4.39 7.48,-7.86 13.15,-10.44 5.67,-2.58 12.12,-3.87 19.33,-3.87 11.34,0 20.49,2.86 27.45,8.6 6.96,5.74 10.7,13.63 11.21,23.69l-13.53 0c-0.39,-6.19 -2.8,-11.18 -7.25,-14.99 -4.44,-3.8 -10.53,-5.7 -18.27,-5.7 -6.83,0 -12.37,1.61 -16.62,4.83 -4.26,3.23 -6.38,7.22 -6.38,11.99 0,4.12 1.25,7.5 3.77,10.15 2.51,2.64 5.64,4.7 9.37,6.18 3.74,1.49 8.76,3.13 15.08,4.93 7.6,2.07 13.66,4.06 18.18,6 4.51,1.93 8.37,4.77 11.59,8.5 3.23,3.74 4.9,8.7 5.03,14.89 0,5.67 -1.55,10.73 -4.64,15.17 -3.09,4.45 -7.41,7.96 -12.95,10.54 -5.54,2.57 -11.92,3.87 -19.14,3.87zm91.11 0c-12.12,0 -22,-2.81 -29.67,-8.41 -7.67,-5.61 -11.96,-13.25 -12.86,-22.91l13.92 0c0.64,5.93 3.44,10.73 8.41,14.4 4.96,3.67 11.63,5.51 20.01,5.51 7.34,0 13.11,-1.74 17.3,-5.22 4.19,-3.48 6.28,-7.79 6.28,-12.95 0,-3.61 -1.16,-6.57 -3.48,-8.89 -2.32,-2.32 -5.25,-4.16 -8.79,-5.51 -3.55,-1.36 -8.35,-2.81 -14.41,-4.35 -7.86,-2.07 -14.24,-4.12 -19.14,-6.19 -4.89,-2.07 -9.05,-5.12 -12.46,-9.18 -3.42,-4.06 -5.13,-9.51 -5.13,-16.34 0,-5.16 1.55,-9.92 4.64,-14.3 3.1,-4.39 7.48,-7.86 13.15,-10.44 5.67,-2.58 12.12,-3.87 19.33,-3.87 11.34,0 20.49,2.86 27.45,8.6 6.96,5.74 10.7,13.63 11.21,23.69l-13.53 0c-0.39,-6.19 -2.8,-11.18 -7.25,-14.99 -4.44,-3.8 -10.53,-5.7 -18.27,-5.7 -6.83,0 -12.37,1.61 -16.62,4.83 -4.26,3.23 -6.38,7.22 -6.38,11.99 0,4.12 1.25,7.5 3.77,10.15 2.51,2.64 5.64,4.7 9.37,6.18 3.74,1.49 8.76,3.13 15.08,4.93 7.6,2.07 13.66,4.06 18.18,6 4.51,1.93 8.37,4.77 11.59,8.5 3.23,3.74 4.9,8.7 5.03,14.89 0,5.67 -1.55,10.73 -4.64,15.17 -3.09,4.45 -7.41,7.96 -12.95,10.54 -5.54,2.57 -11.92,3.87 -19.14,3.87zm100.97 0c-9.92,0 -18.85,-2.23 -26.78,-6.67 -7.92,-4.45 -14.17,-10.76 -18.75,-18.95 -4.58,-8.18 -6.86,-17.75 -6.86,-28.71 0,-10.95 2.32,-20.52 6.96,-28.7 4.64,-8.18 10.96,-14.5 18.94,-18.95 7.99,-4.45 16.95,-6.67 26.88,-6.67 9.92,0 18.91,2.22 26.96,6.67 8.06,4.45 14.37,10.76 18.95,18.95 4.58,8.18 6.86,17.75 6.86,28.7 0,10.83 -2.32,20.36 -6.96,28.62 -4.64,8.25 -11.02,14.59 -19.14,19.04 -8.12,4.44 -17.14,6.67 -27.06,6.67zm0 -11.8c6.96,0 13.4,-1.58 19.33,-4.73 5.93,-3.16 10.73,-7.93 14.4,-14.31 3.68,-6.38 5.51,-14.21 5.51,-23.49 0,-9.28 -1.8,-17.11 -5.41,-23.48 -3.61,-6.38 -8.37,-11.15 -14.31,-14.31 -5.93,-3.15 -12.37,-4.74 -19.33,-4.74 -6.96,0 -13.4,1.58 -19.33,4.74 -5.93,3.15 -10.67,7.93 -14.21,14.31 -3.54,6.37 -5.31,14.2 -5.31,23.48 0,9.28 1.77,17.11 5.31,23.49 3.54,6.38 8.25,11.15 14.11,14.31 5.86,3.15 12.28,4.73 19.24,4.73zm83.96 -76.55c2.96,-6.57 7.5,-11.66 13.63,-15.27 6.12,-3.61 13.63,-5.42 22.52,-5.42l0 14.12 -3.67 0c-9.8,0 -17.66,2.64 -23.59,7.92 -5.93,5.28 -8.89,14.11 -8.89,26.49l0 58.96 -13.53 0 0 -105.54 13.53 0 0 18.75zm55.73 -38.66c-2.7,0 -5.02,-0.97 -6.96,-2.9 -1.93,-1.94 -2.9,-4.32 -2.9,-7.16 0,-2.84 0.97,-5.18 2.9,-7.05 1.94,-1.87 4.26,-2.81 6.96,-2.81 2.71,0 5.03,0.93 6.96,2.81 1.93,1.87 2.9,4.22 2.9,7.05 0,2.84 -0.97,5.22 -2.9,7.16 -1.93,1.93 -4.25,2.9 -6.96,2.9zm6.77 19.91l0 105.54 -13.53 0 0 -105.54 13.53 0zm17.07 52.58c0,-10.83 2.16,-20.33 6.48,-28.51 4.31,-8.18 10.3,-14.5 17.97,-18.95 7.67,-4.45 16.34,-6.67 26.01,-6.67 10.05,0 18.71,2.32 26,6.96 7.28,4.64 12.53,10.57 15.75,17.79l0 -23.2 13.54 0 0 105.54 -13.54 0 0 -23.39c-3.35,7.21 -8.66,13.18 -15.95,17.88 -7.28,4.7 -15.94,7.06 -26,7.06 -9.53,0 -18.13,-2.26 -25.81,-6.77 -7.67,-4.51 -13.66,-10.89 -17.97,-19.14 -4.32,-8.25 -6.48,-17.78 -6.48,-28.61zm92.21 0.19c0,-8.5 -1.74,-15.98 -5.22,-22.42 -3.48,-6.44 -8.21,-11.41 -14.21,-14.89 -5.99,-3.48 -12.6,-5.22 -19.81,-5.22 -7.48,0 -14.17,1.68 -20.11,5.03 -5.93,3.35 -10.59,8.22 -14.01,14.6 -3.42,6.37 -5.12,13.95 -5.12,22.71 0,8.64 1.7,16.2 5.12,22.72 3.42,6.51 8.08,11.46 14.01,14.88 5.93,3.42 12.63,5.12 20.11,5.12 7.21,0 13.82,-1.74 19.81,-5.22 6,-3.48 10.73,-8.44 14.21,-14.88 3.48,-6.44 5.22,-13.92 5.22,-22.43zm185.45 -5.41c0,4.64 -0.13,8.18 -0.39,10.63l-87.57 0c0.38,7.99 2.31,14.82 5.79,20.5 3.48,5.67 8.06,9.95 13.73,12.85 5.67,2.9 11.85,4.35 18.56,4.35 8.76,0 16.14,-2.13 22.13,-6.38 6,-4.25 9.96,-9.99 11.89,-17.2l14.31 0c-2.58,10.3 -8.08,18.71 -16.53,25.22 -8.44,6.51 -19.04,9.77 -31.8,9.77 -9.92,0 -18.81,-2.23 -26.68,-6.67 -7.86,-4.45 -14.01,-10.76 -18.46,-18.95 -4.45,-8.18 -6.67,-17.75 -6.67,-28.71 0,-10.95 2.19,-20.55 6.57,-28.8 4.39,-8.25 10.5,-14.56 18.37,-18.95 7.86,-4.38 16.82,-6.57 26.87,-6.57 10.05,0 18.85,2.19 26.39,6.57 7.54,4.39 13.34,10.28 17.4,17.69 4.06,7.41 6.09,15.63 6.09,24.65zm-13.73 -0.39c0.13,-7.86 -1.45,-14.56 -4.74,-20.1 -3.28,-5.54 -7.76,-9.73 -13.43,-12.57 -5.67,-2.84 -11.86,-4.25 -18.56,-4.25 -10.05,0 -18.62,3.23 -25.71,9.67 -7.09,6.44 -11.02,15.52 -11.79,27.25l74.23 0zm120.3 60.12c-12.12,0 -22,-2.81 -29.67,-8.41 -7.67,-5.61 -11.96,-13.25 -12.86,-22.91l13.92 0c0.64,5.93 3.44,10.73 8.41,14.4 4.96,3.67 11.63,5.51 20.01,5.51 7.34,0 13.11,-1.74 17.3,-5.22 4.19,-3.48 6.28,-7.79 6.28,-12.95 0,-3.61 -1.16,-6.57 -3.48,-8.89 -2.32,-2.32 -5.25,-4.16 -8.79,-5.51 -3.55,-1.36 -8.35,-2.81 -14.41,-4.35 -7.86,-2.07 -14.24,-4.12 -19.14,-6.19 -4.89,-2.07 -9.05,-5.12 -12.46,-9.18 -3.42,-4.06 -5.13,-9.51 -5.13,-16.34 0,-5.16 1.55,-9.92 4.64,-14.3 3.1,-4.39 7.48,-7.86 13.15,-10.44 5.67,-2.58 12.12,-3.87 19.33,-3.87 11.34,0 20.49,2.86 27.45,8.6 6.96,5.74 10.7,13.63 11.21,23.69l-13.53 0c-0.39,-6.19 -2.8,-11.18 -7.25,-14.99 -4.44,-3.8 -10.53,-5.7 -18.27,-5.7 -6.83,0 -12.37,1.61 -16.62,4.83 -4.26,3.23 -6.38,7.22 -6.38,11.99 0,4.12 1.25,7.5 3.77,10.15 2.51,2.64 5.64,4.7 9.37,6.18 3.74,1.49 8.76,3.13 15.08,4.93 7.6,2.07 13.66,4.06 18.18,6 4.51,1.93 8.37,4.77 11.59,8.5 3.23,3.74 4.9,8.7 5.03,14.89 0,5.67 -1.55,10.73 -4.64,15.17 -3.09,4.45 -7.41,7.96 -12.95,10.54 -5.54,2.57 -11.92,3.87 -19.14,3.87zm150.26 -59.74c0,4.64 -0.13,8.18 -0.39,10.63l-87.57 0c0.38,7.99 2.31,14.82 5.79,20.5 3.48,5.67 8.06,9.95 13.73,12.85 5.67,2.9 11.85,4.35 18.56,4.35 8.76,0 16.14,-2.13 22.13,-6.38 6,-4.25 9.96,-9.99 11.89,-17.2l14.31 0c-2.58,10.3 -8.08,18.71 -16.53,25.22 -8.44,6.51 -19.04,9.77 -31.8,9.77 -9.92,0 -18.81,-2.23 -26.68,-6.67 -7.86,-4.45 -14.01,-10.76 -18.46,-18.95 -4.45,-8.18 -6.67,-17.75 -6.67,-28.71 0,-10.95 2.19,-20.55 6.57,-28.8 4.39,-8.25 10.5,-14.56 18.37,-18.95 7.86,-4.38 16.82,-6.57 26.87,-6.57 10.05,0 18.85,2.19 26.39,6.57 7.54,4.39 13.34,10.28 17.4,17.69 4.06,7.41 6.09,15.63 6.09,24.65zm-13.73 -0.39c0.13,-7.86 -1.45,-14.56 -4.74,-20.1 -3.28,-5.54 -7.76,-9.73 -13.43,-12.57 -5.67,-2.84 -11.86,-4.25 -18.56,-4.25 -10.05,0 -18.62,3.23 -25.71,9.67 -7.09,6.44 -11.02,15.52 -11.79,27.25l74.23 0zm44.53 -28.22c2.96,-6.57 7.5,-11.66 13.63,-15.27 6.12,-3.61 13.63,-5.42 22.52,-5.42l0 14.12 -3.67 0c-9.8,0 -17.66,2.64 -23.59,7.92 -5.93,5.28 -8.89,14.11 -8.89,26.49l0 58.96 -13.53 0 0 -105.54 13.53 0 0 18.75zm86.47 73.65l35.57 -92.4 14.31 0 -42.34 105.54 -15.27 0 -42.34 -105.54 14.5 0 35.57 92.4zm67.53 -112.31c-2.7,0 -5.02,-0.97 -6.96,-2.9 -1.93,-1.94 -2.9,-4.32 -2.9,-7.16 0,-2.84 0.97,-5.18 2.9,-7.05 1.94,-1.87 4.26,-2.81 6.96,-2.81 2.71,0 5.03,0.93 6.96,2.81 1.93,1.87 2.9,4.22 2.9,7.05 0,2.84 -0.97,5.22 -2.9,7.16 -1.93,1.93 -4.25,2.9 -6.96,2.9zm6.77 19.91l0 105.54 -13.53 0 0 -105.54 13.53 0zm68.3 95.68c8.89,0 16.33,-2.16 22.33,-6.48 5.99,-4.31 9.89,-10.34 11.69,-18.07l14.5 0c-2.32,10.18 -7.31,18.49 -14.98,24.94 -7.67,6.44 -17.36,10.05 -29.09,10.82l0 11.6c7.6,-0.25 13.62,1.2 18.07,4.35 4.45,3.16 6.67,7.7 6.67,13.63 0,5.8 -2.06,10.4 -6.19,13.82 -4.12,3.42 -9.6,5.13 -16.43,5.13l-19.33 0 0 -9.09 16.63 0c4.77,0 8.27,-0.81 10.53,-2.42 2.26,-1.61 3.38,-4.09 3.38,-7.44 0,-6.19 -4.64,-9.28 -13.91,-9.28l-8.9 0 0 -20.3c-9.02,-0.77 -17.01,-3.44 -23.97,-8.02 -6.96,-4.58 -12.41,-10.83 -16.33,-18.75 -3.93,-7.93 -5.9,-17.04 -5.9,-27.36 0,-10.95 2.19,-20.52 6.57,-28.7 4.39,-8.18 10.44,-14.5 18.17,-18.95 7.74,-4.45 16.56,-6.67 26.49,-6.67 13.01,0 23.74,3.23 32.19,9.67 8.44,6.44 13.88,15.21 16.33,26.29l-14.5 0c-1.8,-7.6 -5.7,-13.57 -11.69,-17.88 -6,-4.32 -13.44,-6.48 -22.33,-6.48 -7.09,0 -13.47,1.61 -19.14,4.83 -5.67,3.23 -10.15,8.03 -13.44,14.41 -3.28,6.37 -4.92,14.2 -4.92,23.48 0,9.28 1.64,17.14 4.92,23.59 3.29,6.44 7.77,11.27 13.44,14.5 5.67,3.22 12.05,4.83 19.14,4.83zm112.19 11.41c-9.92,0 -18.85,-2.23 -26.78,-6.67 -7.92,-4.45 -14.17,-10.76 -18.75,-18.95 -4.58,-8.18 -6.86,-17.75 -6.86,-28.71 0,-10.95 2.32,-20.52 6.96,-28.7 4.64,-8.18 10.96,-14.5 18.94,-18.95 7.99,-4.45 16.95,-6.67 26.88,-6.67 9.92,0 18.91,2.22 26.96,6.67 8.06,4.45 14.37,10.76 18.95,18.95 4.58,8.18 6.86,17.75 6.86,28.7 0,10.83 -2.32,20.36 -6.96,28.62 -4.64,8.25 -11.02,14.59 -19.14,19.04 -8.12,4.44 -17.14,6.67 -27.06,6.67zm0 -11.8c6.96,0 13.4,-1.58 19.33,-4.73 5.93,-3.16 10.73,-7.93 14.4,-14.31 3.68,-6.38 5.51,-14.21 5.51,-23.49 0,-9.28 -1.8,-17.11 -5.41,-23.48 -3.61,-6.38 -8.37,-11.15 -14.31,-14.31 -5.93,-3.15 -12.37,-4.74 -19.33,-4.74 -6.96,0 -13.4,1.58 -19.33,4.74 -5.93,3.15 -10.67,7.93 -14.21,14.31 -3.54,6.37 -5.31,14.2 -5.31,23.48 0,9.28 1.77,17.11 5.31,23.49 3.54,6.38 8.25,11.15 14.11,14.31 5.86,3.15 12.28,4.73 19.24,4.73zm106.77 11.8c-12.12,0 -22,-2.81 -29.67,-8.41 -7.67,-5.61 -11.96,-13.25 -12.86,-22.91l13.92 0c0.64,5.93 3.44,10.73 8.41,14.4 4.96,3.67 11.63,5.51 20.01,5.51 7.34,0 13.11,-1.74 17.3,-5.22 4.19,-3.48 6.28,-7.79 6.28,-12.95 0,-3.61 -1.16,-6.57 -3.48,-8.89 -2.32,-2.32 -5.25,-4.16 -8.79,-5.51 -3.55,-1.36 -8.35,-2.81 -14.41,-4.35 -7.86,-2.07 -14.24,-4.12 -19.14,-6.19 -4.89,-2.07 -9.05,-5.12 -12.46,-9.18 -3.42,-4.06 -5.13,-9.51 -5.13,-16.34 0,-5.16 1.55,-9.92 4.64,-14.3 3.1,-4.39 7.48,-7.86 13.15,-10.44 5.67,-2.58 12.12,-3.87 19.33,-3.87 11.34,0 20.49,2.86 27.45,8.6 6.96,5.74 10.7,13.63 11.21,23.69l-13.53 0c-0.39,-6.19 -2.8,-11.18 -7.25,-14.99 -4.44,-3.8 -10.53,-5.7 -18.27,-5.7 -6.83,0 -12.37,1.61 -16.62,4.83 -4.26,3.23 -6.38,7.22 -6.38,11.99 0,4.12 1.25,7.5 3.77,10.15 2.51,2.64 5.64,4.7 9.37,6.18 3.74,1.49 8.76,3.13 15.08,4.93 7.6,2.07 13.66,4.06 18.18,6 4.51,1.93 8.37,4.77 11.59,8.5 3.23,3.74 4.9,8.7 5.03,14.89 0,5.67 -1.55,10.73 -4.64,15.17 -3.09,4.45 -7.41,7.96 -12.95,10.54 -5.54,2.57 -11.92,3.87 -19.14,3.87zm-1412.63 -244.33c-30.74,0 -58.38,-6.88 -82.94,-20.66 -24.55,-13.77 -43.91,-33.33 -58.08,-58.68 -14.17,-25.35 -21.26,-54.99 -21.26,-88.92 0,-33.93 7.19,-63.58 21.56,-88.92 14.37,-25.35 33.93,-44.91 58.68,-58.69 24.75,-13.77 52.5,-20.66 83.24,-20.66 30.74,0 58.58,6.89 83.53,20.66 24.95,13.78 44.51,33.34 58.69,58.69 14.17,25.35 21.25,54.99 21.25,88.92 0,33.53 -7.19,63.07 -21.56,88.63 -14.37,25.55 -34.13,45.21 -59.28,58.98 -25.15,13.78 -53.09,20.66 -83.83,20.66zm0 -36.52c21.56,0 41.52,-4.89 59.88,-14.68 18.37,-9.78 33.23,-24.55 44.61,-44.31 11.38,-19.76 17.07,-44.01 17.07,-72.76 0,-28.74 -5.59,-52.99 -16.77,-72.76 -11.17,-19.76 -25.94,-34.54 -44.31,-44.31 -18.36,-9.78 -38.33,-14.68 -59.88,-14.68 -21.56,0 -41.52,4.89 -59.88,14.68 -18.37,9.77 -33.04,24.55 -44.01,44.31 -10.98,19.76 -16.47,44.01 -16.47,72.76 0,28.74 5.49,52.99 16.47,72.76 10.98,19.76 25.55,34.53 43.71,44.31 18.17,9.78 38.03,14.68 59.59,14.68zm371.46 -301.21c39.13,0 71.06,12.08 95.81,36.23 24.75,24.15 37.12,59.18 37.12,105.09l0 191.62 -41.32 0 0 -186.83c0,-35.53 -8.88,-62.68 -26.65,-81.44 -17.76,-18.76 -42.01,-28.14 -72.76,-28.14 -31.54,0 -56.69,9.98 -75.45,29.94 -18.76,19.96 -28.14,49.3 -28.14,88.03l0 178.45 -41.92 0 0 -326.95 41.92 0 0 55.69c10.38,-19.96 25.35,-35.23 44.91,-45.81 19.56,-10.58 41.72,-15.87 66.47,-15.87zm257.09 41.32l0 203c0,19.97 3.79,33.74 11.38,41.32 7.58,7.59 20.96,11.38 40.12,11.38l38.33 0 0 35.93 -44.91 0c-29.54,0 -51.5,-6.89 -65.87,-20.66 -14.37,-13.77 -21.56,-36.43 -21.56,-67.97l0 -203 -45.51 0 0 -35.33 45.51 0 0 -82.04 42.51 0 0 82.04 89.82 0 0 35.33 -89.82 0zm116.37 127.55c0,-33.53 6.68,-62.97 20.06,-88.32 13.37,-25.35 31.94,-44.91 55.69,-58.69 23.76,-13.77 50.6,-20.66 80.54,-20.66 31.14,0 57.99,7.19 80.54,21.56 22.55,14.38 38.82,32.74 48.8,55.1l0 -71.86 41.92 0 0 326.95 -41.92 0 0 -72.46c-10.38,22.36 -26.85,40.82 -49.4,55.39 -22.55,14.57 -49.4,21.85 -80.54,21.85 -29.54,0 -56.18,-6.98 -79.94,-20.96 -23.75,-13.98 -42.32,-33.74 -55.69,-59.28 -13.37,-25.55 -20.06,-55.09 -20.06,-88.63zm285.63 0.6c0,-26.35 -5.39,-49.5 -16.17,-69.46 -10.78,-19.97 -25.45,-35.33 -44.01,-46.11 -18.57,-10.78 -39.02,-16.17 -61.38,-16.17 -23.16,0 -43.91,5.19 -62.28,15.57 -18.36,10.38 -32.83,25.45 -43.41,45.21 -10.58,19.76 -15.87,43.21 -15.87,70.36 0,26.75 5.29,50.2 15.87,70.37 10.58,20.16 25.05,35.53 43.41,46.11 18.37,10.58 39.13,15.87 62.28,15.87 22.36,0 42.81,-5.39 61.38,-16.17 18.57,-10.78 33.23,-26.15 44.01,-46.11 10.78,-19.96 16.17,-43.11 16.17,-69.46zm95.41 0c0,-33.93 6.79,-63.58 20.36,-88.92 13.57,-25.35 32.34,-44.91 56.28,-58.69 23.95,-13.77 51.3,-20.66 82.04,-20.66 40.32,0 73.55,9.99 99.7,29.95 26.15,19.96 43.02,47.1 50.6,81.44l-44.91 0c-5.59,-23.56 -17.67,-42.02 -36.23,-55.39 -18.57,-13.37 -41.62,-20.06 -69.16,-20.06 -21.96,0 -41.72,4.99 -59.28,14.97 -17.57,9.98 -31.44,24.85 -41.62,44.61 -10.18,19.76 -15.27,44.01 -15.27,72.76 0,28.74 5.09,53.09 15.27,73.05 10.18,19.97 24.05,34.93 41.62,44.91 17.56,9.98 37.32,14.97 59.28,14.97 27.54,0 50.6,-6.68 69.16,-20.06 18.56,-13.37 30.64,-32.04 36.23,-55.99l44.91 0c-7.58,33.54 -24.55,60.48 -50.9,80.84 -26.35,20.36 -59.48,30.54 -99.4,30.54 -30.74,0 -58.09,-6.88 -82.04,-20.66 -23.95,-13.77 -42.71,-33.33 -56.28,-58.68 -13.57,-25.35 -20.36,-54.99 -20.36,-88.92zm417.57 -128.15l0 203c0,19.97 3.79,33.74 11.38,41.32 7.58,7.59 20.96,11.38 40.12,11.38l38.33 0 0 35.93 -44.91 0c-29.54,0 -51.5,-6.89 -65.87,-20.66 -14.37,-13.77 -21.56,-36.43 -21.56,-67.97l0 -203 -45.51 0 0 -35.33 45.51 0 0 -82.04 42.51 0 0 82.04 89.82 0 0 35.33 -89.82 0z"/>
 </g>
</svg>
