<svg xmlns="http://www.w3.org/2000/svg" version="1.1" xmlns:xlink="http://www.w3.org/1999/xlink" xmlns:svgjs="http://svgjs.dev/svgjs" viewBox="0 0 800 800" width="800" height="800"><g stroke-width="1" stroke="hsl(261, 60%, 38%)" fill="none"><circle r="1.131578947368421" cx="0" cy="0" fill="hsl(261, 60%, 38%)" stroke="none"></circle><circle r="1.131578947368421" cx="47.05882352941177" cy="0" fill="hsl(261, 60%, 38%)" stroke="none"></circle><circle r="1.131578947368421" cx="94.11764705882354" cy="0" fill="hsl(261, 60%, 38%)" stroke="none"></circle><circle r="1.131578947368421" cx="141.1764705882353" cy="0" fill="hsl(261, 60%, 38%)" stroke="none"></circle><circle r="1.131578947368421" cx="188.23529411764707" cy="0" fill="hsl(261, 60%, 38%)" stroke="none"></circle><circle r="1.131578947368421" cx="235.29411764705884" cy="0" fill="hsl(261, 60%, 38%)" stroke="none"></circle><circle r="1.131578947368421" cx="282.3529411764706" cy="0" fill="hsl(261, 60%, 38%)" stroke="none"></circle><circle r="1.131578947368421" cx="329.4117647058824" cy="0" fill="hsl(261, 60%, 38%)" stroke="none"></circle><circle r="1.131578947368421" cx="376.47058823529414" cy="0" fill="hsl(261, 60%, 38%)" stroke="none"></circle><circle r="1.131578947368421" cx="423.5294117647059" cy="0" fill="hsl(261, 60%, 38%)" stroke="none"></circle><circle r="1.131578947368421" cx="470.5882352941177" cy="0" fill="hsl(261, 60%, 38%)" stroke="none"></circle><circle r="1.131578947368421" cx="517.6470588235295" cy="0" fill="hsl(261, 60%, 38%)" stroke="none"></circle><circle r="1.131578947368421" cx="564.7058823529412" cy="0" fill="hsl(261, 60%, 38%)" stroke="none"></circle><circle r="1.131578947368421" cx="611.7647058823529" cy="0" fill="hsl(261, 60%, 38%)" stroke="none"></circle><circle r="1.131578947368421" cx="658.8235294117646" cy="0" fill="hsl(261, 60%, 38%)" stroke="none"></circle><circle r="1.131578947368421" cx="705.8823529411764" cy="0" fill="hsl(261, 60%, 38%)" stroke="none"></circle><circle r="1.131578947368421" cx="752.9411764705881" cy="0" fill="hsl(261, 60%, 38%)" stroke="none"></circle><circle r="1.131578947368421" cx="799.9999999999998" cy="0" fill="hsl(261, 60%, 38%)" stroke="none"></circle><circle r="1.131578947368421" cx="0" cy="66.66666666666667" fill="hsl(261, 60%, 38%)" stroke="none"></circle><circle r="1.131578947368421" cx="47.05882352941177" cy="66.66666666666667" fill="hsl(261, 60%, 38%)" stroke="none"></circle><circle r="1.131578947368421" cx="94.11764705882354" cy="66.66666666666667" fill="hsl(261, 60%, 38%)" stroke="none"></circle><circle r="1.131578947368421" cx="141.1764705882353" cy="66.66666666666667" fill="hsl(261, 60%, 38%)" stroke="none"></circle><circle r="1.131578947368421" cx="188.23529411764707" cy="66.66666666666667" fill="hsl(261, 60%, 38%)" stroke="none"></circle><circle r="1.131578947368421" cx="235.29411764705884" cy="66.66666666666667" fill="hsl(261, 60%, 38%)" stroke="none"></circle><circle r="1.131578947368421" cx="282.3529411764706" cy="66.66666666666667" fill="hsl(261, 60%, 38%)" stroke="none"></circle><circle r="1.131578947368421" cx="329.4117647058824" cy="66.66666666666667" fill="hsl(261, 60%, 38%)" stroke="none"></circle><circle r="1.131578947368421" cx="376.47058823529414" cy="66.66666666666667" fill="hsl(261, 60%, 38%)" stroke="none"></circle><circle r="1.131578947368421" cx="423.5294117647059" cy="66.66666666666667" fill="hsl(261, 60%, 38%)" stroke="none"></circle><circle r="1.131578947368421" cx="470.5882352941177" cy="66.66666666666667" fill="hsl(261, 60%, 38%)" stroke="none"></circle><circle r="1.131578947368421" cx="517.6470588235295" cy="66.66666666666667" fill="hsl(261, 60%, 38%)" stroke="none"></circle><circle r="1.131578947368421" cx="564.7058823529412" cy="66.66666666666667" fill="hsl(261, 60%, 38%)" stroke="none"></circle><circle r="1.131578947368421" cx="611.7647058823529" cy="66.66666666666667" fill="hsl(261, 60%, 38%)" stroke="none"></circle><circle r="1.131578947368421" cx="658.8235294117646" cy="66.66666666666667" fill="hsl(261, 60%, 38%)" stroke="none"></circle><circle r="1.131578947368421" cx="705.8823529411764" cy="66.66666666666667" fill="hsl(261, 60%, 38%)" stroke="none"></circle><circle r="1.131578947368421" cx="752.9411764705881" cy="66.66666666666667" fill="hsl(261, 60%, 38%)" stroke="none"></circle><circle r="1.131578947368421" cx="799.9999999999998" cy="66.66666666666667" fill="hsl(261, 60%, 38%)" stroke="none"></circle><circle r="1.131578947368421" cx="0" cy="133.33333333333334" fill="hsl(261, 60%, 38%)" stroke="none"></circle><circle r="1.131578947368421" cx="47.05882352941177" cy="133.33333333333334" fill="hsl(261, 60%, 38%)" stroke="none"></circle><circle r="1.131578947368421" cx="94.11764705882354" cy="133.33333333333334" fill="hsl(261, 60%, 38%)" stroke="none"></circle><circle r="1.131578947368421" cx="141.1764705882353" cy="133.33333333333334" fill="hsl(261, 60%, 38%)" stroke="none"></circle><circle r="1.131578947368421" cx="188.23529411764707" cy="133.33333333333334" fill="hsl(261, 60%, 38%)" stroke="none"></circle><circle r="1.131578947368421" cx="235.29411764705884" cy="133.33333333333334" fill="hsl(261, 60%, 38%)" stroke="none"></circle><circle r="1.131578947368421" cx="282.3529411764706" cy="133.33333333333334" fill="hsl(261, 60%, 38%)" stroke="none"></circle><circle r="1.131578947368421" cx="329.4117647058824" cy="133.33333333333334" fill="hsl(261, 60%, 38%)" stroke="none"></circle><circle r="1.131578947368421" cx="376.47058823529414" cy="133.33333333333334" fill="hsl(261, 60%, 38%)" stroke="none"></circle><circle r="1.131578947368421" cx="423.5294117647059" cy="133.33333333333334" fill="hsl(261, 60%, 38%)" stroke="none"></circle><circle r="1.131578947368421" cx="470.5882352941177" cy="133.33333333333334" fill="hsl(261, 60%, 38%)" stroke="none"></circle><circle r="1.131578947368421" cx="517.6470588235295" cy="133.33333333333334" fill="hsl(261, 60%, 38%)" stroke="none"></circle><circle r="1.131578947368421" cx="564.7058823529412" cy="133.33333333333334" fill="hsl(261, 60%, 38%)" stroke="none"></circle><circle r="1.131578947368421" cx="611.7647058823529" cy="133.33333333333334" fill="hsl(261, 60%, 38%)" stroke="none"></circle><circle r="1.131578947368421" cx="658.8235294117646" cy="133.33333333333334" fill="hsl(261, 60%, 38%)" stroke="none"></circle><circle r="1.131578947368421" cx="705.8823529411764" cy="133.33333333333334" fill="hsl(261, 60%, 38%)" stroke="none"></circle><circle r="1.131578947368421" cx="752.9411764705881" cy="133.33333333333334" fill="hsl(261, 60%, 38%)" stroke="none"></circle><circle r="1.131578947368421" cx="799.9999999999998" cy="133.33333333333334" fill="hsl(261, 60%, 38%)" stroke="none"></circle><circle r="1.131578947368421" cx="0" cy="200" fill="hsl(261, 60%, 38%)" stroke="none"></circle><circle r="1.131578947368421" cx="47.05882352941177" cy="200" fill="hsl(261, 60%, 38%)" stroke="none"></circle><circle r="1.131578947368421" cx="94.11764705882354" cy="200" fill="hsl(261, 60%, 38%)" stroke="none"></circle><circle r="1.131578947368421" cx="141.1764705882353" cy="200" fill="hsl(261, 60%, 38%)" stroke="none"></circle><circle r="1.131578947368421" cx="188.23529411764707" cy="200" fill="hsl(261, 60%, 38%)" stroke="none"></circle><circle r="1.131578947368421" cx="235.29411764705884" cy="200" fill="hsl(261, 60%, 38%)" stroke="none"></circle><circle r="1.131578947368421" cx="282.3529411764706" cy="200" fill="hsl(261, 60%, 38%)" stroke="none"></circle><circle r="1.131578947368421" cx="329.4117647058824" cy="200" fill="hsl(261, 60%, 38%)" stroke="none"></circle><circle r="1.131578947368421" cx="376.47058823529414" cy="200" fill="hsl(261, 60%, 38%)" stroke="none"></circle><circle r="1.131578947368421" cx="423.5294117647059" cy="200" fill="hsl(261, 60%, 38%)" stroke="none"></circle><circle r="1.131578947368421" cx="470.5882352941177" cy="200" fill="hsl(261, 60%, 38%)" stroke="none"></circle><circle r="1.131578947368421" cx="517.6470588235295" cy="200" fill="hsl(261, 60%, 38%)" stroke="none"></circle><circle r="1.131578947368421" cx="564.7058823529412" cy="200" fill="hsl(261, 60%, 38%)" stroke="none"></circle><circle r="1.131578947368421" cx="611.7647058823529" cy="200" fill="hsl(261, 60%, 38%)" stroke="none"></circle><circle r="1.131578947368421" cx="658.8235294117646" cy="200" fill="hsl(261, 60%, 38%)" stroke="none"></circle><circle r="1.131578947368421" cx="705.8823529411764" cy="200" fill="hsl(261, 60%, 38%)" stroke="none"></circle><circle r="1.131578947368421" cx="752.9411764705881" cy="200" fill="hsl(261, 60%, 38%)" stroke="none"></circle><circle r="1.131578947368421" cx="799.9999999999998" cy="200" fill="hsl(261, 60%, 38%)" stroke="none"></circle><circle r="1.131578947368421" cx="0" cy="266.6666666666667" fill="hsl(261, 60%, 38%)" stroke="none"></circle><circle r="1.131578947368421" cx="47.05882352941177" cy="266.6666666666667" fill="hsl(261, 60%, 38%)" stroke="none"></circle><circle r="1.131578947368421" cx="94.11764705882354" cy="266.6666666666667" fill="hsl(261, 60%, 38%)" stroke="none"></circle><circle r="1.131578947368421" cx="141.1764705882353" cy="266.6666666666667" fill="hsl(261, 60%, 38%)" stroke="none"></circle><circle r="1.131578947368421" cx="188.23529411764707" cy="266.6666666666667" fill="hsl(261, 60%, 38%)" stroke="none"></circle><circle r="1.131578947368421" cx="235.29411764705884" cy="266.6666666666667" fill="hsl(261, 60%, 38%)" stroke="none"></circle><circle r="1.131578947368421" cx="282.3529411764706" cy="266.6666666666667" fill="hsl(261, 60%, 38%)" stroke="none"></circle><circle r="1.131578947368421" cx="329.4117647058824" cy="266.6666666666667" fill="hsl(261, 60%, 38%)" stroke="none"></circle><circle r="1.131578947368421" cx="376.47058823529414" cy="266.6666666666667" fill="hsl(261, 60%, 38%)" stroke="none"></circle><circle r="1.131578947368421" cx="423.5294117647059" cy="266.6666666666667" fill="hsl(261, 60%, 38%)" stroke="none"></circle><circle r="1.131578947368421" cx="470.5882352941177" cy="266.6666666666667" fill="hsl(261, 60%, 38%)" stroke="none"></circle><circle r="1.131578947368421" cx="517.6470588235295" cy="266.6666666666667" fill="hsl(261, 60%, 38%)" stroke="none"></circle><circle r="1.131578947368421" cx="564.7058823529412" cy="266.6666666666667" fill="hsl(261, 60%, 38%)" stroke="none"></circle><circle r="1.131578947368421" cx="611.7647058823529" cy="266.6666666666667" fill="hsl(261, 60%, 38%)" stroke="none"></circle><circle r="1.131578947368421" cx="658.8235294117646" cy="266.6666666666667" fill="hsl(261, 60%, 38%)" stroke="none"></circle><circle r="1.131578947368421" cx="705.8823529411764" cy="266.6666666666667" fill="hsl(261, 60%, 38%)" stroke="none"></circle><circle r="1.131578947368421" cx="752.9411764705881" cy="266.6666666666667" fill="hsl(261, 60%, 38%)" stroke="none"></circle><circle r="1.131578947368421" cx="799.9999999999998" cy="266.6666666666667" fill="hsl(261, 60%, 38%)" stroke="none"></circle><circle r="1.131578947368421" cx="0" cy="333.33333333333337" fill="hsl(261, 60%, 38%)" stroke="none"></circle><circle r="1.131578947368421" cx="47.05882352941177" cy="333.33333333333337" fill="hsl(261, 60%, 38%)" stroke="none"></circle><circle r="1.131578947368421" cx="94.11764705882354" cy="333.33333333333337" fill="hsl(261, 60%, 38%)" stroke="none"></circle><circle r="1.131578947368421" cx="141.1764705882353" cy="333.33333333333337" fill="hsl(261, 60%, 38%)" stroke="none"></circle><circle r="1.131578947368421" cx="188.23529411764707" cy="333.33333333333337" fill="hsl(261, 60%, 38%)" stroke="none"></circle><circle r="1.131578947368421" cx="235.29411764705884" cy="333.33333333333337" fill="hsl(261, 60%, 38%)" stroke="none"></circle><circle r="1.131578947368421" cx="282.3529411764706" cy="333.33333333333337" fill="hsl(261, 60%, 38%)" stroke="none"></circle><circle r="1.131578947368421" cx="329.4117647058824" cy="333.33333333333337" fill="hsl(261, 60%, 38%)" stroke="none"></circle><circle r="1.131578947368421" cx="376.47058823529414" cy="333.33333333333337" fill="hsl(261, 60%, 38%)" stroke="none"></circle><circle r="1.131578947368421" cx="423.5294117647059" cy="333.33333333333337" fill="hsl(261, 60%, 38%)" stroke="none"></circle><circle r="1.131578947368421" cx="470.5882352941177" cy="333.33333333333337" fill="hsl(261, 60%, 38%)" stroke="none"></circle><circle r="1.131578947368421" cx="517.6470588235295" cy="333.33333333333337" fill="hsl(261, 60%, 38%)" stroke="none"></circle><circle r="1.131578947368421" cx="564.7058823529412" cy="333.33333333333337" fill="hsl(261, 60%, 38%)" stroke="none"></circle><circle r="1.131578947368421" cx="611.7647058823529" cy="333.33333333333337" fill="hsl(261, 60%, 38%)" stroke="none"></circle><circle r="1.131578947368421" cx="658.8235294117646" cy="333.33333333333337" fill="hsl(261, 60%, 38%)" stroke="none"></circle><circle r="1.131578947368421" cx="705.8823529411764" cy="333.33333333333337" fill="hsl(261, 60%, 38%)" stroke="none"></circle><circle r="1.131578947368421" cx="752.9411764705881" cy="333.33333333333337" fill="hsl(261, 60%, 38%)" stroke="none"></circle><circle r="1.131578947368421" cx="799.9999999999998" cy="333.33333333333337" fill="hsl(261, 60%, 38%)" stroke="none"></circle><circle r="1.131578947368421" cx="0" cy="400.00000000000006" fill="hsl(261, 60%, 38%)" stroke="none"></circle><circle r="1.131578947368421" cx="47.05882352941177" cy="400.00000000000006" fill="hsl(261, 60%, 38%)" stroke="none"></circle><circle r="1.131578947368421" cx="94.11764705882354" cy="400.00000000000006" fill="hsl(261, 60%, 38%)" stroke="none"></circle><circle r="1.131578947368421" cx="141.1764705882353" cy="400.00000000000006" fill="hsl(261, 60%, 38%)" stroke="none"></circle><circle r="1.131578947368421" cx="188.23529411764707" cy="400.00000000000006" fill="hsl(261, 60%, 38%)" stroke="none"></circle><circle r="1.131578947368421" cx="235.29411764705884" cy="400.00000000000006" fill="hsl(261, 60%, 38%)" stroke="none"></circle><circle r="1.131578947368421" cx="282.3529411764706" cy="400.00000000000006" fill="hsl(261, 60%, 38%)" stroke="none"></circle><circle r="1.131578947368421" cx="329.4117647058824" cy="400.00000000000006" fill="hsl(261, 60%, 38%)" stroke="none"></circle><circle r="1.131578947368421" cx="376.47058823529414" cy="400.00000000000006" fill="hsl(261, 60%, 38%)" stroke="none"></circle><circle r="1.131578947368421" cx="423.5294117647059" cy="400.00000000000006" fill="hsl(261, 60%, 38%)" stroke="none"></circle><circle r="1.131578947368421" cx="470.5882352941177" cy="400.00000000000006" fill="hsl(261, 60%, 38%)" stroke="none"></circle><circle r="1.131578947368421" cx="517.6470588235295" cy="400.00000000000006" fill="hsl(261, 60%, 38%)" stroke="none"></circle><circle r="1.131578947368421" cx="564.7058823529412" cy="400.00000000000006" fill="hsl(261, 60%, 38%)" stroke="none"></circle><circle r="1.131578947368421" cx="611.7647058823529" cy="400.00000000000006" fill="hsl(261, 60%, 38%)" stroke="none"></circle><circle r="1.131578947368421" cx="658.8235294117646" cy="400.00000000000006" fill="hsl(261, 60%, 38%)" stroke="none"></circle><circle r="1.131578947368421" cx="705.8823529411764" cy="400.00000000000006" fill="hsl(261, 60%, 38%)" stroke="none"></circle><circle r="1.131578947368421" cx="752.9411764705881" cy="400.00000000000006" fill="hsl(261, 60%, 38%)" stroke="none"></circle><circle r="1.131578947368421" cx="799.9999999999998" cy="400.00000000000006" fill="hsl(261, 60%, 38%)" stroke="none"></circle><circle r="1.131578947368421" cx="0" cy="466.66666666666674" fill="hsl(261, 60%, 38%)" stroke="none"></circle><circle r="1.131578947368421" cx="47.05882352941177" cy="466.66666666666674" fill="hsl(261, 60%, 38%)" stroke="none"></circle><circle r="1.131578947368421" cx="94.11764705882354" cy="466.66666666666674" fill="hsl(261, 60%, 38%)" stroke="none"></circle><circle r="1.131578947368421" cx="141.1764705882353" cy="466.66666666666674" fill="hsl(261, 60%, 38%)" stroke="none"></circle><circle r="1.131578947368421" cx="188.23529411764707" cy="466.66666666666674" fill="hsl(261, 60%, 38%)" stroke="none"></circle><circle r="1.131578947368421" cx="235.29411764705884" cy="466.66666666666674" fill="hsl(261, 60%, 38%)" stroke="none"></circle><circle r="1.131578947368421" cx="282.3529411764706" cy="466.66666666666674" fill="hsl(261, 60%, 38%)" stroke="none"></circle><circle r="1.131578947368421" cx="329.4117647058824" cy="466.66666666666674" fill="hsl(261, 60%, 38%)" stroke="none"></circle><circle r="1.131578947368421" cx="376.47058823529414" cy="466.66666666666674" fill="hsl(261, 60%, 38%)" stroke="none"></circle><circle r="1.131578947368421" cx="423.5294117647059" cy="466.66666666666674" fill="hsl(261, 60%, 38%)" stroke="none"></circle><circle r="1.131578947368421" cx="470.5882352941177" cy="466.66666666666674" fill="hsl(261, 60%, 38%)" stroke="none"></circle><circle r="1.131578947368421" cx="517.6470588235295" cy="466.66666666666674" fill="hsl(261, 60%, 38%)" stroke="none"></circle><circle r="1.131578947368421" cx="564.7058823529412" cy="466.66666666666674" fill="hsl(261, 60%, 38%)" stroke="none"></circle><circle r="1.131578947368421" cx="611.7647058823529" cy="466.66666666666674" fill="hsl(261, 60%, 38%)" stroke="none"></circle><circle r="1.131578947368421" cx="658.8235294117646" cy="466.66666666666674" fill="hsl(261, 60%, 38%)" stroke="none"></circle><circle r="1.131578947368421" cx="705.8823529411764" cy="466.66666666666674" fill="hsl(261, 60%, 38%)" stroke="none"></circle><circle r="1.131578947368421" cx="752.9411764705881" cy="466.66666666666674" fill="hsl(261, 60%, 38%)" stroke="none"></circle><circle r="1.131578947368421" cx="799.9999999999998" cy="466.66666666666674" fill="hsl(261, 60%, 38%)" stroke="none"></circle><circle r="1.131578947368421" cx="0" cy="533.3333333333334" fill="hsl(261, 60%, 38%)" stroke="none"></circle><circle r="1.131578947368421" cx="47.05882352941177" cy="533.3333333333334" fill="hsl(261, 60%, 38%)" stroke="none"></circle><circle r="1.131578947368421" cx="94.11764705882354" cy="533.3333333333334" fill="hsl(261, 60%, 38%)" stroke="none"></circle><circle r="1.131578947368421" cx="141.1764705882353" cy="533.3333333333334" fill="hsl(261, 60%, 38%)" stroke="none"></circle><circle r="1.131578947368421" cx="188.23529411764707" cy="533.3333333333334" fill="hsl(261, 60%, 38%)" stroke="none"></circle><circle r="1.131578947368421" cx="235.29411764705884" cy="533.3333333333334" fill="hsl(261, 60%, 38%)" stroke="none"></circle><circle r="1.131578947368421" cx="282.3529411764706" cy="533.3333333333334" fill="hsl(261, 60%, 38%)" stroke="none"></circle><circle r="1.131578947368421" cx="329.4117647058824" cy="533.3333333333334" fill="hsl(261, 60%, 38%)" stroke="none"></circle><circle r="1.131578947368421" cx="376.47058823529414" cy="533.3333333333334" fill="hsl(261, 60%, 38%)" stroke="none"></circle><circle r="1.131578947368421" cx="423.5294117647059" cy="533.3333333333334" fill="hsl(261, 60%, 38%)" stroke="none"></circle><circle r="1.131578947368421" cx="470.5882352941177" cy="533.3333333333334" fill="hsl(261, 60%, 38%)" stroke="none"></circle><circle r="1.131578947368421" cx="517.6470588235295" cy="533.3333333333334" fill="hsl(261, 60%, 38%)" stroke="none"></circle><circle r="1.131578947368421" cx="564.7058823529412" cy="533.3333333333334" fill="hsl(261, 60%, 38%)" stroke="none"></circle><circle r="1.131578947368421" cx="611.7647058823529" cy="533.3333333333334" fill="hsl(261, 60%, 38%)" stroke="none"></circle><circle r="1.131578947368421" cx="658.8235294117646" cy="533.3333333333334" fill="hsl(261, 60%, 38%)" stroke="none"></circle><circle r="1.131578947368421" cx="705.8823529411764" cy="533.3333333333334" fill="hsl(261, 60%, 38%)" stroke="none"></circle><circle r="1.131578947368421" cx="752.9411764705881" cy="533.3333333333334" fill="hsl(261, 60%, 38%)" stroke="none"></circle><circle r="1.131578947368421" cx="799.9999999999998" cy="533.3333333333334" fill="hsl(261, 60%, 38%)" stroke="none"></circle><circle r="1.131578947368421" cx="0" cy="600" fill="hsl(261, 60%, 38%)" stroke="none"></circle><circle r="1.131578947368421" cx="47.05882352941177" cy="600" fill="hsl(261, 60%, 38%)" stroke="none"></circle><circle r="1.131578947368421" cx="94.11764705882354" cy="600" fill="hsl(261, 60%, 38%)" stroke="none"></circle><circle r="1.131578947368421" cx="141.1764705882353" cy="600" fill="hsl(261, 60%, 38%)" stroke="none"></circle><circle r="1.131578947368421" cx="188.23529411764707" cy="600" fill="hsl(261, 60%, 38%)" stroke="none"></circle><circle r="1.131578947368421" cx="235.29411764705884" cy="600" fill="hsl(261, 60%, 38%)" stroke="none"></circle><circle r="1.131578947368421" cx="282.3529411764706" cy="600" fill="hsl(261, 60%, 38%)" stroke="none"></circle><circle r="1.131578947368421" cx="329.4117647058824" cy="600" fill="hsl(261, 60%, 38%)" stroke="none"></circle><circle r="1.131578947368421" cx="376.47058823529414" cy="600" fill="hsl(261, 60%, 38%)" stroke="none"></circle><circle r="1.131578947368421" cx="423.5294117647059" cy="600" fill="hsl(261, 60%, 38%)" stroke="none"></circle><circle r="1.131578947368421" cx="470.5882352941177" cy="600" fill="hsl(261, 60%, 38%)" stroke="none"></circle><circle r="1.131578947368421" cx="517.6470588235295" cy="600" fill="hsl(261, 60%, 38%)" stroke="none"></circle><circle r="1.131578947368421" cx="564.7058823529412" cy="600" fill="hsl(261, 60%, 38%)" stroke="none"></circle><circle r="1.131578947368421" cx="611.7647058823529" cy="600" fill="hsl(261, 60%, 38%)" stroke="none"></circle><circle r="1.131578947368421" cx="658.8235294117646" cy="600" fill="hsl(261, 60%, 38%)" stroke="none"></circle><circle r="1.131578947368421" cx="705.8823529411764" cy="600" fill="hsl(261, 60%, 38%)" stroke="none"></circle><circle r="1.131578947368421" cx="752.9411764705881" cy="600" fill="hsl(261, 60%, 38%)" stroke="none"></circle><circle r="1.131578947368421" cx="799.9999999999998" cy="600" fill="hsl(261, 60%, 38%)" stroke="none"></circle><circle r="1.131578947368421" cx="0" cy="666.6666666666666" fill="hsl(261, 60%, 38%)" stroke="none"></circle><circle r="1.131578947368421" cx="47.05882352941177" cy="666.6666666666666" fill="hsl(261, 60%, 38%)" stroke="none"></circle><circle r="1.131578947368421" cx="94.11764705882354" cy="666.6666666666666" fill="hsl(261, 60%, 38%)" stroke="none"></circle><circle r="1.131578947368421" cx="141.1764705882353" cy="666.6666666666666" fill="hsl(261, 60%, 38%)" stroke="none"></circle><circle r="1.131578947368421" cx="188.23529411764707" cy="666.6666666666666" fill="hsl(261, 60%, 38%)" stroke="none"></circle><circle r="1.131578947368421" cx="235.29411764705884" cy="666.6666666666666" fill="hsl(261, 60%, 38%)" stroke="none"></circle><circle r="1.131578947368421" cx="282.3529411764706" cy="666.6666666666666" fill="hsl(261, 60%, 38%)" stroke="none"></circle><circle r="1.131578947368421" cx="329.4117647058824" cy="666.6666666666666" fill="hsl(261, 60%, 38%)" stroke="none"></circle><circle r="1.131578947368421" cx="376.47058823529414" cy="666.6666666666666" fill="hsl(261, 60%, 38%)" stroke="none"></circle><circle r="1.131578947368421" cx="423.5294117647059" cy="666.6666666666666" fill="hsl(261, 60%, 38%)" stroke="none"></circle><circle r="1.131578947368421" cx="470.5882352941177" cy="666.6666666666666" fill="hsl(261, 60%, 38%)" stroke="none"></circle><circle r="1.131578947368421" cx="517.6470588235295" cy="666.6666666666666" fill="hsl(261, 60%, 38%)" stroke="none"></circle><circle r="1.131578947368421" cx="564.7058823529412" cy="666.6666666666666" fill="hsl(261, 60%, 38%)" stroke="none"></circle><circle r="1.131578947368421" cx="611.7647058823529" cy="666.6666666666666" fill="hsl(261, 60%, 38%)" stroke="none"></circle><circle r="1.131578947368421" cx="658.8235294117646" cy="666.6666666666666" fill="hsl(261, 60%, 38%)" stroke="none"></circle><circle r="1.131578947368421" cx="705.8823529411764" cy="666.6666666666666" fill="hsl(261, 60%, 38%)" stroke="none"></circle><circle r="1.131578947368421" cx="752.9411764705881" cy="666.6666666666666" fill="hsl(261, 60%, 38%)" stroke="none"></circle><circle r="1.131578947368421" cx="799.9999999999998" cy="666.6666666666666" fill="hsl(261, 60%, 38%)" stroke="none"></circle><circle r="1.131578947368421" cx="0" cy="733.3333333333333" fill="hsl(261, 60%, 38%)" stroke="none"></circle><circle r="1.131578947368421" cx="47.05882352941177" cy="733.3333333333333" fill="hsl(261, 60%, 38%)" stroke="none"></circle><circle r="1.131578947368421" cx="94.11764705882354" cy="733.3333333333333" fill="hsl(261, 60%, 38%)" stroke="none"></circle><circle r="1.131578947368421" cx="141.1764705882353" cy="733.3333333333333" fill="hsl(261, 60%, 38%)" stroke="none"></circle><circle r="1.131578947368421" cx="188.23529411764707" cy="733.3333333333333" fill="hsl(261, 60%, 38%)" stroke="none"></circle><circle r="1.131578947368421" cx="235.29411764705884" cy="733.3333333333333" fill="hsl(261, 60%, 38%)" stroke="none"></circle><circle r="1.131578947368421" cx="282.3529411764706" cy="733.3333333333333" fill="hsl(261, 60%, 38%)" stroke="none"></circle><circle r="1.131578947368421" cx="329.4117647058824" cy="733.3333333333333" fill="hsl(261, 60%, 38%)" stroke="none"></circle><circle r="1.131578947368421" cx="376.47058823529414" cy="733.3333333333333" fill="hsl(261, 60%, 38%)" stroke="none"></circle><circle r="1.131578947368421" cx="423.5294117647059" cy="733.3333333333333" fill="hsl(261, 60%, 38%)" stroke="none"></circle><circle r="1.131578947368421" cx="470.5882352941177" cy="733.3333333333333" fill="hsl(261, 60%, 38%)" stroke="none"></circle><circle r="1.131578947368421" cx="517.6470588235295" cy="733.3333333333333" fill="hsl(261, 60%, 38%)" stroke="none"></circle><circle r="1.131578947368421" cx="564.7058823529412" cy="733.3333333333333" fill="hsl(261, 60%, 38%)" stroke="none"></circle><circle r="1.131578947368421" cx="611.7647058823529" cy="733.3333333333333" fill="hsl(261, 60%, 38%)" stroke="none"></circle><circle r="1.131578947368421" cx="658.8235294117646" cy="733.3333333333333" fill="hsl(261, 60%, 38%)" stroke="none"></circle><circle r="1.131578947368421" cx="705.8823529411764" cy="733.3333333333333" fill="hsl(261, 60%, 38%)" stroke="none"></circle><circle r="1.131578947368421" cx="752.9411764705881" cy="733.3333333333333" fill="hsl(261, 60%, 38%)" stroke="none"></circle><circle r="1.131578947368421" cx="799.9999999999998" cy="733.3333333333333" fill="hsl(261, 60%, 38%)" stroke="none"></circle><circle r="1.131578947368421" cx="0" cy="799.9999999999999" fill="hsl(261, 60%, 38%)" stroke="none"></circle><circle r="1.131578947368421" cx="47.05882352941177" cy="799.9999999999999" fill="hsl(261, 60%, 38%)" stroke="none"></circle><circle r="1.131578947368421" cx="94.11764705882354" cy="799.9999999999999" fill="hsl(261, 60%, 38%)" stroke="none"></circle><circle r="1.131578947368421" cx="141.1764705882353" cy="799.9999999999999" fill="hsl(261, 60%, 38%)" stroke="none"></circle><circle r="1.131578947368421" cx="188.23529411764707" cy="799.9999999999999" fill="hsl(261, 60%, 38%)" stroke="none"></circle><circle r="1.131578947368421" cx="235.29411764705884" cy="799.9999999999999" fill="hsl(261, 60%, 38%)" stroke="none"></circle><circle r="1.131578947368421" cx="282.3529411764706" cy="799.9999999999999" fill="hsl(261, 60%, 38%)" stroke="none"></circle><circle r="1.131578947368421" cx="329.4117647058824" cy="799.9999999999999" fill="hsl(261, 60%, 38%)" stroke="none"></circle><circle r="1.131578947368421" cx="376.47058823529414" cy="799.9999999999999" fill="hsl(261, 60%, 38%)" stroke="none"></circle><circle r="1.131578947368421" cx="423.5294117647059" cy="799.9999999999999" fill="hsl(261, 60%, 38%)" stroke="none"></circle><circle r="1.131578947368421" cx="470.5882352941177" cy="799.9999999999999" fill="hsl(261, 60%, 38%)" stroke="none"></circle><circle r="1.131578947368421" cx="517.6470588235295" cy="799.9999999999999" fill="hsl(261, 60%, 38%)" stroke="none"></circle><circle r="1.131578947368421" cx="564.7058823529412" cy="799.9999999999999" fill="hsl(261, 60%, 38%)" stroke="none"></circle><circle r="1.131578947368421" cx="611.7647058823529" cy="799.9999999999999" fill="hsl(261, 60%, 38%)" stroke="none"></circle><circle r="1.131578947368421" cx="658.8235294117646" cy="799.9999999999999" fill="hsl(261, 60%, 38%)" stroke="none"></circle><circle r="1.131578947368421" cx="705.8823529411764" cy="799.9999999999999" fill="hsl(261, 60%, 38%)" stroke="none"></circle><circle r="1.131578947368421" cx="752.9411764705881" cy="799.9999999999999" fill="hsl(261, 60%, 38%)" stroke="none"></circle><circle r="1.131578947368421" cx="799.9999999999998" cy="799.9999999999999" fill="hsl(261, 60%, 38%)" stroke="none"></circle></g></svg>