<?xml version="1.0" encoding="UTF-8"?>
<!DOCTYPE svg PUBLIC "-//W3C//DTD SVG 1.1//EN" "http://www.w3.org/Graphics/SVG/1.1/DTD/svg11.dtd">
<!-- Creator: CorelDRAW 2018 (64-Bit Evaluation Version) -->
<svg xmlns="http://www.w3.org/2000/svg" xml:space="preserve" width="15.5786mm" height="15.5786mm" version="1.1" style="shape-rendering:geometricPrecision; text-rendering:geometricPrecision; image-rendering:optimizeQuality; fill-rule:evenodd; clip-rule:evenodd"
viewBox="0 0 372.01 372.01"
 xmlns:xlink="http://www.w3.org/1999/xlink">
 <defs>
  <style type="text/css">
   <![CDATA[
    .fil0 {fill:#E6E7E8}
   ]]>
  </style>
 </defs>
 <g id="Layer_x0020_1">
  <metadata id="CorelCorpID_0Corel-Layer"/>
  <path class="fil0" d="M186.01 0c102.73,0 186.01,83.28 186.01,186.01 0,102.73 -83.28,186.01 -186.01,186.01 -102.73,0 -186.01,-83.28 -186.01,-186.01 0,-102.73 83.28,-186.01 186.01,-186.01zm96.93 302.8l-110.32 0c-64.23,0 -116.79,-52.56 -116.79,-116.79 0,-64.23 52.56,-116.79 116.79,-116.79l39.58 0 0 15.31 -39.58 0c-55.83,0 -101.49,45.66 -101.49,101.49 0,55.83 45.66,101.49 101.49,101.49l110.32 0 0 15.31zm-67.17 -86.68l0 -15.3 39.24 0 0 15.3 -39.24 0zm53.03 0l0 -15.3 16.43 0 0 15.3 -16.43 0zm-66.08 0l-30.11 0c-16.56,0 -30.12,-13.56 -30.12,-30.11 0,-16.56 13.56,-30.11 30.12,-30.11l112.77 0 0 15.3 -112.77 0c-8.15,0 -14.81,6.66 -14.81,14.81 0,8.15 6.66,14.81 14.81,14.81l30.11 0 0 15.3zm57.84 43.34l-87.95 0c-40.39,0 -73.45,-33.06 -73.45,-73.45 0,-40.39 33.06,-73.45 73.45,-73.45l83.6 0 0 15.3 -83.6 0c-31.99,0 -58.15,26.16 -58.15,58.15 0,31.99 26.16,58.15 58.15,58.15l87.95 0 0 15.31z"/>
 </g>
</svg>
