<?xml version="1.0" encoding="UTF-8"?>
<!DOCTYPE svg PUBLIC "-//W3C//DTD SVG 1.1//EN" "http://www.w3.org/Graphics/SVG/1.1/DTD/svg11.dtd">
<!-- Creator: CorelDRAW 2018 (64-Bit Evaluation Version) -->
<svg xmlns="http://www.w3.org/2000/svg" xml:space="preserve" width="44.6354mm" height="15.7501mm" version="1.1" style="shape-rendering:geometricPrecision; text-rendering:geometricPrecision; image-rendering:optimizeQuality; fill-rule:evenodd; clip-rule:evenodd"
viewBox="0 0 1777.51 627.21"
 xmlns:xlink="http://www.w3.org/1999/xlink">
 <defs>
  <style type="text/css">
   <![CDATA[
    .fil1 {fill:none}
    .fil0 {fill:#373435;fill-rule:nonzero}
    .fil2 {fill:#09429C;fill-rule:nonzero}
   ]]>
  </style>
 </defs>
 <g id="Layer_x0020_1">
  <metadata id="CorelCorpID_0Corel-Layer"/>
  <path class="fil0" d="M494.27 522.5c-6.24,0 -11.68,-0.97 -16.3,-2.9 -4.63,-1.93 -8.46,-4.6 -11.48,-8.01 -3.02,-3.41 -5.27,-7.36 -6.77,-11.85 -1.49,-4.5 -2.23,-9.3 -2.23,-14.42 0,-3.97 0.45,-7.78 1.37,-11.44 0.92,-3.66 2.34,-7.03 4.27,-10.12 1.93,-3.09 4.37,-5.77 7.33,-8.06 2.97,-2.29 6.5,-4.07 10.62,-5.34 4.11,-1.27 8.83,-1.91 14.16,-1.91 5.09,0 9.76,0.65 14.01,1.93 4.25,1.29 7.98,3.31 11.18,6.08 3.2,2.76 5.75,6.35 7.66,10.76l-7.34 2.8c-0.91,-2.92 -2.27,-5.36 -4.08,-7.32 -1.81,-1.97 -3.9,-3.54 -6.29,-4.7 -2.39,-1.17 -4.92,-2.01 -7.61,-2.52 -2.68,-0.51 -5.36,-0.76 -8.02,-0.76 -4.25,0 -8,0.54 -11.24,1.63 -3.24,1.08 -6,2.59 -8.29,4.52 -2.29,1.93 -4.15,4.19 -5.6,6.76 -1.45,2.58 -2.51,5.37 -3.19,8.37 -0.68,3 -1.02,6.11 -1.02,9.33 0,4.07 0.55,7.96 1.64,11.67 1.1,3.71 2.82,7.02 5.18,9.92 2.37,2.9 5.42,5.18 9.18,6.86 3.76,1.68 8.28,2.52 13.56,2.52 3.62,0 7.1,-0.49 10.43,-1.45 3.34,-0.97 6.34,-2.58 9,-4.83 2.66,-2.25 4.81,-5.31 6.44,-9.18l7.34 2.85c-3.1,5.97 -7.51,10.59 -13.24,13.88 -5.73,3.29 -12.62,4.93 -20.69,4.93zm72.74 0c-4.09,0 -7.82,-0.7 -11.18,-2.09 -3.36,-1.39 -6.26,-3.3 -8.71,-5.74 -2.45,-2.44 -4.32,-5.26 -5.63,-8.47 -1.31,-3.2 -1.97,-6.62 -1.97,-10.25 0,-3.62 0.65,-7.02 1.97,-10.19 1.31,-3.17 3.19,-5.97 5.63,-8.39 2.44,-2.43 5.34,-4.32 8.71,-5.69 3.36,-1.37 7.08,-2.06 11.18,-2.06 4.09,0 7.84,0.69 11.24,2.06 3.4,1.37 6.34,3.27 8.82,5.69 2.48,2.42 4.4,5.22 5.76,8.39 1.35,3.17 2.02,6.57 2.02,10.19 0,3.63 -0.67,7.04 -2.02,10.25 -1.35,3.21 -3.27,6.03 -5.76,8.47 -2.48,2.44 -5.42,4.35 -8.82,5.74 -3.4,1.39 -7.15,2.09 -11.24,2.09zm0.12 -5.18c3.5,0 6.52,-0.61 9.06,-1.83 2.54,-1.22 4.64,-2.86 6.29,-4.91 1.65,-2.05 2.88,-4.34 3.7,-6.87 0.82,-2.52 1.22,-5.11 1.22,-7.76 0,-2.64 -0.4,-5.23 -1.19,-7.75 -0.8,-2.53 -2.03,-4.8 -3.7,-6.81 -1.67,-2.02 -3.77,-3.62 -6.29,-4.81 -2.52,-1.19 -5.52,-1.78 -8.98,-1.78 -3.46,0 -6.46,0.59 -9,1.78 -2.54,1.19 -4.65,2.79 -6.32,4.81 -1.67,2.02 -2.92,4.28 -3.73,6.81 -0.82,2.52 -1.23,5.11 -1.23,7.75 0,2.68 0.41,5.29 1.23,7.83 0.81,2.54 2.05,4.83 3.73,6.87 1.67,2.03 3.76,3.65 6.29,4.85 2.52,1.2 5.5,1.81 8.92,1.81zm43.7 4.17l0 -50.8 7.45 0 0 9.56c1.87,-3.08 4.44,-5.6 7.73,-7.52 3.28,-1.93 7.26,-2.9 11.95,-2.9 3.46,0 6.42,0.54 8.88,1.62 2.47,1.09 4.48,2.59 6.05,4.5 1.57,1.92 2.72,4.12 3.46,6.61 0.74,2.49 1.1,5.17 1.1,8.01l0 30.92 -7.45 0 0 -30.41c0,-1.77 -0.21,-3.58 -0.63,-5.44 -0.42,-1.86 -1.14,-3.6 -2.17,-5.21 -1.04,-1.61 -2.45,-2.91 -4.26,-3.89 -1.81,-0.98 -4.13,-1.47 -6.95,-1.47 -3.22,0 -6.17,0.76 -8.85,2.29 -2.68,1.53 -4.83,3.8 -6.44,6.81 -1.61,3.02 -2.42,6.78 -2.42,11.29l0 26.04 -7.45 0zm81.45 1.02c-3.42,0 -6.09,-0.6 -8.02,-1.8 -1.93,-1.21 -3.29,-2.88 -4.09,-5.03 -0.8,-2.15 -1.19,-4.66 -1.19,-7.5l0 -32.29 -9.54 0 0 -5.18 9.54 0 0 -11.19 7.45 -6.66 0 17.85 15.14 0 0 5.18 -15.14 0 0 32.9c0,2.88 0.74,5.05 2.21,6.48 1.47,1.44 3.34,2.16 5.6,2.16 0.88,0 1.76,-0.1 2.66,-0.3 0.89,-0.21 1.8,-0.48 2.71,-0.81l0 5.28c-0.52,0.2 -1.42,0.41 -2.71,0.61 -1.29,0.21 -2.83,0.31 -4.62,0.31zm36.85 0c-3.66,0 -6.9,-0.59 -9.72,-1.75 -2.82,-1.17 -5.04,-2.86 -6.65,-5.06 -1.61,-2.2 -2.42,-4.85 -2.42,-7.93 0,-10 8.94,-15 26.83,-15l13.24 0c0,-3.46 -0.47,-6.51 -1.43,-9.16 -0.96,-2.64 -2.56,-4.71 -4.8,-6.2 -2.25,-1.49 -5.29,-2.24 -9.15,-2.24 -2.98,0 -5.58,0.42 -7.78,1.25 -2.21,0.83 -4.07,1.84 -5.58,3.03 -1.51,1.19 -2.76,2.36 -3.76,3.51l-5.37 -3.61c2.62,-3.12 5.74,-5.52 9.36,-7.2 3.62,-1.68 7.77,-2.52 12.46,-2.52 4.97,0 9.14,0.86 12.52,2.57 3.38,1.72 5.92,4.12 7.63,7.22 1.71,3.1 2.56,6.72 2.56,10.86l0 31.23 -6.44 0 0 -10.43c-1.39,2.64 -3.21,4.81 -5.46,6.48 -2.24,1.68 -4.75,2.92 -7.51,3.74 -2.77,0.81 -5.62,1.22 -8.56,1.22zm0.77 -5.39c3.3,0 6.22,-0.59 8.77,-1.78 2.54,-1.19 4.68,-2.74 6.44,-4.68 1.75,-1.93 3.07,-4.03 3.97,-6.28 0.9,-2.25 1.34,-4.47 1.34,-6.64l-12.34 0c-6.52,0 -11.47,0.73 -14.85,2.19 -3.38,1.46 -5.07,4.1 -5.07,7.93 0,2.24 0.54,4.03 1.61,5.39 1.07,1.35 2.5,2.34 4.29,2.95 1.79,0.61 3.74,0.92 5.84,0.92zm72.86 5.39c-4.61,0 -8.45,-0.79 -11.51,-2.36 -3.06,-1.58 -5.53,-3.59 -7.39,-6.03l0 7.38 -7.34 0 0 -71.86 7.34 0 0 28.43c1.86,-2.41 4.33,-4.41 7.39,-6.03 3.06,-1.61 6.9,-2.42 11.51,-2.42 3.82,0 7.19,0.69 10.13,2.06 2.94,1.37 5.41,3.27 7.4,5.69 1.99,2.42 3.5,5.24 4.53,8.44 1.03,3.2 1.55,6.62 1.55,10.25 0,3.66 -0.52,7.09 -1.55,10.27 -1.04,3.19 -2.54,5.99 -4.53,8.42 -1.99,2.42 -4.45,4.32 -7.4,5.69 -2.94,1.37 -6.32,2.06 -10.13,2.06zm-1.91 -5.18c3.1,0 5.79,-0.59 8.08,-1.78 2.28,-1.19 4.16,-2.79 5.63,-4.81 1.47,-2.02 2.56,-4.29 3.28,-6.81 0.72,-2.53 1.07,-5.15 1.07,-7.86 0,-2.68 -0.35,-5.28 -1.07,-7.81 -0.72,-2.53 -1.81,-4.81 -3.28,-6.84 -1.47,-2.03 -3.35,-3.64 -5.63,-4.83 -2.29,-1.19 -4.98,-1.78 -8.08,-1.78 -3.1,0 -5.77,0.59 -7.99,1.78 -2.23,1.19 -4.04,2.8 -5.45,4.83 -1.41,2.03 -2.46,4.31 -3.13,6.84 -0.68,2.52 -1.02,5.13 -1.02,7.81 0,2.71 0.34,5.33 1.02,7.86 0.67,2.52 1.72,4.79 3.13,6.81 1.41,2.02 3.23,3.62 5.45,4.81 2.23,1.19 4.89,1.78 7.99,1.78zm41.5 -58.33l0 -9.36 8.88 0 0 9.36 -8.88 0zm0.72 62.5l0 -50.8 7.45 0 0 50.8 -7.45 0zm37.15 1.02c-2.39,0 -4.2,-0.33 -5.46,-0.99 -1.25,-0.66 -2.12,-1.54 -2.6,-2.64 -0.47,-1.1 -0.74,-2.32 -0.8,-3.66 -0.06,-1.34 -0.09,-2.69 -0.09,-4.04l0 -61.53 7.57 0 0 64.68c0,-0.33 -0.01,-0.39 -0.03,-0.18 -0.02,0.22 0.02,0.56 0.12,1.02 0.1,0.46 0.32,0.88 0.68,1.27 0.36,0.39 0.92,0.59 1.67,0.59 1.23,0 2.43,-0.06 3.58,-0.18 1.15,-0.12 2.03,-0.23 2.62,-0.33l0 4.99c-0.76,0.24 -1.79,0.47 -3.1,0.68 -1.31,0.22 -2.7,0.33 -4.17,0.33zm20.63 -63.51l0 -9.36 8.88 0 0 9.36 -8.88 0zm0.71 62.5l0 -50.8 7.45 0 0 50.8 -7.45 0zm66.66 -71.86l7.45 0 0 71.86 -7.45 0 0 -7.43c-1.31,1.6 -2.83,3.03 -4.56,4.3 -1.73,1.27 -3.77,2.28 -6.11,3.02 -2.35,0.74 -5.13,1.12 -8.35,1.12 -3.74,0 -7.06,-0.68 -9.96,-2.06 -2.9,-1.37 -5.36,-3.27 -7.37,-5.69 -2.01,-2.43 -3.54,-5.23 -4.59,-8.42 -1.06,-3.18 -1.58,-6.61 -1.58,-10.27 0,-3.66 0.53,-7.1 1.58,-10.3 1.05,-3.2 2.58,-6.01 4.59,-8.41 2.01,-2.41 4.46,-4.3 7.37,-5.67 2.9,-1.37 6.22,-2.06 9.96,-2.06 4.61,0 8.45,0.78 11.51,2.34 3.06,1.56 5.56,3.59 7.51,6.1l0 -28.43zm-17.11 67.69c3.18,0 5.89,-0.59 8.14,-1.78 2.25,-1.19 4.07,-2.79 5.49,-4.81 1.41,-2.02 2.44,-4.29 3.1,-6.81 0.66,-2.53 0.98,-5.15 0.98,-7.86 0,-2.68 -0.33,-5.28 -0.98,-7.81 -0.66,-2.53 -1.69,-4.81 -3.1,-6.84 -1.41,-2.03 -3.24,-3.64 -5.49,-4.83 -2.25,-1.19 -4.96,-1.78 -8.14,-1.78 -3.1,0 -5.76,0.59 -7.99,1.78 -2.23,1.19 -4.07,2.8 -5.52,4.83 -1.45,2.03 -2.51,4.31 -3.19,6.84 -0.68,2.52 -1.02,5.13 -1.02,7.81 0,2.71 0.34,5.33 1.02,7.86 0.68,2.52 1.74,4.79 3.19,6.81 1.45,2.02 3.29,3.62 5.52,4.81 2.23,1.19 4.89,1.78 7.99,1.78zm58.73 5.18c-3.66,0 -6.89,-0.59 -9.72,-1.75 -2.82,-1.17 -5.04,-2.86 -6.65,-5.06 -1.61,-2.2 -2.41,-4.85 -2.41,-7.93 0,-10 8.94,-15 26.83,-15l13.24 0c0,-3.46 -0.48,-6.51 -1.43,-9.16 -0.96,-2.64 -2.56,-4.71 -4.8,-6.2 -2.25,-1.49 -5.29,-2.24 -9.15,-2.24 -2.98,0 -5.58,0.42 -7.78,1.25 -2.21,0.83 -4.07,1.84 -5.58,3.03 -1.51,1.19 -2.76,2.36 -3.76,3.51l-5.36 -3.61c2.62,-3.12 5.74,-5.52 9.36,-7.2 3.62,-1.68 7.77,-2.52 12.46,-2.52 4.97,0 9.14,0.86 12.52,2.57 3.38,1.72 5.92,4.12 7.63,7.22 1.71,3.1 2.56,6.72 2.56,10.86l0 31.23 -6.44 0 0 -10.43c-1.39,2.64 -3.21,4.81 -5.46,6.48 -2.25,1.68 -4.75,2.92 -7.51,3.74 -2.76,0.81 -5.62,1.22 -8.56,1.22zm0.78 -5.39c3.3,0 6.22,-0.59 8.77,-1.78 2.54,-1.19 4.69,-2.74 6.44,-4.68 1.75,-1.93 3.07,-4.03 3.97,-6.28 0.89,-2.25 1.34,-4.47 1.34,-6.64l-12.35 0c-6.52,0 -11.47,0.73 -14.85,2.19 -3.38,1.46 -5.07,4.1 -5.07,7.93 0,2.24 0.54,4.03 1.61,5.39 1.07,1.35 2.5,2.34 4.29,2.95 1.79,0.61 3.74,0.92 5.84,0.92zm84.85 -67.48l7.45 0 0 71.86 -7.45 0 0 -7.43c-1.31,1.6 -2.83,3.03 -4.56,4.3 -1.73,1.27 -3.77,2.28 -6.11,3.02 -2.35,0.74 -5.13,1.12 -8.35,1.12 -3.74,0 -7.06,-0.68 -9.96,-2.06 -2.9,-1.37 -5.36,-3.27 -7.36,-5.69 -2.01,-2.43 -3.54,-5.23 -4.59,-8.42 -1.06,-3.18 -1.58,-6.61 -1.58,-10.27 0,-3.66 0.53,-7.1 1.58,-10.3 1.05,-3.2 2.58,-6.01 4.59,-8.41 2.01,-2.41 4.46,-4.3 7.36,-5.67 2.9,-1.37 6.22,-2.06 9.96,-2.06 4.61,0 8.45,0.78 11.51,2.34 3.06,1.56 5.56,3.59 7.51,6.1l0 -28.43zm-17.11 67.69c3.18,0 5.89,-0.59 8.14,-1.78 2.25,-1.19 4.07,-2.79 5.48,-4.81 1.41,-2.02 2.45,-4.29 3.1,-6.81 0.66,-2.53 0.98,-5.15 0.98,-7.86 0,-2.68 -0.33,-5.28 -0.98,-7.81 -0.66,-2.53 -1.69,-4.81 -3.1,-6.84 -1.41,-2.03 -3.24,-3.64 -5.48,-4.83 -2.25,-1.19 -4.96,-1.78 -8.14,-1.78 -3.1,0 -5.76,0.59 -7.99,1.78 -2.23,1.19 -4.07,2.8 -5.52,4.83 -1.45,2.03 -2.52,4.31 -3.19,6.84 -0.68,2.52 -1.02,5.13 -1.02,7.81 0,2.71 0.34,5.33 1.02,7.86 0.67,2.52 1.74,4.79 3.19,6.81 1.45,2.02 3.29,3.62 5.52,4.81 2.23,1.19 4.89,1.78 7.99,1.78zm67.08 4.78c-4.41,0 -8.24,-0.68 -11.5,-2.03 -3.26,-1.35 -5.96,-3.23 -8.11,-5.62 -2.15,-2.39 -3.76,-5.14 -4.83,-8.24 -1.08,-3.1 -1.61,-6.38 -1.61,-9.84 0,-3.42 0.53,-6.71 1.58,-9.87 1.05,-3.15 2.63,-5.97 4.71,-8.44 2.09,-2.47 4.7,-4.43 7.84,-5.87 3.14,-1.44 6.78,-2.16 10.91,-2.16 3.78,0 7.05,0.47 9.84,1.4 2.78,0.93 5.13,2.22 7.04,3.87 1.91,1.64 3.44,3.52 4.6,5.62 1.15,2.1 1.98,4.32 2.47,6.66 0.5,2.34 0.74,4.7 0.74,7.07 0,0.55 -0.02,1.16 -0.06,1.86 -0.04,0.7 -0.1,1.28 -0.18,1.76l-41.68 0c-0.08,2.44 0.24,4.76 0.96,6.97 0.71,2.21 1.84,4.17 3.37,5.87 1.53,1.72 3.44,3.06 5.75,4.05 2.31,0.98 4.99,1.47 8.05,1.47 3.58,0 6.76,-0.37 9.54,-1.12 2.78,-0.74 5.36,-2.19 7.75,-4.32l5.13 3.35c-3.22,2.68 -6.57,4.61 -10.05,5.8 -3.48,1.19 -7.56,1.78 -12.25,1.78zm-18.24 -29.34l34.82 0c0,-2.1 -0.29,-4.18 -0.86,-6.23 -0.58,-2.05 -1.54,-3.93 -2.9,-5.65 -1.35,-1.71 -3.16,-3.07 -5.42,-4.09 -2.27,-1.02 -5.07,-1.53 -8.41,-1.53 -2.86,0 -5.36,0.47 -7.48,1.42 -2.13,0.95 -3.9,2.25 -5.31,3.89 -1.41,1.64 -2.48,3.51 -3.22,5.6 -0.74,2.09 -1.15,4.28 -1.22,6.59z"/>
  <rect class="fil1" x="0" y="-0" width="1777.51" height="627.21"/>
  <g id="_2164720458880">
   <path class="fil2" d="M145.03 413.62c-18,0 -34.14,-2.46 -48.45,-7.38 -14.31,-4.92 -26.74,-11.79 -37.29,-20.59 -10.55,-8.8 -19.33,-19.13 -26.31,-30.97 -6.99,-11.85 -12.2,-24.76 -15.63,-38.75 -3.43,-13.98 -5.15,-28.48 -5.15,-43.5 0,-15.02 1.72,-29.52 5.15,-43.5 3.43,-13.98 8.61,-26.9 15.54,-38.74 6.93,-11.85 15.63,-22.23 26.12,-31.17 10.49,-8.93 22.89,-15.86 37.19,-20.78 14.3,-4.92 30.46,-7.38 48.45,-7.38 18.12,0 34.89,3.01 50.3,9.03 15.41,6.02 29.04,14.89 40.88,26.61 11.85,11.72 21.46,26.12 28.84,43.21l-46.04 18.25c-3.36,-12.04 -8.64,-21.72 -15.83,-29.03 -7.18,-7.32 -15.76,-12.65 -25.73,-16.02 -9.97,-3.37 -20.91,-5.05 -32.82,-5.05 -14.5,0 -26.99,2.39 -37.48,7.19 -10.49,4.79 -19.09,11.46 -25.83,20 -6.73,8.55 -11.72,18.42 -14.95,29.62 -3.24,11.2 -4.86,23.14 -4.86,35.83 0,13.6 1.62,26.25 4.86,37.97 3.23,11.72 8.25,21.95 15.05,30.68 6.79,8.74 15.47,15.54 26.02,20.4 10.55,4.85 23.2,7.28 37.97,7.28 17.74,0 32.73,-3.88 44.96,-11.65 12.23,-7.77 22.04,-20.84 29.43,-39.23l45.64 18.65c-7.25,17.1 -16.8,31.5 -28.65,43.21 -11.84,11.72 -25.47,20.62 -40.88,26.71 -15.41,6.09 -32.23,9.13 -50.49,9.13z"/>
   <path class="fil2" d="M369.86 413.62c-15.02,0 -28.61,-2.69 -40.78,-8.06 -12.17,-5.38 -22.62,-12.72 -31.36,-22.04 -8.75,-9.33 -15.48,-20.1 -20.2,-32.34 -4.73,-12.23 -7.09,-25.21 -7.09,-38.93 0,-13.72 2.36,-26.64 7.09,-38.74 4.72,-12.11 11.45,-22.79 20.2,-32.05 8.74,-9.25 19.19,-16.53 31.36,-21.84 12.17,-5.31 25.76,-7.96 40.78,-7.96 15.02,0 28.61,2.66 40.79,7.96 12.17,5.3 22.62,12.59 31.36,21.84 8.74,9.26 15.47,19.94 20.19,32.05 4.73,12.11 7.09,25.02 7.09,38.74 0,13.72 -2.36,26.7 -7.09,38.93 -4.73,12.24 -11.46,23.01 -20.19,32.34 -8.75,9.32 -19.2,16.67 -31.36,22.04 -12.17,5.37 -25.77,8.06 -40.79,8.06zm0 -40.79c8.93,0 16.6,-1.65 23.01,-4.95 6.41,-3.3 11.59,-7.77 15.53,-13.4 3.95,-5.63 6.86,-12.1 8.74,-19.42 1.88,-7.31 2.82,-14.92 2.82,-22.82 0,-8.03 -0.94,-15.6 -2.82,-22.72 -1.88,-7.12 -4.79,-13.46 -8.74,-19.03 -3.95,-5.57 -9.13,-9.94 -15.53,-13.11 -6.41,-3.17 -14.08,-4.75 -23.01,-4.75 -11.91,0 -21.56,2.75 -28.94,8.26 -7.38,5.5 -12.75,12.78 -16.12,21.84 -3.36,9.06 -5.05,18.9 -5.05,29.52 0,7.9 0.94,15.51 2.82,22.82 1.87,7.32 4.82,13.79 8.84,19.42 4.01,5.64 9.19,10.1 15.53,13.4 6.34,3.3 13.98,4.95 22.91,4.95z"/>
   <path class="fil2" d="M481.31 409.74l0 -194.01 47 0 0 22.53c5.18,-6.34 11,-11.46 17.48,-15.35 6.47,-3.88 13.13,-6.73 20,-8.54 6.86,-1.81 13.46,-2.72 19.81,-2.72 12.69,0 23.5,2.3 32.44,6.89 8.93,4.6 16.18,10.81 21.75,18.65 5.57,7.84 9.65,16.6 12.23,26.31 2.58,9.71 3.88,19.61 3.88,29.72l0 116.52 -46.8 0 0 -110.5c0,-8.54 -1.39,-16.12 -4.18,-22.72 -2.78,-6.6 -6.93,-11.78 -12.42,-15.54 -5.51,-3.76 -12.34,-5.63 -20.49,-5.63 -13.34,0 -23.95,3.79 -31.85,11.36 -7.89,7.57 -11.84,19.84 -11.84,36.8l0 106.23 -47 0z"/>
   <path class="fil2" d="M756.24 413.62c-12.69,0 -23.6,-2.33 -32.73,-6.99 -9.13,-4.66 -16.12,-11.3 -20.97,-19.91 -4.85,-8.61 -7.28,-18.8 -7.28,-30.58l0 -100.8 -31.27 0 0 -39.62 32.05 0 0 -48.17 46.22 -33.79 0 81.96 48.94 0 0 39.62 -48.94 0 0 92.44c0,9.32 2.1,15.66 6.31,19.03 4.21,3.37 9.42,5.05 15.63,5.05 4.92,0 9.84,-0.78 14.76,-2.33 4.92,-1.55 8.99,-3.1 12.24,-4.66l0 42.92c-3.63,1.29 -8.68,2.59 -15.15,3.88 -6.48,1.29 -13.07,1.94 -19.8,1.94z"/>
   <path class="fil2" d="M876.7 413.62c-13.21,0 -25.15,-2.46 -35.83,-7.38 -10.68,-4.92 -19.13,-12.14 -25.34,-21.66 -6.22,-9.51 -9.33,-21 -9.33,-34.47 0,-10.49 1.98,-19.33 5.93,-26.51 3.94,-7.18 9.42,-12.95 16.41,-17.28 6.98,-4.34 15.18,-7.47 24.57,-9.42 9.39,-1.94 19.51,-2.91 30.39,-2.91l50.49 0c0,-12.3 -3.24,-22.21 -9.71,-29.72 -6.48,-7.51 -15.99,-11.26 -28.55,-11.26 -7.38,0 -14.01,1.29 -19.9,3.88 -5.89,2.59 -10.94,5.96 -15.15,10.1 -4.21,4.14 -7.74,8.61 -10.59,13.4l-36.31 -26.22c6.22,-8.55 13.21,-15.99 20.97,-22.34 7.77,-6.34 16.64,-11.29 26.61,-14.86 9.97,-3.55 21.3,-5.34 33.98,-5.34 17.61,0 32.66,3.4 45.16,10.19 12.49,6.8 22.07,16.25 28.74,28.36 6.67,12.11 10,26.06 10,41.85l0 117.69 -39.03 0 -3.11 -27.77c-8.28,12.17 -17.54,20.48 -27.77,24.95 -10.23,4.47 -21.11,6.7 -32.63,6.7zm6.8 -40.01c6.73,0 13.11,-1.2 19.13,-3.59 6.02,-2.39 11.33,-5.73 15.92,-10 4.6,-4.27 8.29,-9.13 11.07,-14.57 2.78,-5.44 4.24,-11.2 4.37,-17.28l-47.77 0c-10.74,0 -18.67,2.39 -23.79,7.18 -5.11,4.79 -7.67,10.23 -7.67,16.32 0,6.34 2.49,11.58 7.48,15.72 4.98,4.14 12.07,6.22 21.26,6.22z"/>
   <path class="fil2" d="M1133.98 135.33l48.16 0 0 274.41 -44.08 0 -2.13 -21.75c-6.73,9.06 -15.12,15.6 -25.15,19.61 -10.04,4.02 -20.43,6.03 -31.18,6.03 -13.59,0 -25.63,-2.69 -36.12,-8.06 -10.49,-5.38 -19.29,-12.76 -26.41,-22.14 -7.12,-9.38 -12.49,-20.13 -16.12,-32.24 -3.63,-12.1 -5.44,-24.95 -5.44,-38.55 0,-13.46 1.81,-26.25 5.44,-38.35 3.63,-12.1 8.96,-22.85 16.02,-32.24 7.06,-9.39 15.77,-16.8 26.12,-22.24 10.36,-5.44 22.27,-8.16 35.73,-8.16 10.1,0 20.13,1.81 30.1,5.44 9.97,3.63 18.32,9.65 25.05,18.06l0 -99.82zm-42.93 235.38c10.88,0 19.78,-2.55 26.71,-7.67 6.93,-5.11 12.04,-12.04 15.34,-20.78 3.3,-8.74 4.95,-18.61 4.95,-29.62 0,-10.88 -1.65,-20.68 -4.95,-29.42 -3.3,-8.74 -8.41,-15.69 -15.34,-20.88 -6.93,-5.18 -15.83,-7.77 -26.71,-7.77 -10.87,0 -19.8,2.59 -26.79,7.77 -6.99,5.18 -12.17,12.17 -15.53,20.97 -3.37,8.8 -5.05,18.58 -5.05,29.33 0,10.88 1.68,20.72 5.05,29.52 3.36,8.8 8.54,15.77 15.53,20.88 6.99,5.12 15.92,7.67 26.79,7.67z"/>
   <path class="fil2" d="M1301.73 379.44c7.38,1.04 14.69,2.27 21.94,3.69 7.25,1.43 14.08,3.37 20.49,5.83 6.4,2.46 12.1,5.73 17.09,9.8 4.99,4.08 8.9,9.2 11.76,15.35 2.85,6.15 4.27,13.69 4.27,22.62 0,11 -2.2,20.55 -6.6,28.65 -4.4,8.09 -10.49,14.82 -18.26,20.19 -7.77,5.38 -16.86,9.39 -27.28,12.04 -10.42,2.66 -21.66,3.98 -33.7,3.98 -19.03,0 -35.3,-3.01 -48.83,-9.03 -13.53,-6.02 -23.89,-14.24 -31.08,-24.67 -7.19,-10.42 -10.78,-22.24 -10.78,-35.44 0,-2.2 0.1,-3.92 0.29,-5.15 0.2,-1.23 0.36,-2.3 0.49,-3.21l20.2 -18.25c-5.7,-3.88 -10.29,-8.9 -13.79,-15.05 -3.49,-6.15 -5.24,-13.88 -5.24,-23.21 0,-8.68 1.58,-16.25 4.75,-22.73 3.17,-6.47 7.6,-12.23 13.3,-17.28 -5.05,-6.08 -9,-12.91 -11.85,-20.49 -2.85,-7.57 -4.27,-15.63 -4.27,-24.18 0,-10.49 2.1,-20.1 6.32,-28.84 4.21,-8.74 10,-16.28 17.38,-22.62 7.38,-6.34 15.86,-11.23 25.43,-14.66 9.58,-3.43 19.75,-5.15 30.49,-5.15 8.42,0 16.54,1.07 24.38,3.21 7.83,2.14 14.99,5.21 21.46,9.22l29.72 -25.44 24.67 30.1 -28.16 22.72c5.57,9.97 8.35,21.23 8.35,33.79 0,10.88 -2.07,20.66 -6.21,29.33 -4.15,8.67 -9.88,16.12 -17.19,22.33 -7.31,6.22 -15.73,10.97 -25.24,14.27 -9.52,3.3 -19.58,4.96 -30.2,4.96 -6.73,0 -13.17,-0.65 -19.32,-1.95 -6.15,-1.29 -12.01,-3.17 -17.58,-5.63 -3.76,2.46 -5.63,5.89 -5.63,10.29 0,5.31 2.46,9.16 7.38,11.55 4.92,2.4 11.78,4.15 20.59,5.24 8.8,1.1 18.97,2.36 30.49,3.79zm-15.93 -131.09c-10.23,0 -18.16,3.27 -23.79,9.81 -5.63,6.54 -8.45,14.92 -8.45,25.15 0,9.84 2.75,18 8.26,24.47 5.5,6.48 13.5,9.71 23.99,9.71 10.62,0 18.58,-3.23 23.89,-9.71 5.31,-6.47 7.96,-14.63 7.96,-24.47 0,-10.23 -2.72,-18.61 -8.16,-25.15 -5.44,-6.54 -13.34,-9.81 -23.69,-9.81zm6.02 215.96c12.3,0 22.14,-1.91 29.52,-5.73 7.38,-3.83 11.07,-9.23 11.07,-16.22 0,-4.79 -1.81,-8.39 -5.44,-10.78 -3.63,-2.39 -8.97,-4.21 -16.02,-5.44 -7.06,-1.23 -15.7,-2.43 -25.93,-3.6 -5.44,-0.65 -11.13,-1.36 -17.09,-2.13 -5.95,-0.78 -11.78,-1.81 -17.48,-3.11l-9.9 16.31c0.9,6.87 3.66,12.56 8.26,17.09 4.6,4.53 10.61,7.93 18.06,10.19 7.45,2.26 15.76,3.4 24.95,3.4z"/>
   <path class="fil2" d="M1480.17 413.62c-15.02,0 -28.61,-2.69 -40.78,-8.06 -12.17,-5.38 -22.63,-12.72 -31.36,-22.04 -8.74,-9.33 -15.48,-20.1 -20.19,-32.34 -4.73,-12.23 -7.09,-25.21 -7.09,-38.93 0,-13.72 2.37,-26.64 7.09,-38.74 4.72,-12.11 11.45,-22.79 20.19,-32.05 8.74,-9.25 19.19,-16.53 31.36,-21.84 12.17,-5.31 25.76,-7.96 40.78,-7.96 15.02,0 28.61,2.66 40.78,7.96 12.17,5.3 22.62,12.59 31.36,21.84 8.74,9.26 15.47,19.94 20.19,32.05 4.73,12.11 7.09,25.02 7.09,38.74 0,13.72 -2.36,26.7 -7.09,38.93 -4.72,12.24 -11.46,23.01 -20.19,32.34 -8.74,9.32 -19.19,16.67 -31.36,22.04 -12.17,5.37 -25.76,8.06 -40.78,8.06zm0 -40.79c8.93,0 16.6,-1.65 23.01,-4.95 6.4,-3.3 11.58,-7.77 15.53,-13.4 3.95,-5.63 6.86,-12.1 8.74,-19.42 1.88,-7.31 2.82,-14.92 2.82,-22.82 0,-8.03 -0.94,-15.6 -2.82,-22.72 -1.88,-7.12 -4.79,-13.46 -8.74,-19.03 -3.95,-5.57 -9.13,-9.94 -15.53,-13.11 -6.41,-3.17 -14.08,-4.75 -23.01,-4.75 -11.91,0 -21.56,2.75 -28.94,8.26 -7.38,5.5 -12.76,12.78 -16.12,21.84 -3.37,9.06 -5.05,18.9 -5.05,29.52 0,7.9 0.94,15.51 2.82,22.82 1.87,7.32 4.82,13.79 8.83,19.42 4.01,5.64 9.19,10.1 15.53,13.4 6.35,3.3 13.98,4.95 22.92,4.95z"/>
  </g>
  <path class="fil0" d="M1592.8 164.34c7.6,0 14.49,3.09 19.47,8.07 4.98,4.98 8.07,11.87 8.07,19.47 0,7.6 -3.09,14.49 -8.07,19.46 -4.97,4.99 -11.86,8.07 -19.47,8.07 -7.6,0 -14.48,-3.09 -19.47,-8.07 -4.98,-4.98 -8.07,-11.88 -8.07,-19.47 0,-7.6 3.09,-14.49 8.07,-19.47 4.98,-4.98 11.88,-8.07 19.47,-8.07zm17.55 10c-4.49,-4.49 -10.69,-7.26 -17.55,-7.26 -6.85,0 -13.06,2.78 -17.54,7.26 -4.49,4.49 -7.26,10.7 -7.26,17.55 0,6.85 2.78,13.06 7.26,17.54 4.48,4.48 10.69,7.26 17.55,7.26 6.85,0 13.06,-2.78 17.55,-7.26 4.48,-4.48 7.26,-10.68 7.26,-17.54 0,-6.85 -2.78,-13.06 -7.26,-17.55z"/>
  <path class="fil0" d="M1599.97 206.9l-7.16 -12.29 -4.74 0 0 12.29 -3.93 0 0 -30.05 9.7 0c2.27,0 4.19,0.38 5.76,1.16 1.57,0.77 2.74,1.82 3.52,3.15 0.78,1.32 1.16,2.83 1.16,4.52 0,2.07 -0.59,3.9 -1.79,5.48 -1.19,1.58 -2.98,2.63 -5.37,3.15l7.55 12.59 -4.7 0zm-11.9 -15.44l5.77 0c2.13,0 3.73,-0.53 4.79,-1.57 1.07,-1.05 1.6,-2.45 1.6,-4.21 0,-1.78 -0.52,-3.16 -1.57,-4.14 -1.05,-0.98 -2.65,-1.46 -4.81,-1.46l-5.77 0 0 11.38z"/>
 </g>
</svg>
