<?xml version="1.0" encoding="UTF-8"?>
<!DOCTYPE svg PUBLIC "-//W3C//DTD SVG 1.1//EN" "http://www.w3.org/Graphics/SVG/1.1/DTD/svg11.dtd">
<!-- Creator: CorelDRAW 2018 (64-Bit Evaluation Version) -->
<svg xmlns="http://www.w3.org/2000/svg" xml:space="preserve" width="44.6354mm" height="15.7501mm" version="1.1" style="shape-rendering:geometricPrecision; text-rendering:geometricPrecision; image-rendering:optimizeQuality; fill-rule:evenodd; clip-rule:evenodd"
viewBox="0 0 19038.65 6718"
 xmlns:xlink="http://www.w3.org/1999/xlink">
 <defs>
  <style type="text/css">
   <![CDATA[
    .str0 {stroke:#4B4B4D;stroke-width:32.5;stroke-miterlimit:22.9256}
    .fil0 {fill:none}
    .fil1 {fill:#08A89A}
    .fil2 {fill:#0A736B}
    .fil3 {fill:#4B4B4D;fill-rule:nonzero}
   ]]>
  </style>
 </defs>
 <g id="Layer_x0020_1">
  <metadata id="CorelCorpID_0Corel-Layer"/>
  <rect class="fil0" x="0" y="-0.01" width="19038.63" height="6717.99"/>
  <g id="_1461897711952">
   <path class="fil1" d="M3046.29 5412.29c256.95,0 280.49,-125.15 279,-372.11 -3.24,-524.68 -68.5,-1405.18 132.35,-1741 309.84,-517.99 904.26,-419.54 1476.16,-416.6 495.89,2.6 383.76,35.83 383.76,-1402.67 0,-189.21 -25.46,-250.08 -224.49,-250.08 -1511.39,0.13 -1429.97,-110.94 -1428.26,409.35 2,606.15 87.91,1115.14 -448.63,1445.24 -319.65,196.68 -1250.95,121.95 -1766.12,123.27 -232.29,0.64 -329.5,48.88 -329.5,291.28l0.09 1620.63c0,210.67 68.59,292.69 277.55,292.69l1648.1 0z"/>
   <path class="fil2" d="M2718.79 1536.81c-100.88,-77.54 -622.96,-32.33 -790.12,-33.65 -168.61,-1.36 -248.5,-9.94 -258.1,161.32 -6.91,121.56 1.32,274.56 1.32,399.88 0,557.7 -59.2,547.38 284.12,543.45 909.68,-10.36 817.2,156.24 817.25,-569.98 0,-234.34 39.67,-428.8 -54.47,-501.01z"/>
   <path class="fil1" d="M5024.48 4838.04c34,-285.95 39.58,-775.32 -4.48,-1058.11 -292.78,-35.49 -589.18,-20.13 -883.83,-20.13 -169.68,0 -196.21,9.6 -196.12,190.83 0.04,676.19 -87.48,910.87 196.12,911.94 313.89,1.15 593.4,24.18 888.31,-24.53z"/>
   <path class="fil3" d="M6907.04 4117.87l992.42 0 0 478.92 -1596.44 0 0 -3011.65 604.02 0 0 2532.73zm2255.83 517.77c-230.12,0 -437.2,-51.06 -621.34,-153.21 -184.05,-102.07 -328.6,-246.62 -433.62,-433.62 -104.97,-186.95 -157.43,-402.69 -157.43,-647.18 0,-244.49 53.91,-460.23 161.79,-647.18 107.83,-186.99 255.24,-331.5 442.23,-433.62 186.95,-102.16 395.49,-153.21 625.64,-153.21 230.07,0 438.65,51.06 625.56,153.21 186.99,102.11 334.41,246.62 442.32,433.62 107.87,186.95 161.79,402.69 161.79,647.18 0,244.49 -55.41,460.23 -166.14,647.18 -110.73,186.99 -260.32,331.55 -448.72,433.62 -188.4,102.16 -399.11,153.21 -632.09,153.21zm0 -526.39c109.28,0 212.12,-26.57 308.51,-79.85 96.35,-53.19 173.3,-132.99 230.8,-239.46 57.54,-106.42 86.33,-235.83 86.33,-388.32 0,-227.22 -59.67,-401.97 -179.1,-524.21 -119.35,-122.29 -265.35,-183.37 -437.93,-183.37 -172.58,0 -317.13,61.08 -433.62,183.37 -116.53,122.25 -174.75,297 -174.75,524.21 0,227.22 56.81,401.97 170.44,524.21 113.59,122.29 256.69,183.41 429.31,183.41zm2445.68 -1941.64c178.29,0 335.13,35.27 470.26,105.74 135.21,70.51 241.63,161.83 319.31,273.96l0 -340.85 608.37 0 0 2407.59c0,221.5 -44.57,419.2 -133.76,593.23 -89.19,174.03 -222.91,312.14 -401.24,414.21 -178.34,102.16 -394.08,153.21 -647.23,153.21 -339.4,0 -617.67,-79.12 -834.86,-237.33 -217.19,-158.2 -340.16,-373.9 -368.91,-647.23l599.75 0c31.65,109.32 99.94,196.38 204.91,261.08 105.01,64.71 232.29,97.08 381.84,97.08 175.52,0 317.9,-52.46 427.18,-157.52 109.28,-104.97 163.96,-263.86 163.96,-476.74l0 -371.09c-77.67,112.22 -184.82,205.68 -321.44,280.49 -136.62,74.77 -292.69,112.18 -468.12,112.18 -201.37,0 -385.46,-51.78 -552.32,-155.34 -166.78,-103.56 -298.41,-249.57 -394.76,-437.93 -96.4,-188.4 -144.55,-404.87 -144.55,-649.36 0,-241.59 48.16,-455.93 144.55,-642.88 96.35,-186.95 227.22,-330.82 392.63,-431.48 165.41,-100.66 350.19,-151.04 554.46,-151.04zm789.56 1234.01c0,-146.64 -28.79,-272.51 -86.33,-377.53 -57.45,-104.97 -135.13,-185.54 -232.97,-241.59 -97.8,-56.09 -202.78,-84.11 -314.91,-84.11 -112.22,0 -215.79,27.3 -310.69,81.94 -94.9,54.68 -171.89,134.49 -230.84,239.46 -58.95,104.97 -88.46,229.43 -88.46,373.22 0,143.83 29.52,269.7 88.46,377.53 58.95,107.87 136.62,190.58 233.02,248.12 96.35,57.54 199.19,86.29 308.51,86.29 112.14,0 217.11,-28.02 314.91,-84.16 97.85,-56.09 175.52,-136.62 232.97,-241.59 57.54,-105.06 86.33,-230.84 86.33,-377.57zm2078.9 1234.01c-230.12,0 -437.2,-51.06 -621.34,-153.21 -184.05,-102.07 -328.65,-246.62 -433.62,-433.62 -104.97,-186.95 -157.43,-402.69 -157.43,-647.18 0,-244.49 53.91,-460.23 161.79,-647.18 107.83,-186.99 255.24,-331.5 442.23,-433.62 186.95,-102.16 395.49,-153.21 625.64,-153.21 230.07,0 438.65,51.06 625.56,153.21 186.99,102.11 334.41,246.62 442.32,433.62 107.87,186.95 161.79,402.69 161.79,647.18 0,244.49 -55.41,460.23 -166.14,647.18 -110.73,186.99 -260.32,331.55 -448.72,433.62 -188.4,102.16 -399.11,153.21 -632.09,153.21zm0 -526.39c109.28,0 212.12,-26.57 308.51,-79.85 96.35,-53.19 173.3,-132.99 230.8,-239.46 57.54,-106.42 86.33,-235.83 86.33,-388.32 0,-227.22 -59.67,-401.97 -179.1,-524.21 -119.35,-122.29 -265.35,-183.37 -437.93,-183.37 -172.58,0 -317.13,61.08 -433.62,183.37 -116.53,122.25 -174.75,297 -174.75,524.21 0,227.22 56.81,401.97 170.44,524.21 113.59,122.29 256.69,183.41 429.31,183.41z"/>
   <path class="fil0 str0" d="M15939.18 1769.62c172.24,0 311.8,139.61 311.8,311.8 0,172.19 -139.56,311.76 -311.8,311.76 -172.19,0 -311.76,-139.56 -311.76,-311.76 0,-172.19 139.56,-311.8 311.76,-311.8z"/>
   <path class="fil3" d="M16024.57 2260.43l-85.26 -146.43 -56.52 0 0 146.43 -46.79 0 0 -358.04 115.59 0c27.04,0 49.95,4.56 68.59,13.86 18.68,9.21 32.63,21.71 41.89,37.49 9.21,15.74 13.86,33.74 13.86,53.91 0,24.65 -7.08,46.41 -21.28,65.22 -14.25,18.85 -35.57,31.35 -63.98,37.54l89.91 150.01 -56 0zm-141.78 -183.92l68.8 0c25.38,0 44.36,-6.27 57.03,-18.77 12.67,-12.45 18.98,-29.18 18.98,-50.08 0,-21.24 -6.18,-37.66 -18.72,-49.35 -12.5,-11.6 -31.56,-17.4 -57.28,-17.4l-68.8 0 0 135.6z"/>
  </g>
 </g>
</svg>
