<?xml version="1.0" encoding="UTF-8"?>
<!DOCTYPE svg PUBLIC "-//W3C//DTD SVG 1.1//EN" "http://www.w3.org/Graphics/SVG/1.1/DTD/svg11.dtd">
<!-- Creator: CorelDRAW 2018 (64-Bit Evaluation Version) -->
<svg xmlns="http://www.w3.org/2000/svg" xml:space="preserve" width="73.1905mm" height="19.7236mm" version="1.1" style="shape-rendering:geometricPrecision; text-rendering:geometricPrecision; image-rendering:optimizeQuality; fill-rule:evenodd; clip-rule:evenodd"
viewBox="0 0 7488.81 2018.11"
 xmlns:xlink="http://www.w3.org/1999/xlink">
 <defs>
  <style type="text/css">
   <![CDATA[
    .fil0 {fill:none}
    .fil2 {fill:#727376}
    .fil1 {fill:#727376;fill-rule:nonzero}
   ]]>
  </style>
 </defs>
 <g id="Layer_x0020_1">
  <metadata id="CorelCorpID_0Corel-Layer"/>
  <rect class="fil0" x="-0" y="14.78" width="7488.81" height="2003.32"/>
  <path class="fil1" d="M2321.74 1464.08l77.64 -189.72 18.59 0 77.36 189.72 -27.88 0 -63.69 -160.47 9.57 0 -64.25 160.47 -27.34 0zm36.91 -42.92l0 -22.42 99.78 0 0 22.42 -99.78 0zm245.67 45.65c-14.94,0 -27.7,-2.73 -38.27,-8.2 -10.57,-5.47 -19.95,-13.4 -28.16,-23.79l17.5 -17.5c6.02,8.39 12.94,14.72 20.77,19 7.84,4.29 17.5,6.43 28.99,6.43 11.3,0 20.36,-2.46 27.2,-7.38 6.83,-4.92 10.25,-11.66 10.25,-20.24 0,-7.1 -1.64,-12.84 -4.92,-17.22 -3.28,-4.37 -7.7,-7.97 -13.26,-10.79 -5.56,-2.82 -11.61,-5.38 -18.18,-7.65 -6.56,-2.28 -13.12,-4.74 -19.68,-7.39 -6.56,-2.64 -12.58,-5.91 -18.05,-9.83 -5.46,-3.92 -9.88,-9.08 -13.25,-15.45 -3.38,-6.37 -5.06,-14.4 -5.06,-24.06 0,-10.75 2.6,-19.91 7.8,-27.47 5.19,-7.57 12.3,-13.4 21.32,-17.5 9.01,-4.1 19.17,-6.15 30.48,-6.15 12.39,0 23.51,2.41 33.35,7.24 9.84,4.83 17.86,11.16 24.07,18.99l-17.5 17.5c-5.66,-6.56 -11.72,-11.48 -18.18,-14.75 -6.47,-3.28 -13.89,-4.92 -22.29,-4.92 -10.2,0 -18.32,2.23 -24.33,6.69 -6.01,4.47 -9.01,10.71 -9.01,18.72 0,6.38 1.69,11.53 5.05,15.45 3.38,3.92 7.8,7.24 13.26,9.98 5.46,2.73 11.52,5.24 18.18,7.52 6.65,2.28 13.25,4.79 19.82,7.52 6.56,2.73 12.58,6.19 18.04,10.39 5.46,4.2 9.88,9.62 13.26,16.27 3.37,6.65 5.05,14.99 5.05,25.01 0,16.77 -5.78,29.9 -17.35,39.37 -11.57,9.47 -27.21,14.21 -46.89,14.21zm179.8 0c-14.94,0 -27.7,-2.73 -38.27,-8.2 -10.57,-5.47 -19.95,-13.4 -28.16,-23.79l17.5 -17.5c6.02,8.39 12.94,14.72 20.77,19 7.84,4.29 17.5,6.43 28.99,6.43 11.3,0 20.36,-2.46 27.2,-7.38 6.83,-4.92 10.25,-11.66 10.25,-20.24 0,-7.1 -1.64,-12.84 -4.92,-17.22 -3.28,-4.37 -7.7,-7.97 -13.26,-10.79 -5.56,-2.82 -11.61,-5.38 -18.18,-7.65 -6.56,-2.28 -13.12,-4.74 -19.68,-7.39 -6.56,-2.64 -12.58,-5.91 -18.05,-9.83 -5.46,-3.92 -9.88,-9.08 -13.25,-15.45 -3.38,-6.37 -5.06,-14.4 -5.06,-24.06 0,-10.75 2.6,-19.91 7.8,-27.47 5.19,-7.57 12.3,-13.4 21.32,-17.5 9.01,-4.1 19.17,-6.15 30.48,-6.15 12.39,0 23.51,2.41 33.35,7.24 9.84,4.83 17.86,11.16 24.07,18.99l-17.5 17.5c-5.66,-6.56 -11.72,-11.48 -18.18,-14.75 -6.47,-3.28 -13.89,-4.92 -22.29,-4.92 -10.2,0 -18.32,2.23 -24.33,6.69 -6.01,4.47 -9.01,10.71 -9.01,18.72 0,6.38 1.69,11.53 5.05,15.45 3.38,3.92 7.8,7.24 13.26,9.98 5.46,2.73 11.52,5.24 18.18,7.52 6.65,2.28 13.25,4.79 19.82,7.52 6.56,2.73 12.58,6.19 18.04,10.39 5.46,4.2 9.88,9.62 13.26,16.27 3.37,6.65 5.05,14.99 5.05,25.01 0,16.77 -5.78,29.9 -17.35,39.37 -11.57,9.47 -27.21,14.21 -46.89,14.21zm131.95 -2.73l0 -189.72 25.69 0 0 189.72 -25.69 0zm17.5 0l0 -23.51 108.81 0 0 23.51 -108.81 0zm0 -85.84l0 -22.42 99.78 0 0 22.42 -99.78 0zm0 -80.38l0 -23.5 107.44 0 0 23.5 -107.44 0zm224.62 168.95c-14.94,0 -27.7,-2.73 -38.27,-8.2 -10.57,-5.47 -19.95,-13.4 -28.16,-23.79l17.5 -17.5c6.02,8.39 12.94,14.72 20.77,19 7.84,4.29 17.5,6.43 28.99,6.43 11.3,0 20.36,-2.46 27.2,-7.38 6.83,-4.92 10.25,-11.66 10.25,-20.24 0,-7.1 -1.64,-12.84 -4.92,-17.22 -3.28,-4.37 -7.7,-7.97 -13.26,-10.79 -5.56,-2.82 -11.61,-5.38 -18.18,-7.65 -6.56,-2.28 -13.12,-4.74 -19.68,-7.39 -6.56,-2.64 -12.58,-5.91 -18.05,-9.83 -5.46,-3.92 -9.88,-9.08 -13.25,-15.45 -3.38,-6.37 -5.06,-14.4 -5.06,-24.06 0,-10.75 2.6,-19.91 7.8,-27.47 5.19,-7.57 12.3,-13.4 21.32,-17.5 9.01,-4.1 19.17,-6.15 30.48,-6.15 12.39,0 23.51,2.41 33.35,7.24 9.84,4.83 17.86,11.16 24.07,18.99l-17.5 17.5c-5.66,-6.56 -11.72,-11.48 -18.18,-14.75 -6.47,-3.28 -13.89,-4.92 -22.29,-4.92 -10.2,0 -18.32,2.23 -24.33,6.69 -6.01,4.47 -9.01,10.71 -9.01,18.72 0,6.38 1.69,11.53 5.05,15.45 3.38,3.92 7.8,7.24 13.26,9.98 5.46,2.73 11.52,5.24 18.18,7.52 6.65,2.28 13.25,4.79 19.82,7.52 6.56,2.73 12.58,6.19 18.04,10.39 5.46,4.2 9.88,9.62 13.26,16.27 3.37,6.65 5.05,14.99 5.05,25.01 0,16.77 -5.78,29.9 -17.35,39.37 -11.57,9.47 -27.21,14.21 -46.89,14.21zm179.8 0c-14.94,0 -27.7,-2.73 -38.27,-8.2 -10.57,-5.47 -19.95,-13.4 -28.16,-23.79l17.5 -17.5c6.02,8.39 12.94,14.72 20.77,19 7.84,4.29 17.5,6.43 28.99,6.43 11.3,0 20.36,-2.46 27.2,-7.38 6.83,-4.92 10.25,-11.66 10.25,-20.24 0,-7.1 -1.64,-12.84 -4.92,-17.22 -3.28,-4.37 -7.7,-7.97 -13.26,-10.79 -5.56,-2.82 -11.61,-5.38 -18.18,-7.65 -6.56,-2.28 -13.12,-4.74 -19.68,-7.39 -6.56,-2.64 -12.58,-5.91 -18.05,-9.83 -5.46,-3.92 -9.88,-9.08 -13.25,-15.45 -3.38,-6.37 -5.06,-14.4 -5.06,-24.06 0,-10.75 2.6,-19.91 7.8,-27.47 5.19,-7.57 12.3,-13.4 21.32,-17.5 9.01,-4.1 19.17,-6.15 30.48,-6.15 12.39,0 23.51,2.41 33.35,7.24 9.84,4.83 17.86,11.16 24.07,18.99l-17.5 17.5c-5.66,-6.56 -11.72,-11.48 -18.18,-14.75 -6.47,-3.28 -13.89,-4.92 -22.29,-4.92 -10.2,0 -18.32,2.23 -24.33,6.69 -6.01,4.47 -9.01,10.71 -9.01,18.72 0,6.38 1.69,11.53 5.05,15.45 3.38,3.92 7.8,7.24 13.26,9.98 5.46,2.73 11.52,5.24 18.18,7.52 6.65,2.28 13.25,4.79 19.82,7.52 6.56,2.73 12.58,6.19 18.04,10.39 5.46,4.2 9.88,9.62 13.26,16.27 3.37,6.65 5.05,14.99 5.05,25.01 0,16.77 -5.78,29.9 -17.35,39.37 -11.57,9.47 -27.21,14.21 -46.89,14.21zm219.17 0c-13.49,0 -26.06,-2.51 -37.73,-7.52 -11.66,-5 -21.88,-12.02 -30.62,-21.05 -8.75,-9.02 -15.53,-19.45 -20.36,-31.3 -4.83,-11.85 -7.24,-24.52 -7.24,-38 0,-13.67 2.41,-26.38 7.24,-38.13 4.83,-11.76 11.57,-22.1 20.23,-31.03 8.66,-8.92 18.78,-15.85 30.35,-20.77 11.57,-4.92 24.1,-7.38 37.58,-7.38 13.49,0 26.02,2.46 37.59,7.38 11.57,4.92 21.73,11.85 30.48,20.77 8.75,8.93 15.58,19.33 20.5,31.17 4.92,11.85 7.38,24.61 7.38,38.28 0,13.49 -2.46,26.15 -7.38,38 -4.92,11.84 -11.71,22.23 -20.37,31.17 -8.66,8.92 -18.77,15.9 -30.34,20.9 -11.57,5.01 -24.01,7.52 -37.32,7.52zm-0.55 -24.6c13.67,0 25.65,-3.15 35.96,-9.43 10.29,-6.29 18.45,-14.95 24.46,-25.97 6.02,-11.03 9.02,-23.66 9.02,-37.87 0,-10.57 -1.74,-20.27 -5.2,-29.11 -3.46,-8.84 -8.29,-16.55 -14.49,-23.1 -6.2,-6.56 -13.49,-11.62 -21.87,-15.17 -8.39,-3.55 -17.68,-5.33 -27.89,-5.33 -13.49,0 -25.38,3.1 -35.67,9.3 -10.3,6.19 -18.41,14.75 -24.33,25.69 -5.92,10.94 -8.89,23.51 -8.89,37.73 0,10.57 1.69,20.37 5.06,29.39 3.37,9.02 8.1,16.77 14.21,23.24 6.11,6.48 13.39,11.53 21.87,15.17 8.48,3.64 17.73,5.47 27.75,5.47zm181.43 -60.7l0 -21.6 51.4 0c11.12,0 19.69,-2.82 25.7,-8.47 6.01,-5.65 9.01,-13.3 9.01,-22.96 0,-9.12 -2.96,-16.68 -8.88,-22.69 -5.92,-6.02 -14.45,-9.01 -25.56,-9.01l-51.67 0 0 -22.42 52.49 0c12.03,0 22.51,2.32 31.44,6.97 8.92,4.65 15.81,10.98 20.64,19 4.83,8.02 7.24,17.22 7.24,27.61 0,10.75 -2.41,20.15 -7.24,28.16 -4.83,8.02 -11.72,14.26 -20.64,18.73 -8.93,4.46 -19.41,6.69 -31.44,6.69l-52.49 0zm-17.22 82.56l0 -189.72 25.69 0 0 189.72 -25.69 0zm109.35 0l-68.89 -85.02 24.33 -8.48 77.1 93.5 -32.54 0zm92.04 0l0 -189.72 25.69 0 0 189.72 -25.69 0zm89.57 0l77.64 -189.72 18.59 0 77.36 189.72 -27.88 0 -63.69 -160.47 9.57 0 -64.25 160.47 -27.34 0zm36.91 -42.92l0 -22.42 99.78 0 0 22.42 -99.78 0zm249.51 42.92l0 -189.72 25.69 0 0 189.72 -25.69 0zm17.5 0l0 -23.51 108.81 0 0 23.51 -108.81 0zm0 -85.84l0 -22.42 99.78 0 0 22.42 -99.78 0zm0 -80.38l0 -23.5 107.44 0 0 23.5 -107.44 0zm286.4 168.95c-14.94,0 -27.7,-2.73 -38.27,-8.2 -10.57,-5.47 -19.95,-13.4 -28.16,-23.79l17.5 -17.5c6.02,8.39 12.94,14.72 20.77,19 7.84,4.29 17.5,6.43 28.99,6.43 11.3,0 20.36,-2.46 27.2,-7.38 6.83,-4.92 10.25,-11.66 10.25,-20.24 0,-7.1 -1.64,-12.84 -4.92,-17.22 -3.28,-4.37 -7.7,-7.97 -13.26,-10.79 -5.56,-2.82 -11.61,-5.38 -18.18,-7.65 -6.56,-2.28 -13.12,-4.74 -19.68,-7.39 -6.56,-2.64 -12.58,-5.91 -18.05,-9.83 -5.46,-3.92 -9.88,-9.08 -13.25,-15.45 -3.38,-6.37 -5.06,-14.4 -5.06,-24.06 0,-10.75 2.6,-19.91 7.8,-27.47 5.19,-7.57 12.3,-13.4 21.32,-17.5 9.01,-4.1 19.17,-6.15 30.48,-6.15 12.39,0 23.51,2.41 33.35,7.24 9.84,4.83 17.86,11.16 24.07,18.99l-17.5 17.5c-5.66,-6.56 -11.72,-11.48 -18.18,-14.75 -6.47,-3.28 -13.89,-4.92 -22.29,-4.92 -10.2,0 -18.32,2.23 -24.33,6.69 -6.01,4.47 -9.01,10.71 -9.01,18.72 0,6.38 1.69,11.53 5.05,15.45 3.38,3.92 7.8,7.24 13.26,9.98 5.46,2.73 11.52,5.24 18.18,7.52 6.65,2.28 13.25,4.79 19.82,7.52 6.56,2.73 12.58,6.19 18.04,10.39 5.46,4.2 9.88,9.62 13.26,16.27 3.37,6.65 5.05,14.99 5.05,25.01 0,16.77 -5.78,29.9 -17.35,39.37 -11.57,9.47 -27.21,14.21 -46.89,14.21zm131.95 -2.73l0 -189.72 25.69 0 0 189.72 -25.69 0zm17.5 0l0 -23.51 108.81 0 0 23.51 -108.81 0zm0 -85.84l0 -22.42 99.78 0 0 22.42 -99.78 0zm0 -80.38l0 -23.5 107.44 0 0 23.5 -107.44 0zm194.01 83.66l0 -21.6 51.4 0c11.12,0 19.69,-2.82 25.7,-8.47 6.01,-5.65 9.01,-13.3 9.01,-22.96 0,-9.12 -2.96,-16.68 -8.88,-22.69 -5.92,-6.02 -14.45,-9.01 -25.56,-9.01l-51.67 0 0 -22.42 52.49 0c12.03,0 22.51,2.32 31.44,6.97 8.92,4.65 15.81,10.98 20.64,19 4.83,8.02 7.24,17.22 7.24,27.61 0,10.75 -2.41,20.15 -7.24,28.16 -4.83,8.02 -11.72,14.26 -20.64,18.73 -8.93,4.46 -19.41,6.69 -31.44,6.69l-52.49 0zm-17.22 82.56l0 -189.72 25.69 0 0 189.72 -25.69 0zm109.35 0l-68.89 -85.02 24.33 -8.48 77.1 93.5 -32.54 0zm146.99 0l-76 -189.72 27.88 0 62.61 160.47 -10.12 0 63.15 -160.47 27.62 0 -76.55 189.72 -18.59 0zm159.01 0l0 -189.72 25.69 0 0 189.72 -25.69 0zm189.63 2.73c-13.67,0 -26.34,-2.51 -38,-7.52 -11.66,-5 -21.82,-11.98 -30.48,-20.9 -8.66,-8.93 -15.35,-19.33 -20.1,-31.17 -4.74,-11.85 -7.1,-24.52 -7.1,-38 0,-13.67 2.36,-26.43 7.1,-38.28 4.75,-11.84 11.44,-22.18 20.1,-31.02 8.66,-8.84 18.78,-15.77 30.35,-20.78 11.57,-5.01 24.19,-7.51 37.86,-7.51 14.95,0 28.07,2.55 39.37,7.65 11.3,5.1 21.32,12.02 30.07,20.77l-17.77 17.77c-6.02,-6.74 -13.35,-12.03 -22.01,-15.86 -8.66,-3.83 -18.54,-5.74 -29.66,-5.74 -10.02,0 -19.23,1.78 -27.61,5.33 -8.39,3.55 -15.68,8.62 -21.88,15.17 -6.19,6.56 -10.98,14.3 -14.35,23.24 -3.38,8.93 -5.06,18.68 -5.06,29.25 0,10.57 1.69,20.32 5.06,29.25 3.37,8.92 8.15,16.67 14.35,23.24 6.2,6.56 13.49,11.61 21.88,15.17 8.38,3.55 17.59,5.33 27.61,5.33 11.85,0 22.14,-1.96 30.89,-5.88 8.75,-3.92 16.14,-9.25 22.15,-15.99l17.76 17.5c-8.75,9.12 -19,16.22 -30.75,21.32 -11.76,5.11 -25.02,7.65 -39.78,7.65zm-9.84 54.4c-6.37,0 -12.11,-0.87 -17.22,-2.6 -5.11,-1.73 -10.03,-4.14 -14.76,-7.24l11.21 -13.39c2.18,2.19 4.87,3.92 8.06,5.2 3.19,1.27 6.88,1.91 11.07,1.91 5.46,0 9.47,-0.82 12.02,-2.47 2.56,-1.64 3.84,-3.73 3.84,-6.28 0,-2.56 -1.28,-4.74 -3.84,-6.57 -2.55,-1.82 -6.37,-2.73 -11.48,-2.73l-12.02 0 8.47 -26.51 18.59 0 -6.29 19.68 -9.01 -7.38c11.11,-0.37 19.99,1.78 26.65,6.43 6.65,4.65 9.98,10.52 9.98,17.63 0,7.11 -3.19,12.94 -9.57,17.5 -6.38,4.55 -14.95,6.83 -25.7,6.83zm223.54 -54.4c-13.49,0 -26.06,-2.51 -37.73,-7.52 -11.66,-5 -21.88,-12.02 -30.62,-21.05 -8.75,-9.02 -15.53,-19.45 -20.36,-31.3 -4.83,-11.85 -7.24,-24.52 -7.24,-38 0,-13.67 2.41,-26.38 7.24,-38.13 4.83,-11.76 11.57,-22.1 20.23,-31.03 8.66,-8.92 18.78,-15.85 30.35,-20.77 11.57,-4.92 24.1,-7.38 37.58,-7.38 13.49,0 26.02,2.46 37.59,7.38 11.57,4.92 21.73,11.85 30.48,20.77 8.75,8.93 15.58,19.33 20.5,31.17 4.92,11.85 7.38,24.61 7.38,38.28 0,13.49 -2.46,26.15 -7.38,38 -4.92,11.84 -11.71,22.23 -20.37,31.17 -8.66,8.92 -18.77,15.9 -30.34,20.9 -11.57,5.01 -24.01,7.52 -37.32,7.52zm-0.55 -24.6c13.67,0 25.65,-3.15 35.96,-9.43 10.29,-6.29 18.45,-14.95 24.46,-25.97 6.02,-11.03 9.02,-23.66 9.02,-37.87 0,-10.57 -1.74,-20.27 -5.2,-29.11 -3.46,-8.84 -8.29,-16.55 -14.49,-23.1 -6.2,-6.56 -13.49,-11.62 -21.87,-15.17 -8.39,-3.55 -17.68,-5.33 -27.89,-5.33 -13.49,0 -25.38,3.1 -35.67,9.3 -10.3,6.19 -18.41,14.75 -24.33,25.69 -5.92,10.94 -8.89,23.51 -8.89,37.73 0,10.57 1.69,20.37 5.06,29.39 3.37,9.02 8.1,16.77 14.21,23.24 6.11,6.48 13.39,11.53 21.87,15.17 8.48,3.64 17.73,5.47 27.75,5.47zm211.77 24.6c-14.94,0 -27.7,-2.73 -38.27,-8.2 -10.57,-5.47 -19.95,-13.4 -28.16,-23.79l17.5 -17.5c6.02,8.39 12.94,14.72 20.77,19 7.84,4.29 17.5,6.43 28.99,6.43 11.3,0 20.36,-2.46 27.2,-7.38 6.83,-4.92 10.25,-11.66 10.25,-20.24 0,-7.1 -1.64,-12.84 -4.92,-17.22 -3.28,-4.37 -7.7,-7.97 -13.26,-10.79 -5.56,-2.82 -11.61,-5.38 -18.18,-7.65 -6.56,-2.28 -13.12,-4.74 -19.68,-7.39 -6.56,-2.64 -12.58,-5.91 -18.05,-9.83 -5.46,-3.92 -9.88,-9.08 -13.25,-15.45 -3.38,-6.37 -5.06,-14.4 -5.06,-24.06 0,-10.75 2.6,-19.91 7.8,-27.47 5.19,-7.57 12.3,-13.4 21.32,-17.5 9.01,-4.1 19.17,-6.15 30.48,-6.15 12.39,0 23.51,2.41 33.35,7.24 9.84,4.83 17.86,11.16 24.07,18.99l-17.5 17.5c-5.66,-6.56 -11.72,-11.48 -18.18,-14.75 -6.47,-3.28 -13.89,-4.92 -22.29,-4.92 -10.2,0 -18.32,2.23 -24.33,6.69 -6.01,4.47 -9.01,10.71 -9.01,18.72 0,6.38 1.69,11.53 5.05,15.45 3.38,3.92 7.8,7.24 13.26,9.98 5.46,2.73 11.52,5.24 18.18,7.52 6.65,2.28 13.25,4.79 19.82,7.52 6.56,2.73 12.58,6.19 18.04,10.39 5.46,4.2 9.88,9.62 13.26,16.27 3.37,6.65 5.05,14.99 5.05,25.01 0,16.77 -5.78,29.9 -17.35,39.37 -11.57,9.47 -27.21,14.21 -46.89,14.21z"/>
  <path class="fil1" d="M1014.22 0c268.4,0 511.44,108.81 687.33,284.7 175.9,175.89 284.7,418.93 284.7,687.33 0,268.4 -108.81,511.45 -284.7,687.34 -175.9,175.9 -418.93,284.7 -687.33,284.7 -268.41,0 -511.44,-108.81 -687.34,-284.7 -175.9,-175.89 -284.7,-418.94 -284.7,-687.34 0,-268.4 108.81,-511.44 284.7,-687.33 175.89,-175.9 418.93,-284.7 687.34,-284.7zm651.15 320.88c-166.64,-166.65 -396.87,-269.72 -651.15,-269.72 -254.29,0 -484.52,103.08 -651.16,269.72 -166.65,166.64 -269.72,396.87 -269.72,651.15 0,254.28 103.08,484.52 269.72,651.16 166.64,166.64 396.87,269.72 651.16,269.72 254.28,0 484.51,-103.09 651.15,-269.72 166.65,-166.64 269.72,-396.88 269.72,-651.16 0,-254.28 -103.08,-484.51 -269.72,-651.15z"/>
  <g id="_3063144154608">
   <path class="fil2" d="M1370.52 1326.2l-448.39 0c-205.92,0 -374.46,-168.55 -374.46,-374.47 0,-205.93 168.54,-374.46 374.46,-374.46l426.21 0 0 78.02 -426.21 0c-163.07,0 -296.43,133.37 -296.43,296.44 0,163.08 133.36,296.43 296.43,296.43l448.39 0 0 78.04z"/>
   <path class="fil2" d="M1075.65 1105.26l-153.53 0c-84.4,0 -153.52,-69.12 -153.52,-153.53 0,-84.4 69.12,-153.52 153.52,-153.52l574.89 0 0 78.03 -574.89 0c-41.56,0 -75.48,33.93 -75.48,75.49 0,41.56 33.93,75.5 75.48,75.5l153.53 0 0 78.03z"/>
   <polygon class="fil2" points="1412.51,1105.26 1412.51,1027.24 1496.29,1027.24 1496.29,1105.26 "/>
   <polygon class="fil2" points="1142.15,1105.26 1142.15,1027.24 1342.16,1027.24 1342.16,1105.26 "/>
   <path class="fil2" d="M1484.56 1547.14l-562.44 0c-327.44,0 -595.41,-267.95 -595.41,-595.41 0,-327.44 267.96,-595.4 595.41,-595.4l201.75 0 0 78.03 -201.75 0c-284.59,0 -517.38,232.78 -517.38,517.37 0,284.59 232.79,517.38 517.38,517.38l562.44 0 0 78.03z"/>
  </g>
  <path class="fil1" d="M2719.13 907.64l56.77 42.04c-25.93,49.23 -61.67,87.24 -106.86,113.7 -45.02,26.45 -96.35,39.76 -153.99,39.76 -84.78,0 -154.86,-28.03 -210.22,-83.91 -55.18,-55.89 -82.86,-126.84 -82.86,-212.84 0,-86.19 27.68,-157.32 83.03,-213.2 55.53,-55.88 125.43,-83.91 209.87,-83.91 52.38,0 100.21,11.39 143.3,34.34 43.1,22.95 78.13,55.71 105.11,98.1l-59.04 42.04c-17.69,-33.81 -43.44,-60.44 -76.9,-79.53 -33.46,-19.09 -70.95,-28.73 -112.3,-28.73 -63.59,0 -116.32,21.9 -158.01,65.53 -41.7,43.62 -62.54,98.8 -62.54,165.37 0,66.74 20.84,121.92 62.54,165.37 41.7,43.44 94.42,65.17 158.01,65.17 44.5,0 83.91,-11.03 118.42,-32.93 34.51,-21.91 63.07,-53.96 85.66,-96.35zm430.95 129.28c63.59,0 116.33,-21.72 158.2,-65.17 41.7,-43.44 62.54,-98.63 62.54,-165.37 0,-66.92 -20.84,-122.28 -62.36,-165.73 -41.52,-43.44 -94.42,-65.17 -158.37,-65.17 -63.59,0 -116.32,21.9 -158.19,65.53 -41.7,43.62 -62.54,98.8 -62.54,165.37 0,66.74 20.84,121.92 62.54,165.37 41.87,43.44 94.59,65.17 158.19,65.17zm-0.17 66.22c-84.96,0 -155.03,-28.03 -210.22,-83.91 -55.18,-55.89 -82.86,-126.84 -82.86,-212.84 0,-86.19 27.68,-157.32 83.21,-213.2 55.35,-55.88 125.26,-83.91 209.87,-83.91 84.79,0 155.04,28.04 210.92,84.27 55.71,56.05 83.56,127.01 83.56,212.84 0,86.01 -27.85,156.96 -83.39,212.84 -55.53,55.89 -125.96,83.91 -211.1,83.91zm418.34 -14.71l0 -566.54 36.96 0 367.72 423.42 0 -423.42 70.42 0 0 566.54 -35.9 0 -368.76 -423.42 0 423.42 -70.43 0zm742.95 0l0 -501.38 -238.6 0 0 -65.17 547.62 0 0 65.17 -238.6 0 0 501.38 -70.43 0zm379.62 -218.63l249.46 0 -125.26 -250.87 -124.21 250.87zm-182.71 218.63l277.66 -566.54 58.52 0 280.82 566.54 -76.56 0 -76.9 -152.4 -313.06 0 -74.98 152.4 -75.5 0zm1154.97 -180.79l56.77 42.04c-25.93,49.23 -61.67,87.24 -106.86,113.7 -45.02,26.45 -96.35,39.76 -153.99,39.76 -84.78,0 -154.86,-28.03 -210.22,-83.91 -55.18,-55.89 -82.86,-126.84 -82.86,-212.84 0,-86.19 27.68,-157.32 83.03,-213.2 55.53,-55.88 125.43,-83.91 209.87,-83.91 52.38,0 100.21,11.39 143.3,34.34 43.1,22.95 78.13,55.71 105.11,98.1l-59.04 42.04c-17.69,-33.81 -43.44,-60.44 -76.9,-79.53 -33.46,-19.09 -70.95,-28.73 -112.3,-28.73 -63.59,0 -116.32,21.9 -158.01,65.53 -41.7,43.62 -62.54,98.8 -62.54,165.37 0,66.74 20.84,121.92 62.54,165.37 41.7,43.44 94.42,65.17 158.01,65.17 44.5,0 83.91,-11.03 118.42,-32.93 34.51,-21.91 63.07,-53.96 85.66,-96.35zm281.7 180.79l0 -501.38 -238.6 0 0 -65.17 547.62 0 0 65.17 -238.6 0 0 501.38 -70.43 0z"/>
 </g>
</svg>
