<?xml version="1.0" encoding="UTF-8"?>
<!DOCTYPE svg PUBLIC "-//W3C//DTD SVG 1.1//EN" "http://www.w3.org/Graphics/SVG/1.1/DTD/svg11.dtd">
<!-- Creator: CorelDRAW 2018 (64-Bit Evaluation Version) -->
<svg xmlns="http://www.w3.org/2000/svg" xml:space="preserve" width="44.6354mm" height="15.7501mm" version="1.1" style="shape-rendering:geometricPrecision; text-rendering:geometricPrecision; image-rendering:optimizeQuality; fill-rule:evenodd; clip-rule:evenodd"
viewBox="0 0 1777.51 627.21"
 xmlns:xlink="http://www.w3.org/1999/xlink">
 <defs>
  <style type="text/css">
   <![CDATA[
    .fil0 {fill:none}
    .fil2 {fill:#373435}
    .fil1 {fill:#373435;fill-rule:nonzero}
   ]]>
  </style>
 </defs>
 <g id="Layer_x0020_1">
  <metadata id="CorelCorpID_0Corel-Layer"/>
  <rect class="fil0" x="0" y="-0" width="1777.51" height="627.21"/>
  <path class="fil1" d="M339.26 264.22c0,-21.76 4.91,-41.25 14.74,-58.47 9.82,-17.22 23.24,-30.63 40.25,-40.25 17.01,-9.61 36.08,-14.42 57.21,-14.42 24.72,0 46.37,6.34 64.97,19.02 18.59,12.68 31.58,30.21 38.98,52.61l-51.03 0c-5.07,-10.57 -12.2,-18.49 -21.39,-23.77 -9.19,-5.28 -19.81,-7.92 -31.85,-7.92 -12.89,0 -24.35,3.01 -34.38,9.03 -10.04,6.02 -17.85,14.52 -23.45,25.51 -5.6,10.99 -8.4,23.87 -8.4,38.66 0,14.58 2.8,27.41 8.4,38.5 5.6,11.09 13.42,19.65 23.45,25.67 10.04,6.02 21.5,9.03 34.38,9.03 12.04,0 22.66,-2.69 31.85,-8.08 9.19,-5.39 16.32,-13.36 21.39,-23.93l51.03 0c-7.4,22.61 -20.34,40.2 -38.82,52.77 -18.49,12.57 -40.19,18.86 -65.12,18.86 -21.13,0 -40.2,-4.8 -57.21,-14.42 -17,-9.61 -30.42,-22.98 -40.25,-40.09 -9.82,-17.12 -14.74,-36.55 -14.74,-58.31zm317.85 113.77c-16.9,0 -32.11,-3.75 -45.64,-11.25 -13.52,-7.5 -24.14,-18.12 -31.85,-31.85 -7.71,-13.73 -11.56,-29.58 -11.56,-47.54 0,-17.96 3.96,-33.8 11.88,-47.54 7.92,-13.73 18.75,-24.35 32.48,-31.85 13.73,-7.5 29.05,-11.25 45.95,-11.25 16.9,0 32.22,3.75 45.95,11.25 13.73,7.5 24.56,18.12 32.48,31.85 7.92,13.73 11.88,29.58 11.88,47.54 0,17.96 -4.07,33.81 -12.2,47.54 -8.13,13.73 -19.12,24.35 -32.96,31.85 -13.84,7.5 -29.31,11.25 -46.43,11.25zm0 -38.66c8.03,0 15.58,-1.95 22.66,-5.86 7.08,-3.91 12.73,-9.77 16.95,-17.59 4.23,-7.82 6.34,-17.33 6.34,-28.53 0,-16.69 -4.38,-29.52 -13.15,-38.5 -8.77,-8.98 -19.49,-13.47 -32.16,-13.47 -12.68,0 -23.29,4.49 -31.85,13.47 -8.56,8.98 -12.83,21.81 -12.83,38.5 0,16.69 4.17,29.53 12.52,38.5 8.35,8.98 18.86,13.47 31.54,13.47zm207.24 -142.29c20.91,0 37.82,6.6 50.71,19.81 12.89,13.21 19.33,31.64 19.33,55.3l0 102.99 -44.37 0 0 -96.97c0,-13.95 -3.48,-24.67 -10.46,-32.17 -6.97,-7.5 -16.48,-11.25 -28.52,-11.25 -12.25,0 -21.92,3.75 -29,11.25 -7.08,7.5 -10.62,18.22 -10.62,32.17l0 96.97 -44.37 0 0 -175.57 44.37 0 0 21.87c5.92,-7.61 13.47,-13.58 22.66,-17.91 9.19,-4.33 19.28,-6.5 30.27,-6.5zm149.57 38.98l0 84.93c0,5.91 1.43,10.19 4.28,12.83 2.85,2.64 7.66,3.96 14.42,3.96l20.6 0 0 37.39 -27.89 0c-37.39,0 -56.09,-18.17 -56.09,-54.51l0 -84.62 -20.92 0 0 -36.44 20.92 0 0 -43.42 44.69 0 0 43.42 39.29 0 0 36.44 -39.29 0zm45.62 50.71c0,-17.75 3.54,-33.49 10.62,-47.22 7.08,-13.73 16.69,-24.3 28.84,-31.69 12.15,-7.4 25.72,-11.09 40.72,-11.09 13.1,0 24.56,2.64 34.38,7.92 9.82,5.28 17.7,11.93 23.61,19.97l0 -25.04 44.69 0 0 175.57 -44.69 0 0 -25.67c-5.7,8.24 -13.58,15.05 -23.61,20.44 -10.04,5.39 -21.6,8.08 -34.7,8.08 -14.79,0 -28.26,-3.8 -40.4,-11.41 -12.15,-7.61 -21.76,-18.33 -28.84,-32.16 -7.08,-13.84 -10.62,-29.74 -10.62,-47.7zm138.17 0.63c0,-10.77 -2.11,-20.01 -6.34,-27.73 -4.23,-7.71 -9.93,-13.63 -17.11,-17.75 -7.18,-4.12 -14.89,-6.18 -23.13,-6.18 -8.24,0 -15.85,2.01 -22.82,6.02 -6.97,4.01 -12.62,9.88 -16.96,17.59 -4.33,7.71 -6.5,16.85 -6.5,27.41 0,10.57 2.17,19.81 6.5,27.73 4.33,7.92 10.04,14 17.12,18.22 7.08,4.23 14.63,6.34 22.66,6.34 8.24,0 15.95,-2.06 23.13,-6.18 7.18,-4.12 12.89,-10.04 17.11,-17.75 4.23,-7.71 6.34,-16.96 6.34,-27.73zm62.41 0c0,-18.17 3.7,-34.07 11.09,-47.69 7.4,-13.63 17.64,-24.19 30.74,-31.69 13.1,-7.5 28.1,-11.25 45,-11.25 21.76,0 39.77,5.44 54.03,16.32 14.26,10.88 23.82,26.14 28.68,45.79l-47.85 0c-2.54,-7.61 -6.81,-13.58 -12.83,-17.9 -6.02,-4.33 -13.47,-6.5 -22.34,-6.5 -12.68,0 -22.71,4.6 -30.11,13.79 -7.39,9.19 -11.09,22.24 -11.09,39.14 0,16.69 3.7,29.63 11.09,38.82 7.4,9.19 17.43,13.79 30.11,13.79 17.96,0 29.68,-8.03 35.18,-24.08l47.85 0c-4.86,19.01 -14.47,34.12 -28.84,45.31 -14.37,11.2 -32.33,16.8 -53.88,16.8 -16.9,0 -31.9,-3.75 -45,-11.25 -13.1,-7.5 -23.35,-18.06 -30.74,-31.69 -7.39,-13.63 -11.09,-29.52 -11.09,-47.7zm239.57 -51.34l0 84.93c0,5.91 1.43,10.19 4.28,12.83 2.85,2.64 7.66,3.96 14.42,3.96l20.6 0 0 37.39 -27.89 0c-37.39,0 -56.09,-18.17 -56.09,-54.51l0 -84.62 -20.92 0 0 -36.44 20.92 0 0 -43.42 44.69 0 0 43.42 39.29 0 0 36.44 -39.29 0z"/>
  <path class="fil1" d="M805.49 476.13c-6.24,0 -11.68,-0.97 -16.3,-2.9 -4.63,-1.93 -8.46,-4.6 -11.48,-8.01 -3.02,-3.41 -5.27,-7.36 -6.77,-11.85 -1.49,-4.5 -2.23,-9.3 -2.23,-14.42 0,-3.97 0.45,-7.78 1.37,-11.44 0.92,-3.66 2.34,-7.03 4.27,-10.12 1.93,-3.09 4.37,-5.77 7.33,-8.06 2.97,-2.29 6.5,-4.07 10.62,-5.34 4.11,-1.27 8.83,-1.91 14.16,-1.91 5.09,0 9.76,0.65 14.01,1.93 4.25,1.29 7.98,3.31 11.18,6.08 3.2,2.76 5.75,6.35 7.66,10.76l-7.34 2.8c-0.91,-2.92 -2.27,-5.36 -4.08,-7.32 -1.81,-1.97 -3.9,-3.54 -6.29,-4.7 -2.39,-1.17 -4.92,-2.01 -7.61,-2.52 -2.68,-0.51 -5.36,-0.76 -8.02,-0.76 -4.25,0 -8,0.54 -11.24,1.63 -3.24,1.08 -6,2.59 -8.29,4.52 -2.29,1.93 -4.15,4.19 -5.6,6.76 -1.45,2.58 -2.51,5.37 -3.19,8.37 -0.68,3 -1.02,6.11 -1.02,9.33 0,4.07 0.55,7.96 1.64,11.67 1.1,3.71 2.82,7.02 5.18,9.92 2.37,2.9 5.42,5.18 9.18,6.86 3.76,1.68 8.28,2.52 13.56,2.52 3.62,0 7.1,-0.49 10.43,-1.45 3.34,-0.97 6.34,-2.58 9,-4.83 2.66,-2.25 4.81,-5.31 6.44,-9.18l7.34 2.85c-3.1,5.97 -7.51,10.59 -13.24,13.88 -5.73,3.29 -12.62,4.93 -20.69,4.93zm72.74 0c-4.09,0 -7.82,-0.7 -11.18,-2.09 -3.36,-1.39 -6.26,-3.3 -8.71,-5.74 -2.45,-2.44 -4.32,-5.26 -5.63,-8.47 -1.31,-3.2 -1.97,-6.62 -1.97,-10.25 0,-3.62 0.65,-7.02 1.97,-10.19 1.31,-3.17 3.19,-5.97 5.63,-8.39 2.44,-2.43 5.34,-4.32 8.71,-5.69 3.36,-1.37 7.08,-2.06 11.18,-2.06 4.09,0 7.84,0.69 11.24,2.06 3.4,1.37 6.34,3.27 8.82,5.69 2.48,2.42 4.4,5.22 5.76,8.39 1.35,3.17 2.02,6.57 2.02,10.19 0,3.63 -0.67,7.04 -2.02,10.25 -1.35,3.21 -3.27,6.03 -5.76,8.47 -2.48,2.44 -5.42,4.35 -8.82,5.74 -3.4,1.39 -7.15,2.09 -11.24,2.09zm0.12 -5.18c3.5,0 6.52,-0.61 9.06,-1.83 2.54,-1.22 4.64,-2.86 6.29,-4.91 1.65,-2.05 2.88,-4.34 3.7,-6.87 0.82,-2.52 1.22,-5.11 1.22,-7.76 0,-2.64 -0.4,-5.23 -1.19,-7.75 -0.8,-2.53 -2.03,-4.8 -3.7,-6.81 -1.67,-2.02 -3.77,-3.62 -6.29,-4.81 -2.52,-1.19 -5.52,-1.78 -8.98,-1.78 -3.46,0 -6.46,0.59 -9,1.78 -2.54,1.19 -4.65,2.79 -6.32,4.81 -1.67,2.02 -2.92,4.28 -3.73,6.81 -0.82,2.52 -1.23,5.11 -1.23,7.75 0,2.68 0.41,5.29 1.23,7.83 0.81,2.54 2.05,4.83 3.73,6.87 1.67,2.03 3.76,3.65 6.29,4.85 2.52,1.2 5.5,1.81 8.92,1.81zm43.7 4.17l0 -50.8 7.45 0 0 9.56c1.87,-3.08 4.44,-5.6 7.73,-7.52 3.28,-1.93 7.26,-2.9 11.95,-2.9 3.46,0 6.42,0.54 8.88,1.62 2.47,1.09 4.48,2.59 6.05,4.5 1.57,1.92 2.72,4.12 3.46,6.61 0.74,2.49 1.1,5.17 1.1,8.01l0 30.92 -7.45 0 0 -30.41c0,-1.77 -0.21,-3.58 -0.63,-5.44 -0.42,-1.86 -1.14,-3.6 -2.17,-5.21 -1.04,-1.61 -2.45,-2.91 -4.26,-3.89 -1.81,-0.98 -4.13,-1.47 -6.95,-1.47 -3.22,0 -6.17,0.76 -8.85,2.29 -2.68,1.53 -4.83,3.8 -6.44,6.81 -1.61,3.02 -2.42,6.78 -2.42,11.29l0 26.04 -7.45 0zm81.45 1.02c-3.42,0 -6.09,-0.6 -8.02,-1.8 -1.93,-1.21 -3.29,-2.88 -4.09,-5.03 -0.8,-2.15 -1.19,-4.66 -1.19,-7.5l0 -32.29 -9.54 0 0 -5.18 9.54 0 0 -11.19 7.45 -6.66 0 17.85 15.14 0 0 5.18 -15.14 0 0 32.9c0,2.88 0.74,5.05 2.21,6.48 1.47,1.44 3.34,2.16 5.6,2.16 0.88,0 1.76,-0.1 2.66,-0.3 0.89,-0.21 1.8,-0.48 2.71,-0.81l0 5.28c-0.52,0.2 -1.42,0.41 -2.71,0.61 -1.29,0.21 -2.83,0.31 -4.62,0.31zm36.85 0c-3.66,0 -6.9,-0.59 -9.72,-1.75 -2.82,-1.17 -5.04,-2.86 -6.65,-5.06 -1.61,-2.2 -2.42,-4.85 -2.42,-7.93 0,-10 8.94,-15 26.83,-15l13.24 0c0,-3.46 -0.47,-6.51 -1.43,-9.16 -0.96,-2.64 -2.56,-4.71 -4.8,-6.2 -2.25,-1.49 -5.29,-2.24 -9.15,-2.24 -2.98,0 -5.58,0.42 -7.78,1.25 -2.21,0.83 -4.07,1.84 -5.58,3.03 -1.51,1.19 -2.76,2.36 -3.76,3.51l-5.37 -3.61c2.62,-3.12 5.74,-5.52 9.36,-7.2 3.62,-1.68 7.77,-2.52 12.46,-2.52 4.97,0 9.14,0.86 12.52,2.57 3.38,1.72 5.92,4.12 7.63,7.22 1.71,3.1 2.56,6.72 2.56,10.86l0 31.23 -6.44 0 0 -10.43c-1.39,2.64 -3.21,4.81 -5.46,6.48 -2.24,1.68 -4.75,2.92 -7.51,3.74 -2.77,0.81 -5.62,1.22 -8.56,1.22zm0.77 -5.39c3.3,0 6.22,-0.59 8.77,-1.78 2.54,-1.19 4.68,-2.74 6.44,-4.68 1.75,-1.93 3.07,-4.03 3.97,-6.28 0.9,-2.25 1.34,-4.47 1.34,-6.64l-12.34 0c-6.52,0 -11.47,0.73 -14.85,2.19 -3.38,1.46 -5.07,4.1 -5.07,7.93 0,2.24 0.54,4.03 1.61,5.39 1.07,1.35 2.5,2.34 4.29,2.95 1.79,0.61 3.74,0.92 5.84,0.92zm72.86 5.39c-4.61,0 -8.45,-0.79 -11.51,-2.36 -3.06,-1.58 -5.53,-3.59 -7.39,-6.03l0 7.38 -7.34 0 0 -71.86 7.34 0 0 28.43c1.86,-2.41 4.33,-4.41 7.39,-6.03 3.06,-1.61 6.9,-2.42 11.51,-2.42 3.82,0 7.19,0.69 10.13,2.06 2.94,1.37 5.41,3.27 7.4,5.69 1.99,2.42 3.5,5.24 4.53,8.44 1.03,3.2 1.55,6.62 1.55,10.25 0,3.66 -0.52,7.09 -1.55,10.27 -1.04,3.19 -2.54,5.99 -4.53,8.42 -1.99,2.42 -4.45,4.32 -7.4,5.69 -2.94,1.37 -6.32,2.06 -10.13,2.06zm-1.91 -5.18c3.1,0 5.79,-0.59 8.08,-1.78 2.28,-1.19 4.16,-2.79 5.63,-4.81 1.47,-2.02 2.56,-4.29 3.28,-6.81 0.72,-2.53 1.07,-5.15 1.07,-7.86 0,-2.68 -0.35,-5.28 -1.07,-7.81 -0.72,-2.53 -1.81,-4.81 -3.28,-6.84 -1.47,-2.03 -3.35,-3.64 -5.63,-4.83 -2.29,-1.19 -4.98,-1.78 -8.08,-1.78 -3.1,0 -5.77,0.59 -7.99,1.78 -2.23,1.19 -4.04,2.8 -5.45,4.83 -1.41,2.03 -2.46,4.31 -3.13,6.84 -0.68,2.52 -1.02,5.13 -1.02,7.81 0,2.71 0.34,5.33 1.02,7.86 0.67,2.52 1.72,4.79 3.13,6.81 1.41,2.02 3.23,3.62 5.45,4.81 2.23,1.19 4.89,1.78 7.99,1.78zm41.5 -58.33l0 -9.36 8.88 0 0 9.36 -8.88 0zm0.72 62.5l0 -50.8 7.45 0 0 50.8 -7.45 0zm37.15 1.02c-2.39,0 -4.2,-0.33 -5.46,-0.99 -1.25,-0.66 -2.12,-1.54 -2.6,-2.64 -0.47,-1.1 -0.74,-2.32 -0.8,-3.66 -0.06,-1.34 -0.09,-2.69 -0.09,-4.04l0 -61.53 7.57 0 0 64.68c0,-0.33 -0.01,-0.39 -0.03,-0.18 -0.02,0.22 0.02,0.56 0.12,1.02 0.1,0.46 0.32,0.88 0.68,1.27 0.36,0.39 0.92,0.59 1.67,0.59 1.23,0 2.43,-0.06 3.58,-0.18 1.15,-0.12 2.03,-0.23 2.62,-0.33l0 4.99c-0.76,0.24 -1.79,0.47 -3.1,0.68 -1.31,0.22 -2.7,0.33 -4.17,0.33zm20.63 -63.51l0 -9.36 8.88 0 0 9.36 -8.88 0zm0.71 62.5l0 -50.8 7.45 0 0 50.8 -7.45 0zm66.66 -71.86l7.45 0 0 71.86 -7.45 0 0 -7.43c-1.31,1.6 -2.83,3.03 -4.56,4.3 -1.73,1.27 -3.77,2.28 -6.11,3.02 -2.35,0.74 -5.13,1.12 -8.35,1.12 -3.74,0 -7.06,-0.68 -9.96,-2.06 -2.9,-1.37 -5.36,-3.27 -7.37,-5.69 -2.01,-2.43 -3.54,-5.23 -4.59,-8.42 -1.06,-3.18 -1.58,-6.61 -1.58,-10.27 0,-3.66 0.53,-7.1 1.58,-10.3 1.05,-3.2 2.58,-6.01 4.59,-8.41 2.01,-2.41 4.46,-4.3 7.37,-5.67 2.9,-1.37 6.22,-2.06 9.96,-2.06 4.61,0 8.45,0.78 11.51,2.34 3.06,1.56 5.56,3.59 7.51,6.1l0 -28.43zm-17.11 67.69c3.18,0 5.89,-0.59 8.14,-1.78 2.25,-1.19 4.07,-2.79 5.49,-4.81 1.41,-2.02 2.44,-4.29 3.1,-6.81 0.66,-2.53 0.98,-5.15 0.98,-7.86 0,-2.68 -0.33,-5.28 -0.98,-7.81 -0.66,-2.53 -1.69,-4.81 -3.1,-6.84 -1.41,-2.03 -3.24,-3.64 -5.49,-4.83 -2.25,-1.19 -4.96,-1.78 -8.14,-1.78 -3.1,0 -5.76,0.59 -7.99,1.78 -2.23,1.19 -4.07,2.8 -5.52,4.83 -1.45,2.03 -2.51,4.31 -3.19,6.84 -0.68,2.52 -1.02,5.13 -1.02,7.81 0,2.71 0.34,5.33 1.02,7.86 0.68,2.52 1.74,4.79 3.19,6.81 1.45,2.02 3.29,3.62 5.52,4.81 2.23,1.19 4.89,1.78 7.99,1.78zm58.73 5.18c-3.66,0 -6.89,-0.59 -9.72,-1.75 -2.82,-1.17 -5.04,-2.86 -6.65,-5.06 -1.61,-2.2 -2.41,-4.85 -2.41,-7.93 0,-10 8.94,-15 26.83,-15l13.24 0c0,-3.46 -0.48,-6.51 -1.43,-9.16 -0.96,-2.64 -2.56,-4.71 -4.8,-6.2 -2.25,-1.49 -5.29,-2.24 -9.15,-2.24 -2.98,0 -5.58,0.42 -7.78,1.25 -2.21,0.83 -4.07,1.84 -5.58,3.03 -1.51,1.19 -2.76,2.36 -3.76,3.51l-5.36 -3.61c2.62,-3.12 5.74,-5.52 9.36,-7.2 3.62,-1.68 7.77,-2.52 12.46,-2.52 4.97,0 9.14,0.86 12.52,2.57 3.38,1.72 5.92,4.12 7.63,7.22 1.71,3.1 2.56,6.72 2.56,10.86l0 31.23 -6.44 0 0 -10.43c-1.39,2.64 -3.21,4.81 -5.46,6.48 -2.25,1.68 -4.75,2.92 -7.51,3.74 -2.76,0.81 -5.62,1.22 -8.56,1.22zm0.78 -5.39c3.3,0 6.22,-0.59 8.77,-1.78 2.54,-1.19 4.69,-2.74 6.44,-4.68 1.75,-1.93 3.07,-4.03 3.97,-6.28 0.89,-2.25 1.34,-4.47 1.34,-6.64l-12.35 0c-6.52,0 -11.47,0.73 -14.85,2.19 -3.38,1.46 -5.07,4.1 -5.07,7.93 0,2.24 0.54,4.03 1.61,5.39 1.07,1.35 2.5,2.34 4.29,2.95 1.79,0.61 3.74,0.92 5.84,0.92zm84.85 -67.48l7.45 0 0 71.86 -7.45 0 0 -7.43c-1.31,1.6 -2.83,3.03 -4.56,4.3 -1.73,1.27 -3.77,2.28 -6.11,3.02 -2.35,0.74 -5.13,1.12 -8.35,1.12 -3.74,0 -7.06,-0.68 -9.96,-2.06 -2.9,-1.37 -5.36,-3.27 -7.36,-5.69 -2.01,-2.43 -3.54,-5.23 -4.59,-8.42 -1.06,-3.18 -1.58,-6.61 -1.58,-10.27 0,-3.66 0.53,-7.1 1.58,-10.3 1.05,-3.2 2.58,-6.01 4.59,-8.41 2.01,-2.41 4.46,-4.3 7.36,-5.67 2.9,-1.37 6.22,-2.06 9.96,-2.06 4.61,0 8.45,0.78 11.51,2.34 3.06,1.56 5.56,3.59 7.51,6.1l0 -28.43zm-17.11 67.69c3.18,0 5.89,-0.59 8.14,-1.78 2.25,-1.19 4.07,-2.79 5.48,-4.81 1.41,-2.02 2.45,-4.29 3.1,-6.81 0.66,-2.53 0.98,-5.15 0.98,-7.86 0,-2.68 -0.33,-5.28 -0.98,-7.81 -0.66,-2.53 -1.69,-4.81 -3.1,-6.84 -1.41,-2.03 -3.24,-3.64 -5.48,-4.83 -2.25,-1.19 -4.96,-1.78 -8.14,-1.78 -3.1,0 -5.76,0.59 -7.99,1.78 -2.23,1.19 -4.07,2.8 -5.52,4.83 -1.45,2.03 -2.52,4.31 -3.19,6.84 -0.68,2.52 -1.02,5.13 -1.02,7.81 0,2.71 0.34,5.33 1.02,7.86 0.67,2.52 1.74,4.79 3.19,6.81 1.45,2.02 3.29,3.62 5.52,4.81 2.23,1.19 4.89,1.78 7.99,1.78zm67.08 4.78c-4.41,0 -8.24,-0.68 -11.5,-2.03 -3.26,-1.35 -5.96,-3.23 -8.11,-5.62 -2.15,-2.39 -3.76,-5.14 -4.83,-8.24 -1.08,-3.1 -1.61,-6.38 -1.61,-9.84 0,-3.42 0.53,-6.71 1.58,-9.87 1.05,-3.15 2.63,-5.97 4.71,-8.44 2.09,-2.47 4.7,-4.43 7.84,-5.87 3.14,-1.44 6.78,-2.16 10.91,-2.16 3.78,0 7.05,0.47 9.84,1.4 2.78,0.93 5.13,2.22 7.04,3.87 1.91,1.64 3.44,3.52 4.6,5.62 1.15,2.1 1.98,4.32 2.47,6.66 0.5,2.34 0.74,4.7 0.74,7.07 0,0.55 -0.02,1.16 -0.06,1.86 -0.04,0.7 -0.1,1.28 -0.18,1.76l-41.68 0c-0.08,2.44 0.24,4.76 0.96,6.97 0.71,2.21 1.84,4.17 3.37,5.87 1.53,1.72 3.44,3.06 5.75,4.05 2.31,0.98 4.99,1.47 8.05,1.47 3.58,0 6.76,-0.37 9.54,-1.12 2.78,-0.74 5.36,-2.19 7.75,-4.32l5.13 3.35c-3.22,2.68 -6.57,4.61 -10.05,5.8 -3.48,1.19 -7.56,1.78 -12.25,1.78zm-18.24 -29.34l34.82 0c0,-2.1 -0.29,-4.18 -0.86,-6.23 -0.58,-2.05 -1.54,-3.93 -2.9,-5.65 -1.35,-1.71 -3.16,-3.07 -5.42,-4.09 -2.27,-1.02 -5.07,-1.53 -8.41,-1.53 -2.86,0 -5.36,0.47 -7.48,1.42 -2.13,0.95 -3.9,2.25 -5.31,3.89 -1.41,1.64 -2.48,3.51 -3.22,5.6 -0.74,2.09 -1.15,4.28 -1.22,6.59z"/>
  <path class="fil1" d="M1592.8 172.26c7.6,0 14.49,3.09 19.47,8.07 4.98,4.98 8.07,11.87 8.07,19.47 0,7.6 -3.09,14.49 -8.07,19.46 -4.97,4.99 -11.86,8.07 -19.47,8.07 -7.6,0 -14.48,-3.09 -19.47,-8.07 -4.98,-4.98 -8.07,-11.88 -8.07,-19.47 0,-7.6 3.09,-14.49 8.07,-19.47 4.98,-4.98 11.88,-8.07 19.47,-8.07zm17.55 10c-4.49,-4.49 -10.69,-7.26 -17.55,-7.26 -6.85,0 -13.06,2.78 -17.54,7.26 -4.49,4.49 -7.26,10.7 -7.26,17.55 0,6.85 2.78,13.06 7.26,17.54 4.48,4.48 10.69,7.26 17.55,7.26 6.85,0 13.06,-2.78 17.55,-7.26 4.48,-4.48 7.26,-10.68 7.26,-17.54 0,-6.85 -2.78,-13.06 -7.26,-17.55z"/>
  <path class="fil1" d="M1599.97 214.83l-7.16 -12.29 -4.74 0 0 12.29 -3.93 0 0 -30.05 9.7 0c2.27,0 4.19,0.38 5.76,1.16 1.57,0.77 2.74,1.82 3.52,3.15 0.78,1.32 1.16,2.83 1.16,4.52 0,2.07 -0.59,3.9 -1.79,5.48 -1.19,1.58 -2.98,2.63 -5.37,3.15l7.55 12.59 -4.7 0zm-11.9 -15.44l5.77 0c2.13,0 3.73,-0.53 4.79,-1.57 1.07,-1.05 1.6,-2.45 1.6,-4.21 0,-1.78 -0.52,-3.16 -1.57,-4.14 -1.05,-0.98 -2.65,-1.46 -4.81,-1.46l-5.77 0 0 11.38z"/>
  <g id="_2051726692640">
   <path class="fil2" d="M260.15 357.32l-111.75 0c-51.32,0 -93.33,-42.01 -93.33,-93.33 0,-51.32 42.01,-93.33 93.33,-93.33l106.22 0 0 19.45 -106.22 0c-40.64,0 -73.88,33.24 -73.88,73.88 0,40.65 33.24,73.88 73.88,73.88l111.75 0 0 19.45z"/>
   <path class="fil2" d="M186.67 302.25l-38.27 0c-21.04,0 -38.27,-17.23 -38.27,-38.27 0,-21.03 17.23,-38.26 38.27,-38.26l143.28 0 0 19.45 -143.28 0c-10.36,0 -18.82,8.46 -18.82,18.82 0,10.36 8.46,18.82 18.82,18.82l38.27 0 0 19.45z"/>
   <polygon class="fil2" points="270.62,302.25 270.62,282.81 291.5,282.81 291.5,302.25 "/>
   <polygon class="fil2" points="203.24,302.25 203.24,282.81 253.09,282.81 253.09,302.25 "/>
   <path class="fil2" d="M288.58 412.39l-140.18 0c-81.61,0 -148.4,-66.79 -148.4,-148.4 0,-81.61 66.79,-148.4 148.4,-148.4l50.28 0 0 19.45 -50.28 0c-70.93,0 -128.95,58.02 -128.95,128.95 0,70.93 58.02,128.95 128.95,128.95l140.18 0 0 19.45z"/>
  </g>
 </g>
</svg>
