<?xml version="1.0" encoding="UTF-8"?>
<!DOCTYPE svg PUBLIC "-//W3C//DTD SVG 1.1//EN" "http://www.w3.org/Graphics/SVG/1.1/DTD/svg11.dtd">
<!-- Creator: CorelDRAW 2018 (64-Bit Evaluation Version) -->
<svg xmlns="http://www.w3.org/2000/svg" xml:space="preserve" width="44.6354mm" height="15.7501mm" version="1.1" style="shape-rendering:geometricPrecision; text-rendering:geometricPrecision; image-rendering:optimizeQuality; fill-rule:evenodd; clip-rule:evenodd"
viewBox="0 0 1778.7 627.64"
 xmlns:xlink="http://www.w3.org/1999/xlink">
 <defs>
  <style type="text/css">
   <![CDATA[
    .fil1 {fill:none}
    .fil2 {fill:#727376}
    .fil0 {fill:#373435;fill-rule:nonzero}
   ]]>
  </style>
 </defs>
 <g id="Layer_x0020_1">
  <metadata id="CorelCorpID_0Corel-Layer"/>
  <path class="fil0" d="M1588.71 175.51c7.6,0 14.49,3.09 19.48,8.07 4.98,4.99 8.07,11.89 8.07,19.49 0,7.61 -3.09,14.5 -8.08,19.48 -4.98,4.99 -11.88,8.08 -19.47,8.08 -7.6,0 -14.49,-3.09 -19.48,-8.07 -4.99,-5 -8.08,-11.89 -8.08,-19.49 0,-7.6 3.09,-14.5 8.07,-19.49 4.99,-4.98 11.89,-8.07 19.49,-8.07zm5.57 42.59l-7.17 -12.3 -4.75 0 0 12.3 -3.93 0 0 -30.07 9.71 0c2.28,0 4.2,0.38 5.76,1.16 1.57,0.78 2.75,1.82 3.52,3.15 0.77,1.32 1.16,2.84 1.16,4.53 0,2.07 -0.59,3.9 -1.78,5.48 -1.2,1.59 -2.98,2.63 -5.38,3.15l7.55 12.61 -4.69 0zm-11.92 -15.45l5.78 0c2.14,0 3.73,-0.52 4.79,-1.57 1.06,-1.05 1.59,-2.45 1.59,-4.21 0,-1.79 -0.52,-3.16 -1.56,-4.14 -1.05,-0.98 -2.66,-1.47 -4.82,-1.47l-5.78 0 0 11.39zm23.9 -17.14c-4.49,-4.49 -10.7,-7.27 -17.55,-7.27 -6.86,0 -13.08,2.78 -17.56,7.27 -4.48,4.48 -7.26,10.7 -7.26,17.55 0,6.86 2.78,13.07 7.26,17.56 4.48,4.49 10.7,7.26 17.56,7.26 6.86,0 13.07,-2.78 17.55,-7.26 4.49,-4.48 7.26,-10.69 7.26,-17.56 0,-6.85 -2.77,-13.07 -7.26,-17.55z"/>
  <rect class="fil1" x="0" y="-0" width="1778.7" height="627.63"/>
  <path class="fil0" d="M408.67 473.66l18.81 -49.03 7.13 0 19.96 49.03 -7.38 0 -5.67 -14.86 -20.65 0 -5.32 14.86 -6.88 0zm14.11 -20.13l16.71 0 -5.11 -13.6c-1.54,-4.13 -2.7,-7.54 -3.51,-10.24 -0.67,3.2 -1.57,6.34 -2.71,9.44l-5.38 14.39zm45.86 4.38l6.09 -0.55c0.29,2.47 0.96,4.49 2.02,6.07 1.06,1.57 2.71,2.85 4.93,3.83 2.23,0.97 4.74,1.46 7.52,1.46 2.47,0 4.65,-0.37 6.55,-1.11 1.89,-0.74 3.3,-1.76 4.22,-3.05 0.92,-1.29 1.39,-2.69 1.39,-4.2 0,-1.53 -0.45,-2.87 -1.33,-4.02 -0.89,-1.14 -2.36,-2.1 -4.42,-2.89 -1.31,-0.5 -4.22,-1.3 -8.73,-2.38 -4.51,-1.08 -7.66,-2.1 -9.46,-3.06 -2.34,-1.23 -4.08,-2.76 -5.22,-4.57 -1.15,-1.82 -1.72,-3.86 -1.72,-6.11 0,-2.49 0.71,-4.81 2.11,-6.95 1.41,-2.16 3.45,-3.79 6.15,-4.91 2.69,-1.12 5.69,-1.68 8.99,-1.68 3.63,0 6.84,0.58 9.61,1.76 2.77,1.17 4.91,2.89 6.4,5.17 1.49,2.27 2.29,4.85 2.41,7.73l-6.23 0.48c-0.33,-3.09 -1.46,-5.43 -3.39,-7.01 -1.93,-1.59 -4.78,-2.38 -8.55,-2.38 -3.93,0 -6.79,0.72 -8.58,2.16 -1.79,1.44 -2.69,3.17 -2.69,5.2 0,1.76 0.64,3.21 1.91,4.35 1.26,1.13 4.51,2.31 9.78,3.49 5.27,1.2 8.89,2.24 10.86,3.13 2.84,1.31 4.95,2.96 6.31,4.99 1.36,2.01 2.03,4.33 2.03,6.95 0,2.61 -0.74,5.05 -2.24,7.36 -1.49,2.31 -3.63,4.1 -6.42,5.38 -2.8,1.28 -5.93,1.92 -9.44,1.92 -4.43,0 -8.14,-0.65 -11.13,-1.94 -3,-1.29 -5.34,-3.23 -7.05,-5.83 -1.71,-2.59 -2.6,-5.53 -2.69,-8.8zm56.71 0l6.09 -0.55c0.29,2.47 0.96,4.49 2.02,6.07 1.06,1.57 2.71,2.85 4.93,3.83 2.23,0.97 4.74,1.46 7.52,1.46 2.47,0 4.65,-0.37 6.55,-1.11 1.89,-0.74 3.3,-1.76 4.22,-3.05 0.92,-1.29 1.39,-2.69 1.39,-4.2 0,-1.53 -0.45,-2.87 -1.33,-4.02 -0.89,-1.14 -2.36,-2.1 -4.42,-2.89 -1.31,-0.5 -4.22,-1.3 -8.73,-2.38 -4.51,-1.08 -7.66,-2.1 -9.46,-3.06 -2.34,-1.23 -4.08,-2.76 -5.22,-4.57 -1.15,-1.82 -1.72,-3.86 -1.72,-6.11 0,-2.49 0.71,-4.81 2.11,-6.95 1.41,-2.16 3.45,-3.79 6.15,-4.91 2.69,-1.12 5.69,-1.68 8.99,-1.68 3.63,0 6.84,0.58 9.61,1.76 2.77,1.17 4.91,2.89 6.4,5.17 1.49,2.27 2.29,4.85 2.41,7.73l-6.23 0.48c-0.33,-3.09 -1.46,-5.43 -3.39,-7.01 -1.93,-1.59 -4.78,-2.38 -8.55,-2.38 -3.93,0 -6.79,0.72 -8.58,2.16 -1.79,1.44 -2.69,3.17 -2.69,5.2 0,1.76 0.64,3.21 1.91,4.35 1.26,1.13 4.51,2.31 9.78,3.49 5.27,1.2 8.89,2.24 10.86,3.13 2.84,1.31 4.95,2.96 6.31,4.99 1.36,2.01 2.03,4.33 2.03,6.95 0,2.61 -0.74,5.05 -2.24,7.36 -1.49,2.31 -3.63,4.1 -6.42,5.38 -2.8,1.28 -5.93,1.92 -9.44,1.92 -4.43,0 -8.14,-0.65 -11.13,-1.94 -3,-1.29 -5.34,-3.23 -7.05,-5.83 -1.71,-2.59 -2.6,-5.53 -2.69,-8.8zm58.97 15.75l0 -49.03 35.4 0 0 5.75 -28.9 0 0 15.07 27.05 0 0 5.75 -27.05 0 0 16.71 30.06 0 0 5.75 -36.57 0zm54.45 -15.75l6.09 -0.55c0.29,2.47 0.96,4.49 2.02,6.07 1.06,1.57 2.71,2.85 4.93,3.83 2.23,0.97 4.74,1.46 7.52,1.46 2.47,0 4.65,-0.37 6.55,-1.11 1.89,-0.74 3.3,-1.76 4.22,-3.05 0.92,-1.29 1.39,-2.69 1.39,-4.2 0,-1.53 -0.45,-2.87 -1.33,-4.02 -0.89,-1.14 -2.36,-2.1 -4.42,-2.89 -1.31,-0.5 -4.22,-1.3 -8.73,-2.38 -4.51,-1.08 -7.66,-2.1 -9.46,-3.06 -2.34,-1.23 -4.08,-2.76 -5.22,-4.57 -1.15,-1.82 -1.72,-3.86 -1.72,-6.11 0,-2.49 0.71,-4.81 2.11,-6.95 1.41,-2.16 3.45,-3.79 6.15,-4.91 2.69,-1.12 5.69,-1.68 8.99,-1.68 3.63,0 6.84,0.58 9.61,1.76 2.77,1.17 4.91,2.89 6.4,5.17 1.49,2.27 2.29,4.85 2.41,7.73l-6.23 0.48c-0.33,-3.09 -1.46,-5.43 -3.39,-7.01 -1.93,-1.59 -4.78,-2.38 -8.55,-2.38 -3.93,0 -6.79,0.72 -8.58,2.16 -1.79,1.44 -2.69,3.17 -2.69,5.2 0,1.76 0.64,3.21 1.91,4.35 1.26,1.13 4.51,2.31 9.78,3.49 5.27,1.2 8.89,2.24 10.86,3.13 2.84,1.31 4.95,2.96 6.31,4.99 1.36,2.01 2.03,4.33 2.03,6.95 0,2.61 -0.74,5.05 -2.24,7.36 -1.49,2.31 -3.63,4.1 -6.42,5.38 -2.8,1.28 -5.93,1.92 -9.44,1.92 -4.43,0 -8.14,-0.65 -11.13,-1.94 -3,-1.29 -5.34,-3.23 -7.05,-5.83 -1.71,-2.59 -2.6,-5.53 -2.69,-8.8zm56.71 0l6.09 -0.55c0.29,2.47 0.96,4.49 2.02,6.07 1.06,1.57 2.71,2.85 4.93,3.83 2.23,0.97 4.74,1.46 7.52,1.46 2.47,0 4.65,-0.37 6.55,-1.11 1.89,-0.74 3.3,-1.76 4.22,-3.05 0.92,-1.29 1.39,-2.69 1.39,-4.2 0,-1.53 -0.45,-2.87 -1.33,-4.02 -0.89,-1.14 -2.36,-2.1 -4.42,-2.89 -1.31,-0.5 -4.22,-1.3 -8.73,-2.38 -4.51,-1.08 -7.66,-2.1 -9.46,-3.06 -2.34,-1.23 -4.08,-2.76 -5.22,-4.57 -1.15,-1.82 -1.72,-3.86 -1.72,-6.11 0,-2.49 0.71,-4.81 2.11,-6.95 1.41,-2.16 3.45,-3.79 6.15,-4.91 2.69,-1.12 5.69,-1.68 8.99,-1.68 3.63,0 6.84,0.58 9.61,1.76 2.77,1.17 4.91,2.89 6.4,5.17 1.49,2.27 2.29,4.85 2.41,7.73l-6.23 0.48c-0.33,-3.09 -1.46,-5.43 -3.39,-7.01 -1.93,-1.59 -4.78,-2.38 -8.55,-2.38 -3.93,0 -6.79,0.72 -8.58,2.16 -1.79,1.44 -2.69,3.17 -2.69,5.2 0,1.76 0.64,3.21 1.91,4.35 1.26,1.13 4.51,2.31 9.78,3.49 5.27,1.2 8.89,2.24 10.86,3.13 2.84,1.31 4.95,2.96 6.31,4.99 1.36,2.01 2.03,4.33 2.03,6.95 0,2.61 -0.74,5.05 -2.24,7.36 -1.49,2.31 -3.63,4.1 -6.42,5.38 -2.8,1.28 -5.93,1.92 -9.44,1.92 -4.43,0 -8.14,-0.65 -11.13,-1.94 -3,-1.29 -5.34,-3.23 -7.05,-5.83 -1.71,-2.59 -2.6,-5.53 -2.69,-8.8zm56.85 -8.11c0,-8.13 2.19,-14.49 6.56,-19.1 4.37,-4.6 10.01,-6.89 16.92,-6.89 4.53,0 8.61,1.08 12.25,3.24 3.63,2.16 6.4,5.17 8.31,9.04 1.9,3.86 2.87,8.24 2.87,13.14 0,4.97 -1,9.42 -3.02,13.33 -2.01,3.93 -4.85,6.89 -8.52,8.9 -3.69,2.02 -7.66,3.02 -11.92,3.02 -4.62,0 -8.74,-1.12 -12.39,-3.34 -3.63,-2.22 -6.39,-5.26 -8.26,-9.12 -1.87,-3.85 -2.81,-7.92 -2.81,-12.23zm6.71 0.12c0,5.9 1.59,10.54 4.76,13.94 3.18,3.39 7.16,5.09 11.95,5.09 4.89,0 8.89,-1.71 12.05,-5.14 3.15,-3.42 4.72,-8.28 4.72,-14.58 0,-3.98 -0.67,-7.46 -2.02,-10.43 -1.35,-2.97 -3.32,-5.27 -5.91,-6.91 -2.6,-1.63 -5.52,-2.45 -8.74,-2.45 -4.59,0 -8.54,1.58 -11.85,4.73 -3.31,3.15 -4.97,8.4 -4.97,15.76zm59.72 23.75l0 -49.03 21.73 0c4.37,0 7.69,0.44 9.96,1.32 2.27,0.88 4.09,2.43 5.45,4.65 1.35,2.23 2.03,4.69 2.03,7.38 0,3.48 -1.13,6.42 -3.38,8.8 -2.25,2.38 -5.72,3.89 -10.42,4.54 1.72,0.82 3.02,1.64 3.91,2.44 1.9,1.73 3.69,3.91 5.36,6.53l8.48 13.35 -8.1 0 -6.48 -10.21c-1.88,-2.95 -3.45,-5.2 -4.67,-6.77 -1.23,-1.56 -2.33,-2.65 -3.3,-3.28 -0.96,-0.62 -1.95,-1.05 -2.96,-1.3 -0.73,-0.15 -1.93,-0.23 -3.61,-0.23l-7.51 0 0 21.78 -6.5 0zm6.5 -27.39l13.92 0c2.97,0 5.28,-0.31 6.94,-0.92 1.67,-0.61 2.93,-1.59 3.79,-2.94 0.86,-1.35 1.3,-2.81 1.3,-4.4 0,-2.32 -0.83,-4.23 -2.51,-5.73 -1.68,-1.5 -4.32,-2.24 -7.94,-2.24l-15.5 0 0 16.23zm54.94 27.39l0 -49.03 6.51 0 0 49.03 -6.51 0zm23.59 0l18.81 -49.03 7.13 0 19.96 49.03 -7.38 0 -5.67 -14.86 -20.65 0 -5.32 14.86 -6.88 0zm14.11 -20.13l16.71 0 -5.11 -13.6c-1.54,-4.13 -2.7,-7.54 -3.51,-10.24 -0.67,3.2 -1.57,6.34 -2.71,9.44l-5.38 14.39zm63.37 20.13l0 -49.03 35.4 0 0 5.75 -28.9 0 0 15.07 27.05 0 0 5.75 -27.05 0 0 16.71 30.06 0 0 5.75 -36.57 0zm73.48 -15.75l6.09 -0.55c0.29,2.47 0.96,4.49 2.02,6.07 1.06,1.57 2.71,2.85 4.93,3.83 2.23,0.97 4.74,1.46 7.52,1.46 2.47,0 4.65,-0.37 6.55,-1.11 1.89,-0.74 3.3,-1.76 4.22,-3.05 0.92,-1.29 1.39,-2.69 1.39,-4.2 0,-1.53 -0.45,-2.87 -1.33,-4.02 -0.89,-1.14 -2.36,-2.1 -4.42,-2.89 -1.31,-0.5 -4.22,-1.3 -8.73,-2.38 -4.51,-1.08 -7.66,-2.1 -9.46,-3.06 -2.34,-1.23 -4.08,-2.76 -5.22,-4.57 -1.15,-1.82 -1.72,-3.86 -1.72,-6.11 0,-2.49 0.71,-4.81 2.11,-6.95 1.41,-2.16 3.45,-3.79 6.15,-4.91 2.69,-1.12 5.69,-1.68 8.99,-1.68 3.63,0 6.84,0.58 9.61,1.76 2.77,1.17 4.91,2.89 6.4,5.17 1.49,2.27 2.29,4.85 2.41,7.73l-6.23 0.48c-0.33,-3.09 -1.46,-5.43 -3.39,-7.01 -1.93,-1.59 -4.78,-2.38 -8.55,-2.38 -3.93,0 -6.79,0.72 -8.58,2.16 -1.79,1.44 -2.69,3.17 -2.69,5.2 0,1.76 0.64,3.21 1.91,4.35 1.26,1.13 4.51,2.31 9.78,3.49 5.27,1.2 8.89,2.24 10.86,3.13 2.84,1.31 4.95,2.96 6.31,4.99 1.36,2.01 2.03,4.33 2.03,6.95 0,2.61 -0.74,5.05 -2.24,7.36 -1.49,2.31 -3.63,4.1 -6.42,5.38 -2.8,1.28 -5.93,1.92 -9.44,1.92 -4.43,0 -8.14,-0.65 -11.13,-1.94 -3,-1.29 -5.34,-3.23 -7.05,-5.83 -1.71,-2.59 -2.6,-5.53 -2.69,-8.8zm58.97 15.75l0 -49.03 35.4 0 0 5.75 -28.9 0 0 15.07 27.05 0 0 5.75 -27.05 0 0 16.71 30.06 0 0 5.75 -36.57 0zm56.71 0l0 -49.03 21.73 0c4.37,0 7.69,0.44 9.96,1.32 2.27,0.88 4.09,2.43 5.45,4.65 1.35,2.23 2.03,4.69 2.03,7.38 0,3.48 -1.13,6.42 -3.38,8.8 -2.25,2.38 -5.72,3.89 -10.42,4.54 1.72,0.82 3.02,1.64 3.91,2.44 1.9,1.73 3.69,3.91 5.36,6.53l8.48 13.35 -8.1 0 -6.48 -10.21c-1.88,-2.95 -3.45,-5.2 -4.67,-6.77 -1.23,-1.56 -2.33,-2.65 -3.3,-3.28 -0.96,-0.62 -1.95,-1.05 -2.96,-1.3 -0.73,-0.15 -1.93,-0.23 -3.61,-0.23l-7.51 0 0 21.78 -6.5 0zm6.5 -27.39l13.92 0c2.97,0 5.28,-0.31 6.94,-0.92 1.67,-0.61 2.93,-1.59 3.79,-2.94 0.86,-1.35 1.3,-2.81 1.3,-4.4 0,-2.32 -0.83,-4.23 -2.51,-5.73 -1.68,-1.5 -4.32,-2.24 -7.94,-2.24l-15.5 0 0 16.23zm66.59 27.39l-18.95 -49.03 7.03 0 12.74 35.63c1.02,2.86 1.88,5.53 2.57,8.03 0.75,-2.68 1.63,-5.35 2.63,-8.03l13.22 -35.63 6.62 0 -19.12 49.03 -6.75 0zm43.84 0l0 -49.03 6.51 0 0 49.03 -6.51 0zm63.9 -17.2l6.5 1.64c-1.36,5.33 -3.8,9.38 -7.33,12.18 -3.53,2.8 -7.84,4.2 -12.94,4.2 -5.27,0 -9.56,-1.07 -12.87,-3.23 -3.31,-2.15 -5.82,-5.26 -7.55,-9.34 -1.72,-4.09 -2.59,-8.46 -2.59,-13.14 0,-5.1 0.97,-9.55 2.92,-13.35 1.95,-3.8 4.73,-6.69 8.32,-8.66 3.6,-1.97 7.56,-2.96 11.87,-2.96 4.91,0 9.03,1.25 12.36,3.75 3.34,2.5 5.67,6 6.99,10.52l-6.37 1.51c-1.13,-3.56 -2.79,-6.16 -4.94,-7.79 -2.16,-1.63 -4.87,-2.44 -8.15,-2.44 -3.76,0 -6.91,0.9 -9.43,2.71 -2.52,1.81 -4.3,4.24 -5.32,7.27 -1.03,3.04 -1.54,6.18 -1.54,9.42 0,4.16 0.61,7.81 1.82,10.91 1.21,3.12 3.09,5.43 5.65,6.97 2.55,1.54 5.32,2.3 8.3,2.3 3.63,0 6.69,-1.05 9.2,-3.14 2.51,-2.1 4.21,-5.2 5.1,-9.34zm-18.99 23.09l1.73 -5.89 4.45 0 -1.11 3.56c1.9,0.23 3.34,0.81 4.32,1.76 0.97,0.94 1.45,1.98 1.45,3.14 0,1.67 -0.81,3.14 -2.43,4.42 -1.61,1.28 -4.05,1.92 -7.31,1.92 -1.84,0 -3.45,0 -4.85,0l0.34 -4.25c1.45,0.05 2.5,0.07 3.18,0.07 2.11,0 3.61,-0.29 4.46,-0.87 0.65,-0.45 0.98,-0.98 0.98,-1.63 0,-0.4 -0.12,-0.75 -0.39,-1.06 -0.25,-0.31 -0.72,-0.58 -1.4,-0.8 -0.7,-0.22 -1.84,-0.34 -3.44,-0.37zm42.57 -29.76c0,-8.13 2.19,-14.49 6.56,-19.1 4.37,-4.6 10.01,-6.89 16.92,-6.89 4.53,0 8.61,1.08 12.25,3.24 3.63,2.16 6.4,5.17 8.31,9.04 1.9,3.86 2.87,8.24 2.87,13.14 0,4.97 -1,9.42 -3.02,13.33 -2.01,3.93 -4.85,6.89 -8.52,8.9 -3.69,2.02 -7.66,3.02 -11.92,3.02 -4.62,0 -8.74,-1.12 -12.39,-3.34 -3.63,-2.22 -6.39,-5.26 -8.26,-9.12 -1.87,-3.85 -2.81,-7.92 -2.81,-12.23zm6.71 0.12c0,5.9 1.59,10.54 4.76,13.94 3.18,3.39 7.16,5.09 11.95,5.09 4.89,0 8.89,-1.71 12.05,-5.14 3.15,-3.42 4.72,-8.28 4.72,-14.58 0,-3.98 -0.67,-7.46 -2.02,-10.43 -1.35,-2.97 -3.32,-5.27 -5.91,-6.91 -2.6,-1.63 -5.52,-2.45 -8.74,-2.45 -4.59,0 -8.54,1.58 -11.85,4.73 -3.31,3.15 -4.97,8.4 -4.97,15.76zm57.46 8l6.09 -0.55c0.29,2.47 0.96,4.49 2.02,6.07 1.06,1.57 2.71,2.85 4.93,3.83 2.23,0.97 4.74,1.46 7.52,1.46 2.47,0 4.65,-0.37 6.55,-1.11 1.89,-0.74 3.3,-1.76 4.22,-3.05 0.92,-1.29 1.39,-2.69 1.39,-4.2 0,-1.53 -0.45,-2.87 -1.33,-4.02 -0.89,-1.14 -2.36,-2.1 -4.42,-2.89 -1.31,-0.5 -4.22,-1.3 -8.73,-2.38 -4.51,-1.08 -7.66,-2.1 -9.46,-3.06 -2.34,-1.23 -4.08,-2.76 -5.22,-4.57 -1.15,-1.82 -1.72,-3.86 -1.72,-6.11 0,-2.49 0.71,-4.81 2.11,-6.95 1.41,-2.16 3.45,-3.79 6.15,-4.91 2.69,-1.12 5.69,-1.68 8.99,-1.68 3.63,0 6.84,0.58 9.61,1.76 2.77,1.17 4.91,2.89 6.4,5.17 1.49,2.27 2.29,4.85 2.41,7.73l-6.23 0.48c-0.33,-3.09 -1.46,-5.43 -3.39,-7.01 -1.93,-1.59 -4.78,-2.38 -8.55,-2.38 -3.93,0 -6.79,0.72 -8.58,2.16 -1.79,1.44 -2.69,3.17 -2.69,5.2 0,1.76 0.64,3.21 1.91,4.35 1.26,1.13 4.51,2.31 9.78,3.49 5.27,1.2 8.89,2.24 10.86,3.13 2.84,1.31 4.95,2.96 6.31,4.99 1.36,2.01 2.03,4.33 2.03,6.95 0,2.61 -0.74,5.05 -2.24,7.36 -1.49,2.31 -3.63,4.1 -6.42,5.38 -2.8,1.28 -5.93,1.92 -9.44,1.92 -4.43,0 -8.14,-0.65 -11.13,-1.94 -3,-1.29 -5.34,-3.23 -7.05,-5.83 -1.71,-2.59 -2.6,-5.53 -2.69,-8.8z"/>
  <path class="fil0" d="M535.54 315.04l17.73 13.13c-8.1,15.37 -19.26,27.24 -33.37,35.5 -14.06,8.26 -30.09,12.42 -48.09,12.42 -26.48,0 -48.36,-8.75 -65.64,-26.2 -17.23,-17.45 -25.87,-39.61 -25.87,-66.47 0,-26.91 8.64,-49.12 25.93,-66.57 17.34,-17.45 39.17,-26.21 65.54,-26.21 16.35,0 31.29,3.56 44.75,10.72 13.46,7.16 24.4,17.39 32.82,30.63l-18.43 13.13c-5.52,-10.56 -13.56,-18.87 -24.01,-24.83 -10.45,-5.97 -22.16,-8.97 -35.07,-8.97 -19.86,0 -36.32,6.84 -49.34,20.46 -13.02,13.62 -19.53,30.85 -19.53,51.64 0,20.85 6.51,38.08 19.53,51.64 13.02,13.57 29.48,20.35 49.34,20.35 13.9,0 26.21,-3.45 36.98,-10.29 10.78,-6.84 19.69,-16.85 26.75,-30.09z"/>
  <path class="fil0" d="M645.75 355.41c19.86,0 36.32,-6.78 49.4,-20.35 13.02,-13.56 19.53,-30.8 19.53,-51.64 0,-20.9 -6.51,-38.18 -19.47,-51.75 -12.97,-13.56 -29.48,-20.35 -49.45,-20.35 -19.86,0 -36.32,6.84 -49.4,20.46 -13.02,13.62 -19.53,30.85 -19.53,51.64 0,20.85 6.51,38.08 19.53,51.64 13.07,13.57 29.54,20.35 49.4,20.35zm-0.06 20.68c-26.53,0 -48.41,-8.75 -65.64,-26.2 -17.23,-17.45 -25.87,-39.61 -25.87,-66.47 0,-26.91 8.64,-49.12 25.99,-66.57 17.28,-17.45 39.11,-26.21 65.53,-26.21 26.48,0 48.41,8.75 65.86,26.31 17.4,17.51 26.1,39.66 26.1,66.47 0,26.86 -8.7,49.02 -26.04,66.47 -17.34,17.45 -39.33,26.2 -65.92,26.2z"/>
  <polygon class="fil0" points="751.97,371.49 751.97,194.58 763.51,194.58 878.34,326.8 878.34,194.58 900.33,194.58 900.33,371.49 889.11,371.49 773.96,239.27 773.96,371.49 "/>
  <polygon class="fil0" points="985.31,371.49 985.31,214.93 910.81,214.93 910.81,194.58 1081.81,194.58 1081.81,214.93 1007.31,214.93 1007.31,371.49 "/>
  <path class="fil0" d="M1079.5 303.22l77.9 0 -39.11 -78.34 -38.79 78.34zm-57.06 68.27l86.7 -176.91 18.27 0 87.69 176.91 -23.91 0 -24.02 -47.59 -97.76 0 -23.41 47.59 -23.58 0z"/>
  <path class="fil0" d="M1358.74 315.04l17.73 13.13c-8.1,15.37 -19.26,27.24 -33.37,35.5 -14.06,8.26 -30.09,12.42 -48.09,12.42 -26.48,0 -48.36,-8.75 -65.64,-26.2 -17.23,-17.45 -25.87,-39.61 -25.87,-66.47 0,-26.91 8.64,-49.12 25.93,-66.57 17.34,-17.45 39.17,-26.21 65.54,-26.21 16.35,0 31.29,3.56 44.75,10.72 13.46,7.16 24.4,17.39 32.82,30.63l-18.43 13.13c-5.52,-10.56 -13.56,-18.87 -24.01,-24.83 -10.45,-5.97 -22.16,-8.97 -35.07,-8.97 -19.86,0 -36.32,6.84 -49.34,20.46 -13.02,13.62 -19.53,30.85 -19.53,51.64 0,20.85 6.51,38.08 19.53,51.64 13.02,13.57 29.48,20.35 49.34,20.35 13.9,0 26.21,-3.45 36.98,-10.29 10.78,-6.84 19.69,-16.85 26.75,-30.09z"/>
  <polygon class="fil0" points="1452.39,371.49 1452.39,214.93 1377.88,214.93 1377.88,194.58 1548.89,194.58 1548.89,214.93 1474.38,214.93 1474.38,371.49 "/>
  <g id="_2164769853024">
   <path class="fil2" d="M296.84 410.21l-125.3 0c-57.54,0 -104.65,-47.1 -104.65,-104.65 0,-57.55 47.1,-104.65 104.65,-104.65l119.1 0 0 21.8 -119.1 0c-45.57,0 -82.84,37.27 -82.84,82.84 0,45.57 37.27,82.84 82.84,82.84l125.3 0 0 21.81z"/>
   <path class="fil2" d="M214.43 348.47l-42.9 0c-23.59,0 -42.9,-19.32 -42.9,-42.9 0,-23.59 19.32,-42.9 42.9,-42.9l160.65 0 0 21.81 -160.65 0c-11.62,0 -21.1,9.48 -21.1,21.1 0,11.61 9.48,21.1 21.1,21.1l42.9 0 0 21.8z"/>
   <polygon class="fil2" points="308.57,348.47 308.57,326.66 331.98,326.66 331.98,348.47 "/>
   <polygon class="fil2" points="233.02,348.47 233.02,326.66 288.91,326.66 288.91,348.47 "/>
   <path class="fil2" d="M328.71 471.95l-157.17 0c-91.51,0 -166.39,-74.88 -166.39,-166.39 0,-91.51 74.88,-166.39 166.39,-166.39l56.38 0 0 21.81 -56.38 0c-79.53,0 -144.58,65.05 -144.58,144.58 0,79.53 65.05,144.58 144.58,144.58l157.17 0 0 21.81z"/>
  </g>
 </g>
</svg>
